SplineFontDB: 3.2
FontName: BoeingEFIS
FullName: BoeingEFIS
FamilyName: BoeingEFIS
Weight: Book
Copyright: Copyright (C) 2021-2022 Salty Simulations and its contributors.
Version: 1.6
ItalicAngle: 0
UnderlinePosition: -109
UnderlineWidth: 51
Ascent: 880
Descent: 144
InvalidEm: 0
sfntRevision: 0x00016666
LayerCount: 2
Layer: 0 1 "Back" 1
Layer: 1 1 "Fore" 0
XUID: [1021 158 -843825992 6567]
StyleMap: 0x0000
FSType: 0
OS2Version: 4
OS2_WeightWidthSlopeOnly: 0
OS2_UseTypoMetrics: 0
CreationTime: 1610550704
ModificationTime: 1642618126
PfmFamily: 17
TTFWeight: 400
TTFWidth: 5
LineGap: 100
VLineGap: 0
Panose: 2 0 5 3 0 0 0 0 0 0
OS2TypoAscent: 945
OS2TypoAOffset: 0
OS2TypoDescent: -145
OS2TypoDOffset: 0
OS2TypoLinegap: 100
OS2WinAscent: 945
OS2WinAOffset: 0
OS2WinDescent: 145
OS2WinDOffset: 0
HheadAscent: 945
HheadAOffset: 0
HheadDescent: -145
HheadDOffset: 0
OS2SubXSize: 726
OS2SubYSize: 783
OS2SubXOff: 0
OS2SubYOff: 156
OS2SupXSize: 726
OS2SupYSize: 783
OS2SupXOff: 0
OS2SupYOff: 537
OS2StrikeYSize: 56
OS2StrikeYPos: 287
OS2CapHeight: 781
OS2XHeight: 834
OS2Vendor: 'PfEd'
OS2CodePages: 00000001.00000000
OS2UnicodeRanges: 00000083.0000a020.00000000.00000000
MarkAttachClasses: 1
DEI: 91125
ShortTable: cvt  2
  33
  633
EndShort
ShortTable: maxp 16
  1
  0
  100
  128
  9
  0
  0
  2
  0
  1
  1
  0
  64
  46
  0
  0
EndShort
LangName: 1033 "" "" "Regular"
GaspTable: 1 65535 2 0
Encoding: UnicodeBmp
Compacted: 1
UnicodeInterp: none
NameList: AGL For New Fonts
DisplaySize: -48
AntiAlias: 1
FitToEm: 0
WinInfo: 0 18 7
BeginPrivate: 0
EndPrivate
Grid
-1024 -145.409179688 m 0
 2048 -145.409179688 l 1024
  Named: "DESCENT"
-1126 765 m 0
 2235.06152344 765 l 1024
  Spiro
    -1126 765 {
    2235.06 765 o
    0 0 z
  EndSpiro
-1118 441 m 0
 2243.06152344 441 l 1024
  Spiro
    -1118 441.001 {
    2243.06 441.001 o
    0 0 z
  EndSpiro
  Named: "Lower Case"
EndSplineSet
BeginChars: 65539 107

StartChar: .notdef
Encoding: 65536 -1 0
Width: 530
VWidth: 1116
Flags: W
LayerCount: 2
Fore
SplineSet
144.380859375 -17.8759765625 m 1,0,-1
 144.380859375 588.875976562 l 1,1,-1
 385.619140625 588.875976562 l 1,2,-1
 385.619140625 -17.8759765625 l 1,3,-1
 144.380859375 -17.8759765625 l 1,0,-1
175.247070312 10.5537109375 m 1,4,-1
 357.190429688 10.5537109375 l 1,5,-1
 357.190429688 557.198242188 l 1,6,-1
 175.247070312 557.198242188 l 1,7,-1
 175.247070312 10.5537109375 l 1,4,-1
EndSplineSet
EndChar

StartChar: percent
Encoding: 37 37 8
Width: 530
VWidth: 1116
Flags: W
LayerCount: 2
Fore
SplineSet
286.052734375 87.31640625 m 4,0,1
 260.060546875 122.243164062 260.060546875 122.243164062 268.995117188 171.791015625 c 4,2,3
 276.305664062 215.65234375 276.305664062 215.65234375 315.293945312 243.268554688 c 4,4,5
 351.844726562 269.260742188 351.844726562 269.260742188 400.172851562 260.326171875 c 132,-1,6
 448.501953125 251.390625 448.501953125 251.390625 472.057617188 215.65234375 c 4,7,8
 498.049804688 177.4765625 498.049804688 177.4765625 490.740234375 131.178710938 c 132,-1,9
 483.4296875 84.8798828125 483.4296875 84.8798828125 444.44140625 57.263671875 c 4,10,11
 406.265625 31.2724609375 406.265625 31.2724609375 359.155273438 41.0185546875 c 132,-1,12
 312.044921875 50.765625 312.044921875 50.765625 286.052734375 87.31640625 c 4,0,1
56.998046875 565.731445312 m 132,-1,14
 31.005859375 604.719726562 31.005859375 604.719726562 39.94140625 650.612304688 c 132,-1,15
 48.875 696.50390625 48.875 696.50390625 86.2392578125 723.30859375 c 132,-1,16
 123.602539062 750.11328125 123.602539062 750.11328125 169.901367188 740.771484375 c 132,-1,17
 216.198242188 731.431640625 216.198242188 731.431640625 242.59765625 693.255859375 c 132,-1,18
 268.995117188 655.080078125 268.995117188 655.080078125 261.279296875 610 c 132,-1,19
 253.5625 564.919921875 253.5625 564.919921875 214.575195312 538.521484375 c 132,-1,20
 175.5859375 512.124023438 175.5859375 512.124023438 129.2890625 519.43359375 c 132,-1,13
 82.990234375 526.744140625 82.990234375 526.744140625 56.998046875 565.731445312 c 132,-1,14
47.2509765625 73.5078125 m 6,21,22
 32.6298828125 46.7041015625 32.6298828125 46.7041015625 50.90625 22.337890625 c 132,-1,23
 69.181640625 -2.0302734375 69.181640625 -2.0302734375 94.7685546875 0 c 132,-1,24
 120.353515625 2.03125 120.353515625 2.03125 137.411132812 25.5859375 c 6,25,-1
 476.931640625 688.3828125 l 6,26,27
 491.55078125 715.186523438 491.55078125 715.186523438 474.495117188 739.552734375 c 132,-1,28
 457.4375 763.920898438 457.4375 763.920898438 431.0390625 761.890625 c 132,-1,29
 404.641601562 759.859375 404.641601562 759.859375 386.771484375 737.1171875 c 6,30,-1
 47.2509765625 73.5078125 l 6,21,22
EndSplineSet
EndChar

StartChar: parenleft
Encoding: 40 40 9
Width: 530
VWidth: 1116
Flags: W
LayerCount: 2
Fore
SplineSet
370.514648438 672.950195312 m 4,0,1
 392.4453125 694.880859375 392.4453125 694.880859375 382.698242188 722.90234375 c 132,-1,2
 372.951171875 750.92578125 372.951171875 750.92578125 348.583984375 757.830078125 c 132,-1,3
 324.215820312 764.733398438 324.215820312 764.733398438 297.412109375 747.676757812 c 4,4,5
 143.897460938 598.22265625 143.897460938 598.22265625 144.303710938 380.133789062 c 132,-1,6
 144.708007812 162.043945312 144.708007812 162.043945312 297.412109375 11.7783203125 c 4,7,8
 319.342773438 -10.15234375 319.342773438 -10.15234375 347.770507812 0 c 132,-1,9
 376.200195312 10.1533203125 376.200195312 10.1533203125 381.885742188 36.1455078125 c 132,-1,10
 387.572265625 62.1376953125 387.572265625 62.1376953125 370.514648438 85.693359375 c 4,11,12
 251.114257812 203.469726562 251.114257812 203.469726562 250.708007812 378.509765625 c 132,-1,13
 250.30078125 553.548828125 250.30078125 553.548828125 370.514648438 672.950195312 c 4,0,1
EndSplineSet
EndChar

StartChar: parenright
Encoding: 41 41 10
Width: 530
VWidth: 1116
Flags: W
LayerCount: 2
Fore
SplineSet
232.58203125 749.865234375 m 4,0,1
 210.653320312 771.795898438 210.653320312 771.795898438 182.223632812 760.830078125 c 132,-1,2
 153.794921875 749.865234375 153.794921875 749.865234375 146.890625 725.090820312 c 132,-1,3
 139.986328125 700.317382812 139.986328125 700.317382812 160.291992188 673.513671875 c 4,4,5
 280.505859375 555.737304688 280.505859375 555.737304688 281.317382812 380.291015625 c 132,-1,6
 282.129882812 204.844726562 282.129882812 204.844726562 160.291992188 86.2568359375 c 4,7,8
 138.362304688 64.326171875 138.362304688 64.326171875 147.295898438 37.927734375 c 132,-1,9
 156.231445312 11.5302734375 156.231445312 11.5302734375 181.412109375 3 c 132,-1,10
 206.591796875 -5.52734375 206.591796875 -5.52734375 232.58203125 13.966796875 c 4,11,12
 384.474609375 161.795898438 384.474609375 161.795898438 385.286132812 381.103515625 c 132,-1,13
 386.098632812 600.411132812 386.098632812 600.411132812 232.58203125 749.865234375 c 4,0,1
EndSplineSet
EndChar

StartChar: plus
Encoding: 43 43 11
Width: 530
VWidth: 1116
Flags: W
LayerCount: 2
Fore
SplineSet
324.293945312 557.985351562 m 2,0,1
 324.293945312 611.594726562 324.293945312 611.594726562 268.248046875 613.21875 c 128,-1,2
 212.204101562 614.842773438 212.204101562 614.842773438 212.204101562 557.985351562 c 2,3,-1
 212.204101562 449.14453125 l 1,4,-1
 98.48828125 449.14453125 l 2,5,6
 44.8798828125 449.14453125 44.8798828125 449.14453125 46.0986328125 394.723632812 c 128,-1,7
 47.3173828125 340.302734375 47.3173828125 340.302734375 98.48828125 340.302734375 c 2,8,-1
 212.204101562 340.302734375 l 1,9,-1
 212.204101562 227.400390625 l 2,10,11
 212.204101562 173.791015625 212.204101562 173.791015625 268.248046875 173.791015625 c 128,-1,12
 324.293945312 173.791015625 324.293945312 173.791015625 324.293945312 227.400390625 c 2,13,-1
 324.293945312 340.302734375 l 1,14,-1
 431.51171875 340.302734375 l 2,15,16
 485.120117188 340.302734375 485.120117188 340.302734375 483.901367188 394.723632812 c 128,-1,17
 482.682617188 449.14453125 482.682617188 449.14453125 431.51171875 449.14453125 c 2,18,-1
 324.293945312 449.14453125 l 1,19,-1
 324.293945312 557.985351562 l 2,0,1
EndSplineSet
EndChar

StartChar: comma
Encoding: 44 44 12
Width: 530
VWidth: 1116
Flags: W
LayerCount: 2
Fore
SplineSet
181.63671875 -93.1533203125 m 5,0,1
 180.01171875 -109.3984375 180.01171875 -109.3984375 192.1953125 -123.206054688 c 4,2,3
 208.440429688 -145.13671875 208.440429688 -145.13671875 236.463867188 -144.32421875 c 132,-1,4
 264.485351562 -143.51171875 264.485351562 -143.51171875 279.106445312 -116.708007812 c 4,5,6
 296.975585938 -76.908203125 296.975585938 -76.908203125 338.401367188 23 c 4,7,8
 358.70703125 68.4853515625 358.70703125 68.4853515625 338.401367188 112.346679688 c 132,-1,9
 318.094726562 156.208007812 318.094726562 156.208007812 266.922851562 156.208007812 c 4,10,11
 188.946289062 156.208007812 188.946289062 156.208007812 190.571289062 91.228515625 c 4,12,13
 181.63671875 -93.1533203125 l 6,14,-1
 181.63671875 -93.1533203125 l 5,0,1
EndSplineSet
EndChar

StartChar: hyphen
Encoding: 45 45 13
Width: 530
VWidth: 1116
Flags: W
LayerCount: 2
Fore
SplineSet
98.48828125 449.420898438 m 2,0,1
 44.8798828125 449.420898438 44.8798828125 449.420898438 46.0986328125 395 c 128,-1,2
 47.3173828125 340.579101562 47.3173828125 340.579101562 98.48828125 340.579101562 c 2,3,-1
 431.51171875 340.579101562 l 2,4,5
 485.120117188 340.579101562 485.120117188 340.579101562 483.901367188 395 c 128,-1,6
 482.682617188 449.420898438 482.682617188 449.420898438 431.51171875 449.420898438 c 2,7,-1
 98.48828125 449.420898438 l 2,0,1
EndSplineSet
EndChar

StartChar: period
Encoding: 46 46 14
Width: 530
VWidth: 1116
Flags: W
LayerCount: 2
Fore
SplineSet
166.3125 97.8759765625 m 128,-1,1
 166.3125 0 166.3125 0 265 0 c 128,-1,2
 363.6875 0 363.6875 0 363.6875 97.8759765625 c 128,-1,3
 363.6875 195.751953125 363.6875 195.751953125 265 195.751953125 c 128,-1,0
 166.3125 195.751953125 166.3125 195.751953125 166.3125 97.8759765625 c 128,-1,1
EndSplineSet
EndChar

StartChar: slash
Encoding: 47 47 15
Width: 530
VWidth: 1116
Flags: W
LayerCount: 2
Fore
SplineSet
50.1591796875 74.0625 m 2,0,1
 35.5390625 47.2587890625 35.5390625 47.2587890625 52.5966796875 22.892578125 c 128,-1,2
 69.654296875 -1.4755859375 69.654296875 -1.4755859375 95.6455078125 0.5546875 c 128,-1,3
 121.637695312 2.5859375 121.637695312 2.5859375 141.944335938 26.140625 c 2,4,-1
 479.840820312 688.9375 l 2,5,6
 494.4609375 715.741210938 494.4609375 715.741210938 477.403320312 740.107421875 c 128,-1,7
 460.345703125 764.475585938 460.345703125 764.475585938 433.135742188 762.4453125 c 128,-1,8
 405.92578125 760.4140625 405.92578125 760.4140625 388.868164062 737.671875 c 2,9,-1
 50.1591796875 74.0625 l 2,0,1
EndSplineSet
EndChar

StartChar: zero
Encoding: 48 48 16
Width: 530
VWidth: 1116
Flags: W
LayerCount: 2
Fore
SplineSet
47.1474609375 576.330078125 m 4,0,1
 41.4619140625 561.708984375 41.4619140625 561.708984375 45.5234375 549.525390625 c 6,2,-1
 45.5234375 217.314453125 l 6,3,4
 43.0859375 205.943359375 43.0859375 205.943359375 47.1474609375 192.948242188 c 4,5,6
 48.771484375 185.637695312 48.771484375 185.637695312 51.2080078125 177.515625 c 4,7,8
 87.759765625 84.1064453125 87.759765625 84.1064453125 163.298828125 15.0654296875 c 4,9,10
 175.483398438 2.880859375 175.483398438 2.880859375 192.5390625 -0.3671875 c 4,11,12
 198.225585938 -0.3671875 198.225585938 -0.3671875 199.850585938 -0.3671875 c 4,13,14
 212.034179688 -2.8046875 212.034179688 -2.8046875 233.963867188 -2.8046875 c 4,15,16
 251.833984375 -2.8046875 251.833984375 -2.8046875 267.266601562 -1.9921875 c 132,-1,17
 282.69921875 -1.1796875 282.69921875 -1.1796875 302.193359375 -0.3671875 c 4,18,19
 320.063476562 1.2568359375 320.063476562 1.2568359375 330.622070312 -0.3671875 c 4,20,21
 333.05859375 -0.3671875 333.05859375 -0.3671875 338.744140625 -0.3671875 c 4,22,23
 339.556640625 -0.3671875 l 4,24,25
 365.549804688 2.0693359375 365.549804688 2.0693359375 378.545898438 24 c 5,26,27
 445.149414062 90.603515625 445.149414062 90.603515625 477.638671875 175.890625 c 4,28,29
 483.325195312 183.200195312 483.325195312 183.200195312 484.950195312 196.196289062 c 4,30,31
 487.38671875 207.567382812 487.38671875 207.567382812 484.950195312 214.06640625 c 6,32,-1
 484.950195312 546.276367188 l 6,33,34
 487.38671875 560.896484375 487.38671875 560.896484375 483.325195312 576.330078125 c 4,35,36
 448.3984375 668.114257812 448.3984375 668.114257812 378.545898438 737.155273438 c 5,37,38
 367.173828125 761.5234375 367.173828125 761.5234375 339.556640625 764.771484375 c 4,39,40
 338.744140625 764.771484375 l 4,41,42
 336.30859375 764.771484375 336.30859375 764.771484375 330.622070312 764.771484375 c 4,43,44
 319.25 764.771484375 319.25 764.771484375 302.193359375 764.771484375 c 4,45,46
 281.887695312 766.396484375 281.887695312 766.396484375 266.861328125 765.583984375 c 132,-1,47
 251.833984375 764.771484375 251.833984375 764.771484375 233.963867188 764.771484375 c 4,48,49
 217.71875 764.771484375 217.71875 764.771484375 201.474609375 763.147460938 c 4,50,51
 195.790039062 764.771484375 195.790039062 764.771484375 192.5390625 764.771484375 c 4,52,53
 176.294921875 763.147460938 176.294921875 763.147460938 163.298828125 750.151367188 c 4,54,55
 83.6982421875 673.80078125 83.6982421875 673.80078125 47.1474609375 576.330078125 c 4,0,1
313.565429688 661.616210938 m 4,56,57
 359.05078125 612.881835938 359.05078125 612.881835938 385.85546875 551.149414062 c 4,58,59
 385.85546875 549.525390625 l 6,60,-1
 385.85546875 215.690429688 l 5,61,62
 359.86328125 151.522460938 359.86328125 151.522460938 313.565429688 103.600585938 c 4,63,64
 307.87890625 103.600585938 307.87890625 103.600585938 302.193359375 103.600585938 c 4,65,66
 281.887695312 105.225585938 281.887695312 105.225585938 266.861328125 104.412109375 c 132,-1,67
 251.833984375 103.600585938 251.833984375 103.600585938 233.963867188 103.600585938 c 4,68,69
 225.030273438 103.600585938 225.030273438 103.600585938 214.470703125 103.600585938 c 5,70,71
 168.984375 152.3359375 168.984375 152.3359375 145.428710938 214.06640625 c 5,72,-1
 145.428710938 549.525390625 l 6,73,74
 145.428710938 551.149414062 l 4,75,76
 171.421875 614.504882812 171.421875 614.504882812 214.470703125 659.9921875 c 5,77,78
 221.780273438 658.3671875 221.780273438 658.3671875 233.963867188 659.9921875 c 4,79,80
 251.833984375 659.9921875 251.833984375 659.9921875 267.266601562 659.9921875 c 132,-1,81
 282.69921875 659.9921875 282.69921875 659.9921875 302.193359375 661.616210938 c 4,82,83
 307.87890625 661.616210938 307.87890625 661.616210938 313.565429688 661.616210938 c 4,56,57
EndSplineSet
EndChar

StartChar: one
Encoding: 49 49 17
Width: 530
VWidth: 1116
Flags: W
LayerCount: 2
Fore
SplineSet
140.981445312 638.764648438 m 2,0,1
 129.608398438 622.51953125 129.608398438 622.51953125 130.420898438 605.462890625 c 128,-1,2
 131.233398438 588.40625 131.233398438 588.40625 142.19921875 577.034179688 c 128,-1,3
 153.1640625 565.662109375 153.1640625 565.662109375 165.75390625 558.758789062 c 128,-1,4
 178.34375 551.854492188 178.34375 551.854492188 193.77734375 555.915039062 c 0,5,6
 205.959960938 558.3515625 205.959960938 558.3515625 216.51953125 567.286132812 c 1,7,-1
 216.51953125 101.868164062 l 1,8,-1
 170.221679688 101.868164062 l 2,9,10
 139.35546875 101.868164062 139.35546875 101.868164062 125.547851562 77.5 c 128,-1,11
 111.740234375 53.1337890625 111.740234375 53.1337890625 125.953125 27.140625 c 128,-1,12
 140.16796875 1.1484375 140.16796875 1.1484375 170.221679688 1.1484375 c 2,13,-1
 360.288085938 1.1484375 l 2,14,15
 391.153320312 1.1484375 391.153320312 1.1484375 404.555664062 27.140625 c 128,-1,16
 417.95703125 53.1337890625 417.95703125 53.1337890625 404.555664062 77.5 c 128,-1,17
 391.153320312 101.868164062 391.153320312 101.868164062 360.288085938 101.868164062 c 2,18,-1
 315.614257812 101.868164062 l 1,19,-1
 315.614257812 709.430664062 l 2,20,21
 315.614257812 711.866210938 315.614257812 711.866210938 318.05078125 715.927734375 c 0,22,23
 318.05078125 724.86328125 318.05078125 724.86328125 313.176757812 732.172851562 c 0,24,25
 307.491210938 750.04296875 307.491210938 750.04296875 293.682617188 758.166015625 c 0,26,27
 286.373046875 760.6015625 286.373046875 760.6015625 279.063476562 760.6015625 c 0,28,29
 267.69140625 763.0390625 267.69140625 763.0390625 253.883789062 763.8515625 c 0,30,31
 244.948242188 761.4140625 244.948242188 761.4140625 236.013671875 754.104492188 c 0,32,33
 227.079101562 748.418945312 227.079101562 748.418945312 223.017578125 741.107421875 c 2,34,-1
 140.981445312 638.764648438 l 2,0,1
EndSplineSet
EndChar

StartChar: two
Encoding: 50 50 18
Width: 530
VWidth: 1116
Flags: W
LayerCount: 2
Fore
SplineSet
385.228515625 536.653320312 m 0,0,1
 385.228515625 524.469726562 385.228515625 524.469726562 376.293945312 499.290039062 c 0,2,3
 373.856445312 490.354492188 373.856445312 490.354492188 372.233398438 484.669921875 c 0,4,5
 277.19921875 353.083984375 277.19921875 353.083984375 90.3828125 92.3525390625 c 1,6,-1
 90.3828125 50.927734375 l 2,7,8
 90.3828125 28.9970703125 90.3828125 28.9970703125 103.377929688 15.1884765625 c 0,9,10
 115.5625 0.568359375 115.5625 0.568359375 140.7421875 0.568359375 c 2,11,-1
 386.853515625 0.568359375 l 2,12,13
 417.71875 0.568359375 417.71875 0.568359375 431.12109375 25.748046875 c 128,-1,14
 444.5234375 50.927734375 444.5234375 50.927734375 431.93359375 76.513671875 c 128,-1,15
 419.342773438 102.099609375 419.342773438 102.099609375 386.853515625 102.099609375 c 2,16,-1
 221.155273438 102.099609375 l 1,17,-1
 457.51953125 430.249023438 l 2,18,19
 459.955078125 435.934570312 459.955078125 435.934570312 466.453125 443.244140625 c 0,20,21
 477.825195312 461.11328125 477.825195312 461.11328125 481.07421875 484.669921875 c 0,22,23
 486.759765625 510.661132812 486.759765625 510.661132812 485.948242188 536.653320312 c 0,24,25
 485.948242188 641.43359375 485.948242188 641.43359375 410.814453125 710.474609375 c 128,-1,26
 335.681640625 779.515625 335.681640625 779.515625 224.403320312 764.083984375 c 0,27,28
 163.484375 755.1484375 163.484375 755.1484375 116.780273438 717.37890625 c 128,-1,29
 70.076171875 679.609375 70.076171875 679.609375 48.95703125 628.4375 c 0,30,31
 36.7734375 601.633789062 36.7734375 601.633789062 54.236328125 578.890625 c 128,-1,32
 71.7001953125 556.146484375 71.7001953125 556.146484375 101.34765625 558.177734375 c 128,-1,33
 130.995117188 560.208007812 130.995117188 560.208007812 140.7421875 588.637695312 c 0,34,35
 155.361328125 621.940429688 155.361328125 621.940429688 186.227539062 643.870117188 c 128,-1,36
 217.09375 665.80078125 217.09375 665.80078125 256.081054688 665.80078125 c 0,37,38
 310.501953125 665.80078125 310.501953125 665.80078125 347.866210938 628.4375 c 128,-1,39
 385.228515625 591.07421875 385.228515625 591.07421875 385.228515625 536.653320312 c 0,0,1
EndSplineSet
EndChar

StartChar: three
Encoding: 51 51 19
Width: 530
VWidth: 1116
Flags: W
LayerCount: 2
Fore
SplineSet
208.975585938 332.749023438 m 0,0,1
 220.34765625 332.749023438 220.34765625 332.749023438 238.623046875 332.749023438 c 128,-1,2
 256.899414062 332.749023438 256.899414062 332.749023438 271.924804688 332.749023438 c 128,-1,3
 286.951171875 332.749023438 286.951171875 332.749023438 305.634765625 332.749023438 c 0,4,5
 320.25390625 332.749023438 320.25390625 332.749023438 333.250976562 332.749023438 c 1,6,7
 359.241210938 314.87890625 359.241210938 314.87890625 372.23828125 288.075195312 c 0,8,9
 386.859375 259.645507812 386.859375 259.645507812 384.016601562 229.592773438 c 128,-1,10
 381.172851562 199.540039062 381.172851562 199.540039062 369.39453125 171.516601562 c 128,-1,11
 357.618164062 143.494140625 357.618164062 143.494140625 331.625976562 125.217773438 c 128,-1,12
 305.634765625 106.943359375 305.634765625 106.943359375 275.174804688 101.256835938 c 128,-1,13
 244.715820312 95.5712890625 244.715820312 95.5712890625 205.7265625 111.81640625 c 0,14,15
 160.240234375 129.686523438 160.240234375 129.686523438 141.559570312 171.921875 c 0,16,17
 134.25 188.16796875 134.25 188.16796875 117.59765625 193.853515625 c 128,-1,18
 100.947265625 199.540039062 100.947265625 199.540039062 87.544921875 196.697265625 c 128,-1,19
 74.142578125 193.853515625 74.142578125 193.853515625 61.146484375 185.325195312 c 128,-1,20
 48.1513671875 176.796875 48.1513671875 176.796875 43.68359375 160.145507812 c 128,-1,21
 39.2158203125 143.494140625 39.2158203125 143.494140625 49.775390625 127.249023438 c 0,22,23
 76.5791015625 72.828125 76.5791015625 72.828125 130.188476562 36.68359375 c 128,-1,24
 183.796875 0.5380859375 183.796875 0.5380859375 255.274414062 0.5380859375 c 0,25,26
 309.6953125 0.5380859375 309.6953125 0.5380859375 357.618164062 24.09375 c 128,-1,27
 405.541015625 47.6484375 405.541015625 47.6484375 437.625 84.19921875 c 128,-1,28
 469.708007812 120.750976562 469.708007812 120.750976562 482.297851562 175.172851562 c 128,-1,29
 494.888671875 229.592773438 494.888671875 229.592773438 477.831054688 288.075195312 c 0,30,31
 463.2109375 342.495117188 463.2109375 342.495117188 428.283203125 383.919921875 c 1,32,33
 463.2109375 423.719726562 463.2109375 423.719726562 477.831054688 479.766601562 c 0,34,35
 490.013671875 533.374023438 490.013671875 533.374023438 480.673828125 585.763671875 c 128,-1,36
 471.333007812 638.154296875 471.333007812 638.154296875 441.279296875 675.112304688 c 128,-1,37
 411.2265625 712.069335938 411.2265625 712.069335938 368.176757812 738.466796875 c 128,-1,38
 325.127929688 764.865234375 325.127929688 764.865234375 274.768554688 766.490234375 c 128,-1,39
 224.409179688 768.115234375 224.409179688 768.115234375 169.17578125 747.80859375 c 0,40,41
 90.3876953125 714.505859375 90.3876953125 714.505859375 49.775390625 639.779296875 c 0,42,43
 40.83984375 621.91015625 40.83984375 621.91015625 44.4951171875 606.8828125 c 128,-1,44
 48.1513671875 591.85546875 48.1513671875 591.85546875 61.146484375 582.108398438 c 128,-1,45
 74.142578125 572.362304688 74.142578125 572.362304688 87.544921875 569.11328125 c 128,-1,46
 100.947265625 565.864257812 100.947265625 565.864257812 116.379882812 572.362304688 c 128,-1,47
 131.8125 578.860351562 131.8125 578.860351562 141.559570312 593.48046875 c 0,48,49
 157.8046875 624.346679688 157.8046875 624.346679688 186.638671875 644.65234375 c 128,-1,50
 215.474609375 664.958984375 215.474609375 664.958984375 255.274414062 664.958984375 c 0,51,52
 318.62890625 664.958984375 318.62890625 664.958984375 358.0234375 617.036132812 c 128,-1,53
 397.41796875 569.11328125 397.41796875 569.11328125 381.172851562 504.133789062 c 0,54,55
 369.801757812 458.646484375 369.801757812 458.646484375 333.250976562 431.842773438 c 1,56,57
 321.87890625 434.280273438 321.87890625 434.280273438 305.634765625 435.903320312 c 0,58,59
 287.764648438 435.903320312 287.764648438 435.903320312 272.33203125 435.903320312 c 128,-1,60
 256.899414062 435.903320312 256.899414062 435.903320312 238.623046875 433.873046875 c 128,-1,61
 220.34765625 431.842773438 220.34765625 431.842773438 208.975585938 431.842773438 c 0,62,63
 180.546875 431.842773438 180.546875 431.842773438 167.551757812 407.880859375 c 128,-1,64
 154.555664062 383.919921875 154.555664062 383.919921875 167.551757812 358.333984375 c 128,-1,65
 180.546875 332.749023438 180.546875 332.749023438 208.975585938 332.749023438 c 0,0,1
EndSplineSet
EndChar

StartChar: four
Encoding: 52 52 20
Width: 530
VWidth: 1116
Flags: W
LayerCount: 2
Fore
SplineSet
51.248046875 314.3359375 m 2,0,1
 42.3134765625 298.091796875 42.3134765625 298.091796875 43.9384765625 280.22265625 c 0,2,3
 45.5625 268.850585938 45.5625 268.850585938 51.248046875 259.916015625 c 0,4,5
 51.248046875 259.916015625 l 0,6,7
 63.431640625 233.923828125 63.431640625 233.923828125 93.4853515625 236.361328125 c 2,8,-1
 320.102539062 236.361328125 l 1,9,-1
 320.102539062 48.7314453125 l 2,10,11
 320.102539062 17.865234375 320.102539062 17.865234375 344.470703125 5.275390625 c 128,-1,12
 368.837890625 -7.3134765625 368.837890625 -7.3134765625 394.829101562 5.6806640625 c 128,-1,13
 420.822265625 18.677734375 420.822265625 18.677734375 420.822265625 48.7314453125 c 2,14,-1
 420.822265625 236.361328125 l 1,15,-1
 437.87890625 236.361328125 l 2,16,17
 468.744140625 236.361328125 468.744140625 236.361328125 480.522460938 261.133789062 c 128,-1,18
 492.299804688 285.908203125 492.299804688 285.908203125 480.116210938 311.899414062 c 128,-1,19
 467.932617188 337.892578125 467.932617188 337.892578125 437.87890625 337.892578125 c 2,20,-1
 420.822265625 337.892578125 l 1,21,-1
 420.822265625 709.08984375 l 2,22,23
 420.822265625 709.08984375 l 0,24,25
 420.822265625 711.52734375 420.822265625 711.52734375 420.822265625 718.837890625 c 0,26,27
 419.197265625 733.458007812 419.197265625 733.458007812 408.231445312 743.610351562 c 128,-1,28
 397.266601562 753.763671875 397.266601562 753.763671875 383.052734375 759.450195312 c 128,-1,29
 368.837890625 765.134765625 368.837890625 765.134765625 353.811523438 759.450195312 c 128,-1,30
 338.78515625 753.763671875 338.78515625 753.763671875 327.413085938 740.767578125 c 2,31,-1
 51.248046875 314.3359375 l 2,0,1
186.893554688 337.892578125 m 1,32,-1
 320.102539062 541.766601562 l 1,33,-1
 320.102539062 337.892578125 l 1,34,-1
 186.893554688 337.892578125 l 1,32,-1
EndSplineSet
EndChar

StartChar: five
Encoding: 53 53 21
Width: 530
VWidth: 1116
Flags: W
LayerCount: 2
Fore
SplineSet
488.09765625 257.616210938 m 0,0,1
 488.09765625 315.28515625 488.09765625 315.28515625 462.91796875 366.86328125 c 128,-1,2
 437.73828125 418.44140625 437.73828125 418.44140625 395.908203125 454.180664062 c 128,-1,3
 354.077148438 489.918945312 354.077148438 489.918945312 295.188476562 506.1640625 c 128,-1,4
 236.30078125 522.409179688 236.30078125 522.409179688 174.569335938 509.4140625 c 0,5,6
 159.94921875 506.9765625 159.94921875 506.9765625 142.891601562 501.291015625 c 1,7,-1
 142.891601562 662.116210938 l 1,8,-1
 435.301757812 662.116210938 l 2,9,10
 466.16796875 662.116210938 466.16796875 662.116210938 478.7578125 686.889648438 c 128,-1,11
 491.34765625 711.6640625 491.34765625 711.6640625 479.5703125 737.655273438 c 128,-1,12
 467.791992188 763.647460938 467.791992188 763.647460938 435.301757812 763.647460938 c 2,13,-1
 92.5322265625 763.647460938 l 2,14,15
 68.1650390625 763.647460938 68.1650390625 763.647460938 58.41796875 750.651367188 c 0,16,17
 43.796875 738.467773438 43.796875 738.467773438 44.6103515625 714.100585938 c 0,18,19
 44.6103515625 711.6640625 l 0,20,21
 44.6103515625 711.6640625 l 2,22,-1
 44.6103515625 418.44140625 l 2,23,24
 44.6103515625 387.576171875 44.6103515625 387.576171875 70.6015625 376.204101562 c 0,25,26
 72.2255859375 376.204101562 72.2255859375 376.204101562 70.6015625 374.580078125 c 0,27,28
 70.6015625 374.580078125 l 0,29,30
 96.59375 359.958984375 96.59375 359.958984375 121.7734375 378.641601562 c 0,31,32
 127.458984375 381.077148438 127.458984375 381.077148438 129.895507812 383.514648438 c 0,33,34
 164.823242188 407.8828125 164.823242188 407.8828125 207.872070312 411.131835938 c 0,35,36
 253.358398438 413.568359375 253.358398438 413.568359375 293.158203125 396.104492188 c 128,-1,37
 332.958007812 378.641601562 332.958007812 378.641601562 359.356445312 340.872070312 c 128,-1,38
 385.754882812 303.1015625 385.754882812 303.1015625 385.754882812 255.991210938 c 128,-1,39
 385.754882812 208.881835938 385.754882812 208.881835938 359.356445312 170.705078125 c 128,-1,40
 332.958007812 132.529296875 332.958007812 132.529296875 293.970703125 115.471679688 c 128,-1,41
 254.982421875 98.4150390625 254.982421875 98.4150390625 209.497070312 102.4765625 c 128,-1,42
 164.010742188 106.538085938 164.010742188 106.538085938 125.834960938 139.83984375 c 0,43,44
 113.650390625 151.2109375 113.650390625 151.2109375 97 151.6171875 c 128,-1,45
 80.3486328125 152.024414062 80.3486328125 152.024414062 68.5712890625 143.494140625 c 128,-1,46
 56.79296875 134.965820312 56.79296875 134.965820312 47.8583984375 120.751953125 c 128,-1,47
 38.923828125 106.538085938 38.923828125 106.538085938 43.3916015625 92.3232421875 c 128,-1,48
 47.8583984375 78.109375 47.8583984375 78.109375 61.6669921875 64.30078125 c 0,49,50
 107.153320312 22.875 107.153320312 22.875 167.259765625 7.443359375 c 128,-1,51
 227.366210938 -7.9892578125 227.366210938 -7.9892578125 283.411132812 5.412109375 c 128,-1,52
 339.45703125 18.814453125 339.45703125 18.814453125 386.162109375 52.5234375 c 128,-1,53
 432.866210938 86.2314453125 432.866210938 86.2314453125 460.482421875 140.24609375 c 128,-1,54
 488.09765625 194.259765625 488.09765625 194.259765625 488.09765625 257.616210938 c 0,0,1
EndSplineSet
EndChar

StartChar: six
Encoding: 54 54 22
Width: 530
VWidth: 1116
Flags: W
LayerCount: 2
Fore
SplineSet
385.822265625 244.818359375 m 0,0,1
 385.822265625 235.8828125 385.822265625 235.8828125 383.791015625 220.450195312 c 128,-1,2
 381.760742188 205.016601562 381.760742188 205.016601562 381.760742188 195.270507812 c 0,3,4
 374.451171875 161.967773438 374.451171875 161.967773438 352.51953125 140.849609375 c 0,5,6
 326.528320312 114.857421875 326.528320312 114.857421875 294.444335938 110.390625 c 128,-1,7
 262.359375 105.922851562 262.359375 105.922851562 229.870117188 111.202148438 c 128,-1,8
 197.379882812 116.482421875 197.379882812 116.482421875 173.825195312 142.474609375 c 128,-1,9
 150.26953125 168.465820312 150.26953125 168.465820312 146.208984375 208.267578125 c 1,10,-1
 146.208984375 329.291992188 l 1,11,12
 160.828125 357.720703125 160.828125 357.720703125 190.069335938 380.462890625 c 0,13,14
 223.372070312 404.831054688 223.372070312 404.831054688 263.984375 403.20703125 c 0,15,16
 385.822265625 401.583007812 385.822265625 401.583007812 385.822265625 244.818359375 c 0,0,1
367.140625 668.8125 m 0,17,18
 378.512695312 668.8125 378.512695312 668.8125 402.473632812 663.126953125 c 128,-1,19
 426.434570312 657.44140625 426.434570312 657.44140625 436.181640625 657.44140625 c 0,20,21
 458.112304688 657.44140625 458.112304688 657.44140625 470.295898438 673.279296875 c 128,-1,22
 482.48046875 689.118164062 482.48046875 689.118164062 484.510742188 705.770507812 c 128,-1,23
 486.541015625 722.420898438 486.541015625 722.420898438 477.200195312 738.259765625 c 128,-1,24
 467.859375 754.098632812 467.859375 754.098632812 448.365234375 760.59765625 c 0,25,26
 350.895507812 786.587890625 350.895507812 786.587890625 266.014648438 756.12890625 c 128,-1,27
 181.134765625 725.669921875 181.134765625 725.669921875 126.71484375 661.501953125 c 0,28,29
 93.412109375 623.326171875 93.412109375 623.326171875 69.0439453125 577.028320312 c 128,-1,30
 44.677734375 530.729492188 44.677734375 530.729492188 44.677734375 485.244140625 c 2,31,-1
 44.677734375 348.786132812 l 2,32,33
 42.2412109375 337.4140625 42.2412109375 337.4140625 44.677734375 326.854492188 c 2,34,-1
 44.677734375 203.393554688 l 2,35,36
 44.677734375 192.022460938 44.677734375 192.022460938 47.1142578125 186.3359375 c 0,37,38
 52.7998046875 148.159179688 52.7998046875 148.159179688 72.2939453125 113.233398438 c 0,39,40
 96.6611328125 73.43359375 96.6611328125 73.43359375 133.211914062 44.1923828125 c 128,-1,41
 169.763671875 14.951171875 169.763671875 14.951171875 216.875 5.205078125 c 128,-1,42
 263.984375 -4.5419921875 263.984375 -4.5419921875 320.841796875 8.453125 c 0,43,44
 384.197265625 24.6982421875 384.197265625 24.6982421875 427.653320312 72.62109375 c 128,-1,45
 471.108398438 120.543945312 471.108398438 120.543945312 482.48046875 184.7109375 c 0,46,47
 484.104492188 190.397460938 484.104492188 190.397460938 482.48046875 195.270507812 c 0,48,49
 484.104492188 200.956054688 484.104492188 200.956054688 484.916992188 208.267578125 c 0,50,51
 486.541015625 222.88671875 486.541015625 222.88671875 486.541015625 244.818359375 c 0,52,53
 486.541015625 362.594726562 486.541015625 362.594726562 429.68359375 433.666015625 c 128,-1,54
 372.826171875 504.73828125 372.826171875 504.73828125 263.984375 504.73828125 c 0,55,56
 197.379882812 503.114257812 197.379882812 503.114257812 146.208984375 470.623046875 c 1,57,-1
 146.208984375 485.244140625 l 1,58,59
 160.828125 563.219726562 160.828125 563.219726562 220.123046875 616.016601562 c 0,60,61
 280.229492188 668.8125 280.229492188 668.8125 367.140625 668.8125 c 0,17,18
EndSplineSet
EndChar

StartChar: seven
Encoding: 55 55 23
Width: 530
VWidth: 1116
Flags: W
LayerCount: 2
Fore
SplineSet
483.122070312 696.82421875 m 2,0,1
 494.493164062 722.815429688 494.493164062 722.815429688 475.811523438 740.685546875 c 0,2,3
 463.62890625 760.9921875 463.62890625 760.9921875 433.57421875 760.1796875 c 2,4,-1
 91.6171875 760.1796875 l 2,5,6
 60.751953125 760.1796875 60.751953125 760.1796875 48.568359375 735.8125 c 128,-1,7
 36.3837890625 711.444335938 36.3837890625 711.444335938 48.9736328125 686.670898438 c 128,-1,8
 61.564453125 661.897460938 61.564453125 661.897460938 91.6171875 661.897460938 c 2,9,-1
 361.284179688 661.897460938 l 1,10,-1
 140.3515625 67.330078125 l 2,11,12
 128.98046875 38.90234375 128.98046875 38.90234375 148.881835938 18.1884765625 c 128,-1,13
 168.78125 -2.5234375 168.78125 -2.5234375 196.397460938 0.7255859375 c 128,-1,14
 224.013671875 3.974609375 224.013671875 3.974609375 235.385742188 34.0283203125 c 2,15,-1
 483.122070312 696.82421875 l 2,0,1
EndSplineSet
EndChar

StartChar: eight
Encoding: 56 56 24
Width: 530
VWidth: 1318
Flags: W
LayerCount: 2
Fore
SplineSet
829.915039062 -2611.64355469 m 1024,0,-1
146.8125 211.73828125 m 4,1,2
 146.8125 261.28515625 146.8125 261.28515625 183.364257812 295.400390625 c 4,3,4
 214.229492188 322.204101562 214.229492188 322.204101562 255.654296875 323.828125 c 4,5,6
 258.091796875 323.828125 258.091796875 323.828125 259.71484375 323.828125 c 132,-1,7
 261.33984375 323.828125 261.33984375 323.828125 264.58984375 324.640625 c 4,8,9
 267.026367188 324.640625 267.026367188 324.640625 268.650390625 323.828125 c 4,10,11
 270.275390625 323.828125 270.275390625 323.828125 272.711914062 323.828125 c 4,12,13
 272.711914062 323.828125 l 4,14,15
 274.336914062 323.828125 274.336914062 323.828125 275.147460938 323.828125 c 4,16,17
 277.584960938 325.452148438 277.584960938 325.452148438 282.459960938 324.640625 c 4,18,19
 320.633789062 323.016601562 320.633789062 323.016601562 350.688476562 293.775390625 c 4,20,21
 383.177734375 261.28515625 383.177734375 261.28515625 384.801757812 211.73828125 c 4,22,23
 384.801757812 163.814453125 384.801757812 163.814453125 348.250976562 129.700195312 c 4,24,25
 314.13671875 97.2099609375 314.13671875 97.2099609375 264.58984375 98.0224609375 c 4,26,27
 216.666015625 98.0224609375 216.666015625 98.0224609375 181.739257812 130.918945312 c 132,-1,28
 146.8125 163.814453125 146.8125 163.814453125 146.8125 211.73828125 c 4,1,2
145.188476562 539.075195312 m 4,29,30
 145.188476562 590.24609375 145.188476562 590.24609375 181.739257812 621.923828125 c 4,31,32
 214.229492188 650.352539062 214.229492188 650.352539062 259.71484375 651.165039062 c 4,33,34
 262.153320312 651.165039062 262.153320312 651.165039062 268.650390625 651.165039062 c 4,35,36
 314.13671875 651.165039062 314.13671875 651.165039062 348.657226562 617.049804688 c 132,-1,37
 383.177734375 582.936523438 383.177734375 582.936523438 383.177734375 539.075195312 c 4,38,39
 383.177734375 491.151367188 383.177734375 491.151367188 348.250976562 457.037109375 c 4,40,41
 315.760742188 424.547851562 315.760742188 424.547851562 264.58984375 425.359375 c 4,42,43
 215.041992188 425.359375 215.041992188 425.359375 180.115234375 458.254882812 c 132,-1,44
 145.188476562 491.151367188 145.188476562 491.151367188 145.188476562 539.075195312 c 4,29,30
405.919921875 375 m 5,45,46
 413.231445312 380.685546875 413.231445312 380.685546875 419.728515625 387.99609375 c 4,47,48
 483.896484375 452.1640625 483.896484375 452.1640625 483.083984375 538.66796875 c 132,-1,49
 482.271484375 625.172851562 482.271484375 625.172851562 420.134765625 688.122070312 c 132,-1,50
 357.998046875 751.071289062 357.998046875 751.071289062 268.650390625 751.071289062 c 4,51,52
 266.213867188 751.071289062 266.213867188 751.071289062 263.776367188 751.071289062 c 132,-1,53
 261.33984375 751.071289062 261.33984375 751.071289062 258.903320312 751.071289062 c 4,54,55
 170.368164062 751.071289062 170.368164062 751.071289062 108.637695312 688.122070312 c 132,-1,56
 46.90625 625.172851562 46.90625 625.172851562 46.90625 538.26171875 c 132,-1,57
 46.90625 451.3515625 46.90625 451.3515625 109.44921875 387.99609375 c 4,58,59
 116.759765625 380.685546875 116.759765625 380.685546875 122.446289062 375 c 5,60,61
 116.759765625 369.313476562 116.759765625 369.313476562 110.26171875 362.00390625 c 4,62,63
 46.0947265625 297.8359375 46.0947265625 297.8359375 47.71875 210.924804688 c 132,-1,64
 49.3427734375 124.014648438 49.3427734375 124.014648438 111.07421875 61.4716796875 c 132,-1,65
 172.805664062 -1.0712890625 172.805664062 -1.0712890625 259.71484375 -1.0712890625 c 4,66,67
 262.153320312 -1.0712890625 262.153320312 -1.0712890625 265.401367188 -1.0712890625 c 4,68,-1
 268.650390625 -1.0712890625 l 4,69,70
 357.185546875 -1.0712890625 357.185546875 -1.0712890625 419.728515625 61.4716796875 c 132,-1,71
 482.271484375 124.014648438 482.271484375 124.014648438 482.271484375 211.33203125 c 132,-1,72
 482.271484375 298.6484375 482.271484375 298.6484375 419.728515625 362.00390625 c 4,73,74
 413.231445312 369.313476562 413.231445312 369.313476562 405.919921875 375 c 5,45,46
EndSplineSet
EndChar

StartChar: nine
Encoding: 57 57 25
Width: 530
VWidth: 1116
Flags: W
LayerCount: 2
Fore
SplineSet
121.502929688 100.243164062 m 0,0,1
 103.633789062 97.806640625 103.633789062 97.806640625 91.85546875 83.185546875 c 128,-1,2
 80.0791015625 68.5654296875 80.0791015625 68.5654296875 80.0791015625 50.6953125 c 0,3,4
 80.0791015625 30.388671875 80.0791015625 30.388671875 94.69921875 15.3623046875 c 128,-1,5
 109.319335938 0.3369140625 109.319335938 0.3369140625 129.625976562 0.3369140625 c 0,6,7
 132.0625 0.3369140625 132.0625 0.3369140625 136.124023438 0.3369140625 c 4,8,9
 190.543945312 7.646484375 190.543945312 7.646484375 244.15234375 35.263671875 c 0,10,11
 322.12890625 75.0625 322.12890625 75.0625 374.924804688 157.913085938 c 0,12,13
 414.725585938 217.20703125 414.725585938 217.20703125 448.83984375 304.930664062 c 0,14,15
 477.26953125 383.717773438 477.26953125 383.717773438 484.579101562 444.63671875 c 0,16,17
 487.015625 470.629882812 487.015625 470.629882812 489.452148438 497.432617188 c 0,18,19
 489.452148438 512.0546875 489.452148438 512.0546875 489.452148438 525.862304688 c 0,20,21
 491.077148438 543.731445312 491.077148438 543.731445312 482.954101562 564.038085938 c 0,22,23
 480.517578125 578.658203125 480.517578125 578.658203125 474.01953125 600.588867188 c 0,24,25
 471.583007812 611.9609375 471.583007812 611.9609375 467.521484375 620.083007812 c 128,-1,26
 463.4609375 628.205078125 463.4609375 628.205078125 456.962890625 637.953125 c 1,27,-1
 456.962890625 636.328125 l 1,28,29
 436.65625 676.12890625 436.65625 676.12890625 404.166015625 706.181640625 c 0,30,31
 353.806640625 751.66796875 353.806640625 751.66796875 287.202148438 760.6015625 c 0,32,33
 272.581054688 763.0390625 272.581054688 763.0390625 257.961914062 764.663085938 c 0,34,35
 203.540039062 764.663085938 203.540039062 764.663085938 155.6171875 740.295898438 c 0,36,37
 92.2626953125 706.994140625 92.2626953125 706.994140625 60.583984375 640.389648438 c 0,38,39
 40.27734375 594.903320312 40.27734375 594.903320312 40.27734375 544.543945312 c 0,40,41
 40.27734375 526.673828125 40.27734375 526.673828125 45.1513671875 503.931640625 c 0,42,43
 56.5224609375 435.702148438 56.5224609375 435.702148438 103.633789062 389.404296875 c 0,44,45
 162.927734375 325.236328125 162.927734375 325.236328125 251.462890625 314.676757812 c 0,46,47
 263.646484375 312.240234375 263.646484375 312.240234375 276.642578125 311.427734375 c 0,48,49
 311.569335938 311.427734375 311.569335938 311.427734375 345.68359375 322.799804688 c 1,50,51
 319.692382812 256.196289062 319.692382812 256.196289062 287.202148438 213.958007812 c 0,52,53
 247.401367188 153.0390625 247.401367188 153.0390625 194.604492188 124.610351562 c 0,54,55
 159.678710938 105.9296875 159.678710938 105.9296875 121.502929688 100.243164062 c 0,0,1
251.462890625 658.259765625 m 0,56,57
 291.263671875 663.944335938 291.263671875 663.944335938 328.220703125 641.607421875 c 128,-1,58
 365.177734375 619.270507812 365.177734375 619.270507812 378.173828125 579.470703125 c 0,59,60
 396.043945312 529.110351562 396.043945312 529.110351562 373.70703125 482.40625 c 128,-1,61
 351.370117188 435.702148438 351.370117188 435.702148438 300.197265625 419.864257812 c 128,-1,62
 249.026367188 404.024414062 249.026367188 404.024414062 202.321289062 432.047851562 c 128,-1,63
 155.6171875 460.069335938 155.6171875 460.069335938 145.05859375 511.2421875 c 0,64,65
 133.686523438 565.662109375 133.686523438 565.662109375 165.364257812 609.1171875 c 128,-1,66
 197.04296875 652.573242188 197.04296875 652.573242188 251.462890625 658.259765625 c 0,56,57
EndSplineSet
EndChar

StartChar: colon
Encoding: 58 58 26
Width: 530
VWidth: 1116
Flags: W
LayerCount: 2
Fore
SplineSet
164.686523438 378.508789062 m 132,-1,1
 164.686523438 280.2265625 164.686523438 280.2265625 262.969726562 280.2265625 c 132,-1,2
 361.251953125 280.2265625 361.251953125 280.2265625 361.251953125 378.508789062 c 132,-1,3
 361.251953125 476.791015625 361.251953125 476.791015625 262.969726562 476.791015625 c 132,-1,0
 164.686523438 476.791015625 164.686523438 476.791015625 164.686523438 378.508789062 c 132,-1,1
168.748046875 98.2822265625 m 132,-1,5
 168.748046875 0 168.748046875 0 267.030273438 0 c 132,-1,6
 365.313476562 0 365.313476562 0 365.313476562 98.2822265625 c 132,-1,7
 365.313476562 196.564453125 365.313476562 196.564453125 267.030273438 196.564453125 c 132,-1,4
 168.748046875 196.564453125 168.748046875 196.564453125 168.748046875 98.2822265625 c 132,-1,5
EndSplineSet
EndChar

StartChar: less
Encoding: 60 60 28
Width: 530
VWidth: 1116
Flags: W
LayerCount: 2
Fore
SplineSet
409.987304688 163.685546875 m 2,0,1
 435.978515625 149.065429688 435.978515625 149.065429688 460.345703125 165.310546875 c 128,-1,2
 484.713867188 181.555664062 484.713867188 181.555664062 483.901367188 207.141601562 c 128,-1,3
 483.088867188 232.727539062 483.088867188 232.727539062 458.721679688 251.409179688 c 2,4,-1
 199.614257812 393.552734375 l 1,5,-1
 458.721679688 537.321289062 l 2,6,7
 484.713867188 555.190429688 484.713867188 555.190429688 484.713867188 582.400390625 c 128,-1,8
 484.713867188 609.611328125 484.713867188 609.611328125 461.970703125 626.262695312 c 128,-1,9
 439.228515625 642.913085938 439.228515625 642.913085938 409.987304688 628.29296875 c 2,10,-1
 69.654296875 439.850585938 l 2,11,12
 68.029296875 438.2265625 68.029296875 438.2265625 69.654296875 436.6015625 c 0,13,14
 69.654296875 436.6015625 l 0,15,16
 45.2861328125 420.356445312 45.2861328125 420.356445312 45.2861328125 393.552734375 c 0,17,18
 45.2861328125 387.8671875 45.2861328125 387.8671875 47.72265625 384.618164062 c 0,19,20
 50.1591796875 366.748046875 50.1591796875 366.748046875 69.654296875 352.940429688 c 0,21,22
 71.2783203125 352.940429688 71.2783203125 352.940429688 69.654296875 351.31640625 c 0,23,24
 69.654296875 351.31640625 l 2,25,-1
 70.4658203125 351.31640625 l 2,26,27
 72.90234375 349.692382812 72.90234375 349.692382812 76.15234375 347.254882812 c 2,28,-1
 409.987304688 163.685546875 l 2,0,1
EndSplineSet
EndChar

StartChar: equal
Encoding: 61 61 29
Width: 530
VWidth: 1116
Flags: W
LayerCount: 2
Fore
SplineSet
98.48828125 530.98828125 m 2,0,1
 44.8798828125 530.98828125 44.8798828125 530.98828125 46.0986328125 477.380859375 c 128,-1,2
 47.3173828125 423.771484375 47.3173828125 423.771484375 98.48828125 423.771484375 c 2,3,-1
 431.51171875 423.771484375 l 2,4,5
 485.120117188 423.771484375 485.120117188 423.771484375 483.901367188 477.380859375 c 128,-1,6
 482.682617188 530.98828125 482.682617188 530.98828125 431.51171875 530.98828125 c 2,7,-1
 98.48828125 530.98828125 l 2,0,1
98.48828125 363.666015625 m 2,8,9
 44.8798828125 363.666015625 44.8798828125 363.666015625 46.0986328125 308.838867188 c 128,-1,10
 47.3173828125 254.01171875 47.3173828125 254.01171875 98.48828125 254.01171875 c 2,11,-1
 431.51171875 254.01171875 l 2,12,13
 485.120117188 254.01171875 485.120117188 254.01171875 483.901367188 308.838867188 c 128,-1,14
 482.682617188 363.666015625 482.682617188 363.666015625 431.51171875 363.666015625 c 2,15,-1
 98.48828125 363.666015625 l 2,8,9
EndSplineSet
EndChar

StartChar: greater
Encoding: 62 62 30
Width: 530
VWidth: 1116
Flags: W
LayerCount: 2
Fore
SplineSet
69.666015625 251.3515625 m 2,0,1
 43.673828125 233.481445312 43.673828125 233.481445312 44.486328125 207.490234375 c 128,-1,2
 45.2978515625 181.497070312 45.2978515625 181.497070312 68.041015625 164.846679688 c 128,-1,3
 90.78515625 148.1953125 90.78515625 148.1953125 120.836914062 163.62890625 c 2,4,-1
 459.545898438 351.2578125 l 2,5,6
 461.169921875 352.8828125 l 0,7,8
 461.169921875 352.8828125 l 0,9,10
 485.538085938 369.127929688 485.538085938 369.127929688 485.538085938 395.120117188 c 0,11,12
 485.538085938 400.805664062 485.538085938 400.805664062 483.913085938 404.053710938 c 0,13,14
 481.4765625 421.923828125 481.4765625 421.923828125 461.169921875 438.168945312 c 0,15,16
 461.169921875 438.168945312 l 0,17,18
 459.545898438 439.793945312 l 2,19,-1
 457.920898438 439.793945312 l 2,20,21
 455.484375 441.41796875 455.484375 441.41796875 453.046875 443.041992188 c 2,22,-1
 120.836914062 628.235351562 l 2,23,24
 94.845703125 642.856445312 94.845703125 642.856445312 70.0712890625 626.205078125 c 128,-1,25
 45.2978515625 609.553710938 45.2978515625 609.553710938 46.111328125 583.561523438 c 128,-1,26
 46.921875 557.5703125 46.921875 557.5703125 69.666015625 537.263671875 c 2,27,-1
 331.209960938 395.120117188 l 1,28,-1
 69.666015625 251.3515625 l 2,0,1
EndSplineSet
EndChar

StartChar: question
Encoding: 63 63 31
Width: 530
VWidth: 1116
Flags: W
LayerCount: 2
Fore
SplineSet
412.323242188 386.42578125 m 0,0,1
 532.53515625 491.206054688 532.53515625 491.206054688 458.620117188 643.908203125 c 0,2,3
 380.64453125 797.424804688 380.64453125 797.424804688 214.133789062 756 c 0,4,5
 66.3046875 721.072265625 66.3046875 721.072265625 44.373046875 574.868164062 c 0,6,7
 38.6875 544.002929688 38.6875 544.002929688 61.4306640625 527.7578125 c 0,8,9
 85.7978515625 511.51171875 85.7978515625 511.51171875 112.196289062 520.447265625 c 128,-1,10
 138.594726562 529.381835938 138.594726562 529.381835938 141.84375 557.810546875 c 0,11,12
 159.712890625 664.21484375 159.712890625 664.21484375 266.118164062 661.778320312 c 0,13,14
 344.09375 661.778320312 344.09375 661.778320312 375.772460938 587.86328125 c 0,15,16
 406.63671875 509.887695312 406.63671875 509.887695312 346.53125 463.58984375 c 0,17,18
 337.595703125 456.279296875 337.595703125 456.279296875 311.603515625 442.471679688 c 0,19,20
 285.612304688 427.850585938 285.612304688 427.850585938 274.241210938 422.977539062 c 0,21,22
 210.884765625 377.491210938 210.884765625 377.491210938 214.133789062 211.79296875 c 0,23,24
 214.133789062 161.432617188 214.133789062 161.432617188 266.118164062 160.620117188 c 0,25,26
 299.419921875 160.620117188 299.419921875 160.620117188 305.91796875 182.551757812 c 0,27,28
 317.290039062 213.416015625 317.290039062 213.416015625 315.665039062 260.52734375 c 0,29,30
 314.040039062 300.327148438 314.040039062 300.327148438 322.163085938 319.821289062 c 0,31,32
 327.84765625 334.442382812 327.84765625 334.442382812 346.53125 345.000976562 c 0,33,34
 387.955078125 366.120117188 387.955078125 366.120117188 412.323242188 386.42578125 c 0,0,1
265.251953125 137.28125 m 128,-1,36
 198.647460938 137.28125 198.647460938 137.28125 199.459960938 69.052734375 c 128,-1,37
 200.271484375 0.8232421875 200.271484375 0.8232421875 265.658203125 0.8232421875 c 128,-1,38
 331.04296875 0.8232421875 331.04296875 0.8232421875 331.450195312 69.052734375 c 128,-1,39
 331.856445312 137.28125 331.856445312 137.28125 265.251953125 137.28125 c 128,-1,36
EndSplineSet
EndChar

StartChar: at
Encoding: 64 64 32
Width: 530
VWidth: 1116
Flags: W
LayerCount: 2
Fore
SplineSet
1.2626953125 268.5546875 m 2,0,-1
 155.58984375 32.1904296875 l 2,1,2
 157.21484375 30.564453125 157.21484375 30.564453125 160.462890625 24.8798828125 c 128,-1,3
 163.711914062 19.193359375 163.711914062 19.193359375 165.336914062 15.9453125 c 128,-1,4
 166.961914062 12.6962890625 166.961914062 12.6962890625 170.616210938 9.0400390625 c 128,-1,5
 174.271484375 5.3857421875 174.271484375 5.3857421875 179.958007812 5.3857421875 c 0,6,7
 197.827148438 -3.548828125 197.827148438 -3.548828125 216.915039062 6.6044921875 c 128,-1,8
 236.001953125 16.7568359375 236.001953125 16.7568359375 239.251953125 38.6875 c 0,9,10
 240.876953125 53.3095703125 240.876953125 53.3095703125 233.565429688 64.6806640625 c 2,11,-1
 81.6748046875 302.668945312 l 2,12,13
 70.3037109375 320.5390625 70.3037109375 320.5390625 61.369140625 328.662109375 c 0,14,15
 46.748046875 340.033203125 46.748046875 340.033203125 29.69140625 340.844726562 c 0,16,17
 15.0703125 340.844726562 15.0703125 340.844726562 4.51171875 331.09765625 c 256,18,19
 -6.859375 319.7265625 -6.859375 319.7265625 -8.484375 305.106445312 c 0,20,21
 -10.1103515625 293.735351562 -10.1103515625 293.735351562 -4.423828125 281.551757812 c 0,22,23
 -1.1748046875 274.240234375 -1.1748046875 274.240234375 1.2626953125 268.5546875 c 2,0,-1
1.2626953125 505.731445312 m 2,24,-1
 305.043945312 32.1904296875 l 2,25,26
 306.66796875 30.564453125 306.66796875 30.564453125 309.916992188 24.068359375 c 128,-1,27
 313.166992188 17.5703125 313.166992188 17.5703125 314.384765625 15.1328125 c 128,-1,28
 315.603515625 12.6962890625 315.603515625 12.6962890625 320.4765625 9.0400390625 c 128,-1,29
 325.350585938 5.3857421875 325.350585938 5.3857421875 329.411132812 5.3857421875 c 0,30,31
 347.280273438 -3.548828125 347.280273438 -3.548828125 366.774414062 6.6044921875 c 128,-1,32
 386.268554688 16.7568359375 386.268554688 16.7568359375 387.081054688 38.6875 c 0,33,34
 388.705078125 53.3095703125 388.705078125 53.3095703125 382.20703125 64.6806640625 c 2,35,-1
 81.6748046875 541.471679688 l 2,36,37
 70.3037109375 559.340820312 70.3037109375 559.340820312 61.369140625 566.650390625 c 0,38,39
 46.748046875 578.022460938 46.748046875 578.022460938 30.9091796875 578.022460938 c 128,-1,40
 15.0703125 578.022460938 15.0703125 578.022460938 4.51171875 568.275390625 c 256,41,42
 -6.859375 556.904296875 -6.859375 556.904296875 -8.484375 544.719726562 c 0,43,44
 -10.1103515625 533.348632812 -10.1103515625 533.348632812 -4.423828125 517.915039062 c 0,45,46
 -1.1748046875 511.41796875 -1.1748046875 511.41796875 1.2626953125 505.731445312 c 2,24,-1
527.600585938 547.96875 m 2,47,-1
 374.0859375 783.521484375 l 2,48,49
 357.83984375 809.513671875 357.83984375 809.513671875 348.905273438 813.57421875 c 0,50,51
 331.036132812 822.508789062 331.036132812 822.508789062 312.353515625 811.543945312 c 128,-1,52
 293.672851562 800.579101562 293.672851562 800.579101562 289.611328125 777.8359375 c 0,53,54
 287.987304688 763.21484375 287.987304688 763.21484375 296.920898438 752.65625 c 2,55,-1
 448.811523438 515.478515625 l 2,56,57
 460.18359375 497.608398438 460.18359375 497.608398438 468.305664062 487.862304688 c 0,58,59
 482.926757812 476.491210938 482.926757812 476.491210938 498.359375 478.927734375 c 256,60,61
 512.979492188 478.927734375 512.979492188 478.927734375 524.3515625 486.237304688 c 256,62,63
 535.72265625 497.608398438 535.72265625 497.608398438 538.159179688 512.23046875 c 0,64,65
 540.595703125 523.6015625 540.595703125 523.6015625 533.286132812 538.220703125 c 0,66,67
 530.037109375 542.282226562 530.037109375 542.282226562 527.600585938 547.96875 c 2,47,-1
527.600585938 309.979492188 m 2,68,-1
 223.006835938 783.521484375 l 2,69,70
 221.381835938 785.146484375 221.381835938 785.146484375 218.1328125 792.048828125 c 128,-1,71
 214.883789062 798.954101562 214.883789062 798.954101562 213.258789062 802.609375 c 128,-1,72
 211.635742188 806.263671875 211.635742188 806.263671875 207.166992188 809.918945312 c 128,-1,73
 202.700195312 813.57421875 202.700195312 813.57421875 200.264648438 813.57421875 c 0,74,75
 182.39453125 822.508789062 182.39453125 822.508789062 162.493164062 811.543945312 c 128,-1,76
 142.59375 800.579101562 142.59375 800.579101562 140.96875 777.8359375 c 0,77,78
 139.345703125 763.21484375 139.345703125 763.21484375 148.279296875 752.65625 c 2,79,-1
 448.811523438 275.865234375 l 2,80,81
 460.18359375 257.995117188 460.18359375 257.995117188 468.305664062 251.497070312 c 0,82,83
 482.926757812 240.125976562 482.926757812 240.125976562 498.359375 239.313476562 c 256,84,85
 512.979492188 239.313476562 512.979492188 239.313476562 524.3515625 249.873046875 c 256,86,87
 535.72265625 261.245117188 535.72265625 261.245117188 538.159179688 274.240234375 c 0,88,89
 540.595703125 285.612304688 540.595703125 285.612304688 533.286132812 300.232421875 c 0,90,91
 530.037109375 304.293945312 530.037109375 304.293945312 527.600585938 309.979492188 c 2,68,-1
529.224609375 71.177734375 m 2,92,-1
 76.8017578125 783.521484375 l 2,93,94
 76.8017578125 785.146484375 76.8017578125 785.146484375 72.333984375 792.048828125 c 128,-1,95
 67.8662109375 798.954101562 67.8662109375 798.954101562 65.8359375 802.609375 c 128,-1,96
 63.8056640625 806.263671875 63.8056640625 806.263671875 60.150390625 809.918945312 c 128,-1,97
 56.4951171875 813.57421875 56.4951171875 813.57421875 51.6220703125 813.57421875 c 0,98,99
 33.7529296875 822.508789062 33.7529296875 822.508789062 14.6650390625 811.543945312 c 128,-1,100
 -4.423828125 800.579101562 -4.423828125 800.579101562 -8.484375 777.8359375 c 0,101,102
 -10.1103515625 763.21484375 -10.1103515625 763.21484375 -0.3623046875 752.65625 c 2,103,-1
 448.811523438 38.6875 l 2,104,105
 460.18359375 20.818359375 460.18359375 20.818359375 468.305664062 12.6962890625 c 0,106,107
 482.926757812 1.32421875 482.926757812 1.32421875 498.359375 1.32421875 c 0,108,109
 512.979492188 1.32421875 512.979492188 1.32421875 525.975585938 12.6962890625 c 256,110,111
 537.34765625 24.068359375 537.34765625 24.068359375 538.565429688 34.6259765625 c 128,-1,112
 539.784179688 45.1865234375 539.784179688 45.1865234375 535.72265625 62.2431640625 c 0,113,114
 531.662109375 65.4921875 531.662109375 65.4921875 529.224609375 71.177734375 c 2,92,-1
EndSplineSet
EndChar

StartChar: A
Encoding: 65 65 33
Width: 530
VWidth: 1116
Flags: W
LayerCount: 2
Fore
SplineSet
313.174804688 319.37109375 m 1,0,-1
 214.080078125 319.37109375 l 1,1,-1
 263.626953125 511.0625 l 1,2,-1
 313.174804688 319.37109375 l 1,0,-1
339.166992188 219.46484375 m 1,3,-1
 385.46484375 35.896484375 l 2,4,5
 391.151367188 9.0927734375 391.151367188 9.0927734375 419.579101562 2.1884765625 c 128,-1,6
 448.008789062 -4.7158203125 448.008789062 -4.7158203125 469.533203125 13.1533203125 c 128,-1,7
 491.057617188 31.0224609375 491.057617188 31.0224609375 482.934570312 64.3251953125 c 2,8,-1
 314.799804688 718.998046875 l 2,9,10
 313.174804688 733.619140625 313.174804688 733.619140625 305.052734375 745.802734375 c 0,11,12
 296.1171875 757.173828125 296.1171875 757.173828125 280.684570312 760.423828125 c 0,13,14
 266.064453125 766.108398438 266.064453125 766.108398438 249.819335938 760.423828125 c 0,15,16
 231.94921875 757.986328125 231.94921875 757.986328125 222.203125 743.366210938 c 0,17,18
 210.831054688 731.995117188 210.831054688 731.995117188 211.643554688 717.374023438 c 2,19,-1
 47.5693359375 64.3251953125 l 2,20,21
 38.6337890625 31.0224609375 38.6337890625 31.0224609375 58.9404296875 13.1533203125 c 128,-1,22
 79.2470703125 -4.7158203125 79.2470703125 -4.7158203125 106.86328125 1.3759765625 c 128,-1,23
 134.479492188 7.4677734375 134.479492188 7.4677734375 142.602539062 35.896484375 c 2,24,-1
 189.712890625 219.46484375 l 1,25,-1
 339.166992188 219.46484375 l 1,3,-1
EndSplineSet
EndChar

StartChar: B
Encoding: 66 66 34
Width: 530
VWidth: 1116
Flags: W
LayerCount: 2
Fore
SplineSet
314.203125 441.282226562 m 1,0,-1
 144.44140625 441.282226562 l 1,1,-1
 144.44140625 662.21484375 l 1,2,3
 263.842773438 660.58984375 263.842773438 660.58984375 297.145507812 658.153320312 c 1,4,5
 323.13671875 643.532226562 323.13671875 643.532226562 341.819335938 617.541015625 c 0,6,7
 363.75 584.239257812 363.75 584.239257812 363.75 546.0625 c 0,8,9
 363.75 511.135742188 363.75 511.135742188 345.067382812 479.458007812 c 0,10,11
 332.072265625 455.903320312 332.072265625 455.903320312 314.203125 441.282226562 c 1,0,-1
315.826171875 340.563476562 m 1,12,13
 359.688476562 314.571289062 359.688476562 314.571289062 376.745117188 260.151367188 c 0,14,15
 394.615234375 200.856445312 394.615234375 200.856445312 359.688476562 143.1875 c 0,16,17
 341.819335938 117.1953125 341.819335938 117.1953125 311.765625 100.137695312 c 1,18,-1
 144.44140625 100.137695312 l 1,19,-1
 144.44140625 340.563476562 l 1,20,-1
 315.826171875 340.563476562 l 1,12,13
410.047851562 396.608398438 m 1,21,22
 424.66796875 414.478515625 424.66796875 414.478515625 437.6640625 435.59765625 c 0,23,24
 468.530273438 490.017578125 468.530273438 490.017578125 464.46875 560.68359375 c 0,25,26
 462.03125 627.288085938 462.03125 627.288085938 424.66796875 678.458984375 c 0,27,28
 391.366210938 723.946289062 391.366210938 723.946289062 344.255859375 750.749023438 c 0,29,30
 332.072265625 762.12109375 332.072265625 762.12109375 309.328125 760.497070312 c 2,31,-1
 94.89453125 763.74609375 l 2,32,33
 70.5283203125 763.74609375 70.5283203125 763.74609375 60.7802734375 750.749023438 c 0,34,35
 46.16015625 738.56640625 46.16015625 738.56640625 45.34765625 714.198242188 c 2,36,-1
 45.34765625 51.40234375 l 2,37,38
 45.34765625 25.4111328125 45.34765625 25.4111328125 60.7802734375 13.2275390625 c 0,39,40
 72.9638671875 1.04296875 72.9638671875 1.04296875 94.89453125 1.04296875 c 2,41,-1
 311.765625 1.04296875 l 2,42,43
 323.13671875 -1.3935546875 323.13671875 -1.3935546875 335.3203125 2.66796875 c 0,44,45
 346.692382812 4.29296875 346.692382812 4.29296875 353.190429688 8.353515625 c 0,46,47
 403.549804688 34.3447265625 403.549804688 34.3447265625 438.4765625 83.080078125 c 0,48,49
 476.653320312 137.500976562 476.653320312 137.500976562 483.555664062 204.51171875 c 128,-1,50
 490.4609375 271.522460938 490.4609375 271.522460938 453.909179688 342.188476562 c 0,51,52
 436.040039062 372.241210938 436.040039062 372.241210938 410.047851562 396.608398438 c 1,21,22
EndSplineSet
EndChar

StartChar: C
Encoding: 67 67 35
Width: 530
VWidth: 1116
Flags: W
LayerCount: 2
Fore
SplineSet
47.7734375 606.994140625 m 0,0,1
 42.087890625 592.372070312 42.087890625 592.372070312 44.5244140625 579.375976562 c 2,2,-1
 44.5244140625 187.060546875 l 2,3,4
 42.8994140625 179.749023438 42.8994140625 179.749023438 44.5244140625 170.001953125 c 0,5,6
 46.1484375 157.819335938 46.1484375 157.819335938 51.0224609375 148.883789062 c 0,7,8
 72.953125 95.2763671875 72.953125 95.2763671875 121.688476562 55.474609375 c 0,9,10
 176.108398438 11.6142578125 176.108398438 11.6142578125 244.336914062 1.4609375 c 128,-1,11
 312.567382812 -8.6923828125 312.567382812 -8.6923828125 386.48046875 27.8583984375 c 0,12,13
 440.901367188 56.2880859375 440.901367188 56.2880859375 476.640625 111.520507812 c 0,14,15
 488.01171875 127.765625 488.01171875 127.765625 485.981445312 143.198242188 c 128,-1,16
 483.951171875 158.630859375 483.951171875 158.630859375 472.173828125 168.784179688 c 128,-1,17
 460.395507812 178.9375 460.395507812 178.9375 446.587890625 185.435546875 c 128,-1,18
 432.779296875 191.93359375 432.779296875 191.93359375 416.53515625 186.654296875 c 128,-1,19
 400.2890625 181.374023438 400.2890625 181.374023438 390.541992188 166.75390625 c 0,20,21
 362.114257812 121.266601562 362.114257812 121.266601562 304.444335938 106.647460938 c 128,-1,22
 246.774414062 92.025390625 246.774414062 92.025390625 192.353515625 126.953125 c 0,23,24
 161.48828125 151.321289062 161.48828125 151.321289062 145.243164062 187.060546875 c 1,25,-1
 145.243164062 579.375976562 l 1,26,27
 167.173828125 628.111328125 167.173828125 628.111328125 219.158203125 650.854492188 c 0,28,29
 273.578125 676.846679688 273.578125 676.846679688 339.370117188 647.606445312 c 0,30,31
 372.672851562 629.736328125 372.672851562 629.736328125 390.541992188 598.87109375 c 0,32,33
 401.9140625 584.25 401.9140625 584.25 417.346679688 578.970703125 c 128,-1,34
 432.779296875 573.69140625 432.779296875 573.69140625 446.587890625 580.188476562 c 128,-1,35
 460.395507812 586.6875 460.395507812 586.6875 472.173828125 597.651367188 c 128,-1,36
 483.951171875 608.6171875 483.951171875 608.6171875 484.763671875 623.64453125 c 128,-1,37
 485.575195312 638.670898438 485.575195312 638.670898438 476.640625 654.916015625 c 0,38,39
 443.338867188 703.650390625 443.338867188 703.650390625 390.541992188 735.329101562 c 128,-1,40
 337.74609375 767.006835938 337.74609375 767.006835938 271.141601562 764.569335938 c 0,41,42
 193.166015625 762.9453125 193.166015625 762.9453125 133.465820312 718.271484375 c 128,-1,43
 73.7646484375 673.59765625 73.7646484375 673.59765625 47.7734375 606.994140625 c 0,0,1
EndSplineSet
EndChar

StartChar: D
Encoding: 68 68 36
Width: 530
VWidth: 1116
Flags: W
LayerCount: 2
Fore
SplineSet
384.099609375 214.48828125 m 0,0,1
 386.536132812 176.3125 386.536132812 176.3125 360.543945312 143.01171875 c 0,2,3
 336.176757812 116.20703125 336.176757812 116.20703125 308.560546875 101.5859375 c 1,4,-1
 145.297851562 101.5859375 l 1,5,-1
 145.297851562 659.6015625 l 1,6,-1
 305.311523438 659.6015625 l 1,7,8
 336.176757812 648.229492188 336.176757812 648.229492188 360.543945312 619.801757812 c 0,9,10
 386.536132812 584.875 386.536132812 584.875 384.099609375 544.26171875 c 1,11,-1
 384.099609375 544.26171875 l 2,12,13
 384.099609375 541.825195312 384.099609375 541.825195312 384.099609375 538.576171875 c 2,14,-1
 384.099609375 216.11328125 l 2,15,16
 384.099609375 214.48828125 l 0,17,18
 384.099609375 214.48828125 l 0,0,1
485.630859375 536.140625 m 1,19,20
 491.31640625 618.989257812 491.31640625 618.989257812 443.393554688 681.126953125 c 128,-1,21
 395.470703125 743.263671875 395.470703125 743.263671875 323.9921875 760.321289062 c 1,22,-1
 323.9921875 760.321289062 l 1,23,24
 318.307617188 761.9453125 318.307617188 761.9453125 310.998046875 760.321289062 c 2,25,-1
 94.9384765625 760.321289062 l 2,26,27
 70.5712890625 760.321289062 70.5712890625 760.321289062 60.82421875 748.137695312 c 0,28,29
 46.203125 735.953125 46.203125 735.953125 43.7666015625 711.586914062 c 2,30,-1
 43.7666015625 52.8515625 l 2,31,32
 43.7666015625 28.484375 43.7666015625 28.484375 60.82421875 14.67578125 c 0,33,34
 73.0078125 0.0546875 73.0078125 0.0546875 94.9384765625 2.4912109375 c 2,35,-1
 310.998046875 2.4912109375 l 2,36,37
 316.682617188 2.4912109375 316.682617188 2.4912109375 323.9921875 4.1162109375 c 1,38,-1
 323.9921875 0.8681640625 l 1,39,40
 392.22265625 18.736328125 392.22265625 18.736328125 440.95703125 79.25 c 128,-1,41
 489.692382812 139.76171875 489.692382812 139.76171875 485.630859375 219.362304688 c 2,42,-1
 485.630859375 536.140625 l 1,19,20
EndSplineSet
EndChar

StartChar: E
Encoding: 69 69 37
Width: 530
VWidth: 1116
Flags: W
LayerCount: 2
Fore
SplineSet
145.193359375 99.9794921875 m 1,0,-1
 145.193359375 337.969726562 l 1,1,-1
 334.447265625 337.969726562 l 2,2,3
 362.876953125 337.969726562 362.876953125 337.969726562 377.49609375 361.524414062 c 0,4,5
 388.869140625 387.517578125 388.869140625 387.517578125 377.90234375 412.290039062 c 128,-1,6
 366.9375 437.064453125 366.9375 437.064453125 334.447265625 437.064453125 c 2,7,-1
 145.193359375 437.064453125 l 1,8,-1
 145.193359375 662.057617188 l 1,9,-1
 436.791015625 662.057617188 l 2,10,11
 465.21875 662.057617188 465.21875 662.057617188 478.216796875 688.861328125 c 0,12,13
 489.587890625 714.853515625 489.587890625 714.853515625 478.216796875 740.034179688 c 0,14,15
 466.033203125 766.025390625 466.033203125 766.025390625 436.791015625 760.33984375 c 2,16,-1
 94.833984375 760.33984375 l 2,17,18
 74.52734375 760.33984375 74.52734375 760.33984375 60.3125 748.561523438 c 128,-1,19
 46.09765625 736.78515625 46.09765625 736.78515625 46.09765625 711.604492188 c 2,20,-1
 46.09765625 51.2451171875 l 2,21,22
 46.09765625 30.939453125 46.09765625 30.939453125 60.720703125 14.6943359375 c 0,23,24
 72.90234375 0.07421875 72.90234375 0.07421875 94.833984375 0.8857421875 c 2,25,-1
 436.791015625 0.8857421875 l 2,26,27
 465.21875 0.8857421875 465.21875 0.8857421875 478.216796875 26.06640625 c 0,28,29
 489.587890625 52.0576171875 489.587890625 52.0576171875 478.216796875 78.05078125 c 0,30,31
 466.033203125 104.041015625 466.033203125 104.041015625 436.791015625 99.9794921875 c 2,32,-1
 145.193359375 99.9794921875 l 1,0,-1
EndSplineSet
EndChar

StartChar: F
Encoding: 70 70 38
Width: 530
VWidth: 1116
Flags: W
LayerCount: 2
Fore
SplineSet
437.516601562 660.120117188 m 2,0,1
 468.3828125 660.120117188 468.3828125 660.120117188 479.348632812 684.48828125 c 128,-1,2
 490.313476562 708.85546875 490.313476562 708.85546875 479.754882812 734.440429688 c 128,-1,3
 469.1953125 760.02734375 469.1953125 760.02734375 437.516601562 760.02734375 c 2,4,-1
 96.3720703125 760.02734375 l 2,5,6
 76.0654296875 760.02734375 76.0654296875 760.02734375 61.4453125 750.280273438 c 0,7,8
 43.576171875 738.096679688 43.576171875 738.096679688 45.2001953125 708.85546875 c 2,9,-1
 45.2001953125 48.4970703125 l 2,10,11
 45.2001953125 17.630859375 45.2001953125 17.630859375 70.7861328125 5.041015625 c 128,-1,12
 96.3720703125 -7.548828125 96.3720703125 -7.548828125 121.551757812 5.447265625 c 128,-1,13
 146.731445312 18.4423828125 146.731445312 18.4423828125 146.731445312 48.4970703125 c 2,14,-1
 146.731445312 369.334960938 l 1,15,-1
 366.0390625 369.334960938 l 2,16,17
 396.904296875 369.334960938 396.904296875 369.334960938 410.712890625 393.703125 c 128,-1,18
 424.521484375 418.0703125 424.521484375 418.0703125 410.307617188 443.25 c 128,-1,19
 396.092773438 468.4296875 396.092773438 468.4296875 366.0390625 468.4296875 c 2,20,-1
 146.731445312 468.4296875 l 1,21,-1
 146.731445312 660.120117188 l 1,22,-1
 437.516601562 660.120117188 l 2,0,1
EndSplineSet
EndChar

StartChar: G
Encoding: 71 71 39
Width: 530
VWidth: 1116
Flags: W
LayerCount: 2
Fore
SplineSet
326.73046875 324.2578125 m 0,0,1
 338.102539062 324.2578125 338.102539062 324.2578125 355.971679688 324.2578125 c 0,2,3
 372.216796875 324.2578125 372.216796875 324.2578125 386.025390625 324.2578125 c 1,4,-1
 386.025390625 219.4765625 l 2,5,6
 386.025390625 217.852539062 386.025390625 217.852539062 386.025390625 216.228515625 c 0,7,-1
 386.025390625 216.228515625 l 0,8,9
 388.462890625 176.427734375 388.462890625 176.427734375 366.9375 147.186523438 c 128,-1,10
 345.413085938 117.9453125 345.413085938 117.9453125 312.110351562 111.041992188 c 128,-1,11
 278.80859375 104.137695312 278.80859375 104.137695312 243.475585938 108.60546875 c 128,-1,12
 208.142578125 113.072265625 208.142578125 113.072265625 181.338867188 137.034179688 c 128,-1,13
 154.534179688 160.995117188 154.534179688 160.995117188 146.411132812 197.546875 c 0,14,15
 144.787109375 199.983398438 144.787109375 199.983398438 143.162109375 204.857421875 c 0,16,17
 144.787109375 516.760742188 144.787109375 516.760742188 146.411132812 562.247070312 c 1,18,19
 157.783203125 595.549804688 157.783203125 595.549804688 185.400390625 623.166015625 c 0,20,21
 213.828125 651.594726562 213.828125 651.594726562 252.81640625 659.716796875 c 0,22,23
 292.616210938 671.087890625 292.616210938 671.087890625 341.3515625 645.095703125 c 0,24,25
 374.654296875 627.227539062 374.654296875 627.227539062 391.7109375 597.173828125 c 0,26,27
 403.08203125 582.552734375 403.08203125 582.552734375 417.296875 577.2734375 c 128,-1,28
 431.51171875 571.993164062 431.51171875 571.993164062 446.538085938 575.649414062 c 128,-1,29
 461.564453125 579.3046875 461.564453125 579.3046875 472.124023438 589.86328125 c 128,-1,30
 482.682617188 600.421875 482.682617188 600.421875 485.525390625 615.44921875 c 128,-1,31
 488.369140625 630.475585938 488.369140625 630.475585938 477.809570312 649.157226562 c 0,32,33
 451.817382812 694.643554688 451.817382812 694.643554688 402.676757812 724.290039062 c 128,-1,34
 353.53515625 753.938476562 353.53515625 753.938476562 293.428710938 760.841796875 c 128,-1,35
 233.322265625 767.74609375 233.322265625 767.74609375 172.403320312 740.94140625 c 0,36,37
 126.91796875 716.57421875 126.91796875 716.57421875 93.615234375 674.336914062 c 0,38,39
 66.810546875 639.41015625 66.810546875 639.41015625 49.75390625 593.112304688 c 0,40,41
 44.0673828125 584.177734375 44.0673828125 584.177734375 44.8798828125 574.430664062 c 0,42,43
 43.255859375 567.120117188 43.255859375 567.120117188 44.8798828125 560.622070312 c 0,44,45
 42.443359375 191.861328125 42.443359375 191.861328125 41.630859375 186.987304688 c 0,46,47
 41.630859375 169.118164062 41.630859375 169.118164062 52.1904296875 157.74609375 c 1,48,49
 70.060546875 94.390625 70.060546875 94.390625 122.043945312 50.529296875 c 0,50,51
 181.338867188 0.169921875 181.338867188 0.169921875 264.1875 0.9814453125 c 0,52,53
 355.971679688 0.9814453125 355.971679688 0.9814453125 422.170898438 60.6826171875 c 128,-1,54
 488.369140625 120.3828125 488.369140625 120.3828125 488.369140625 210.541992188 c 0,55,56
 488.369140625 212.979492188 488.369140625 212.979492188 488.369140625 215.416015625 c 128,-1,57
 488.369140625 217.852539062 488.369140625 217.852539062 488.369140625 219.4765625 c 2,58,-1
 488.369140625 374.6171875 l 2,59,60
 488.369140625 380.302734375 488.369140625 380.302734375 486.744140625 385.176757812 c 0,61,62
 484.307617188 409.54296875 484.307617188 409.54296875 461.564453125 418.478515625 c 0,63,64
 450.192382812 424.165039062 450.192382812 424.165039062 439.228515625 427.413085938 c 128,-1,65
 428.26171875 430.662109375 428.26171875 430.662109375 417.703125 428.225585938 c 0,66,67
 401.45703125 428.225585938 401.45703125 428.225585938 388.055664062 427.413085938 c 128,-1,68
 374.654296875 426.600585938 374.654296875 426.600585938 356.377929688 426.600585938 c 128,-1,69
 338.102539062 426.600585938 338.102539062 426.600585938 326.73046875 426.600585938 c 0,70,71
 295.865234375 426.600585938 295.865234375 426.600585938 284.494140625 400.609375 c 128,-1,72
 273.123046875 374.6171875 273.123046875 374.6171875 284.494140625 349.4375 c 128,-1,73
 295.865234375 324.2578125 295.865234375 324.2578125 326.73046875 324.2578125 c 0,0,1
EndSplineSet
EndChar

StartChar: H
Encoding: 72 72 40
Width: 530
VWidth: 1116
Flags: W
LayerCount: 2
Fore
SplineSet
2253.79394531 3404.47558594 m 1024,0,-1
-433.12890625 -3902.52441406 m 1024,1,-1
-1526.41699219 -3902.52441406 m 1024,2,-1
487.150390625 715.1171875 m 2,3,4
 487.150390625 735.422851562 487.150390625 735.422851562 472.529296875 750.04296875 c 128,-1,5
 457.909179688 764.663085938 457.909179688 764.663085938 438.008789062 764.663085938 c 128,-1,6
 418.109375 764.663085938 418.109375 764.663085938 402.676757812 750.04296875 c 128,-1,7
 387.243164062 735.422851562 387.243164062 735.422851562 387.243164062 715.1171875 c 2,8,-1
 387.243164062 466.568359375 l 1,9,-1
 141.131835938 466.568359375 l 1,10,-1
 141.131835938 715.1171875 l 2,11,12
 141.131835938 735.422851562 141.131835938 735.422851562 127.323242188 749.637695312 c 128,-1,13
 113.515625 763.8515625 113.515625 763.8515625 93.208984375 763.8515625 c 128,-1,14
 72.90234375 763.8515625 72.90234375 763.8515625 57.8759765625 749.637695312 c 128,-1,15
 42.849609375 735.422851562 42.849609375 735.422851562 42.849609375 715.1171875 c 2,16,-1
 42.849609375 414.584960938 l 1,17,-1
 42.849609375 50.6953125 l 2,18,19
 42.849609375 30.388671875 42.849609375 30.388671875 57.8759765625 15.3623046875 c 128,-1,20
 72.90234375 0.3369140625 72.90234375 0.3369140625 93.208984375 0.3369140625 c 128,-1,21
 113.515625 0.3369140625 113.515625 0.3369140625 127.323242188 14.95703125 c 128,-1,22
 141.131835938 29.5771484375 141.131835938 29.5771484375 141.131835938 50.6953125 c 2,23,-1
 141.131835938 365.849609375 l 1,24,-1
 387.243164062 365.849609375 l 1,25,-1
 387.243164062 50.6953125 l 2,26,27
 387.243164062 30.388671875 387.243164062 30.388671875 402.676757812 15.3623046875 c 128,-1,28
 418.109375 0.3369140625 418.109375 0.3369140625 438.008789062 0.3369140625 c 128,-1,29
 457.909179688 0.3369140625 457.909179688 0.3369140625 472.529296875 14.95703125 c 128,-1,30
 487.150390625 29.5771484375 487.150390625 29.5771484375 487.150390625 50.6953125 c 2,31,-1
 487.150390625 414.584960938 l 1,32,-1
 487.150390625 715.1171875 l 2,3,4
EndSplineSet
EndChar

StartChar: I
Encoding: 73 73 41
Width: 530
VWidth: 1116
Flags: W
LayerCount: 2
Fore
SplineSet
154.33203125 101.868164062 m 2,0,1
 123.465820312 101.868164062 123.465820312 101.868164062 110.875976562 76.28125 c 128,-1,2
 98.2861328125 50.6953125 98.2861328125 50.6953125 110.063476562 25.9228515625 c 128,-1,3
 121.841796875 1.1484375 121.841796875 1.1484375 154.33203125 1.1484375 c 2,4,-1
 376.075195312 1.1484375 l 2,5,6
 406.94140625 1.1484375 406.94140625 1.1484375 419.53125 25.9228515625 c 128,-1,7
 432.12109375 50.6953125 432.12109375 50.6953125 418.71875 76.28125 c 128,-1,8
 405.31640625 101.868164062 405.31640625 101.868164062 376.075195312 101.868164062 c 2,9,-1
 311.095703125 101.868164062 l 1,10,-1
 311.095703125 661.5078125 l 1,11,-1
 376.075195312 661.5078125 l 2,12,13
 406.94140625 661.5078125 406.94140625 661.5078125 419.53125 686.6875 c 128,-1,14
 432.12109375 711.866210938 432.12109375 711.866210938 418.71875 737.859375 c 128,-1,15
 405.31640625 763.8515625 405.31640625 763.8515625 376.075195312 763.8515625 c 2,16,-1
 154.33203125 763.8515625 l 2,17,18
 123.465820312 763.8515625 123.465820312 763.8515625 110.875976562 737.859375 c 128,-1,19
 98.2861328125 711.866210938 98.2861328125 711.866210938 110.063476562 686.6875 c 128,-1,20
 121.841796875 661.5078125 121.841796875 661.5078125 154.33203125 661.5078125 c 2,21,-1
 214.438476562 661.5078125 l 1,22,-1
 214.438476562 101.868164062 l 1,23,-1
 154.33203125 101.868164062 l 2,0,1
EndSplineSet
EndChar

StartChar: J
Encoding: 74 74 42
Width: 530
VWidth: 1116
Flags: W
LayerCount: 2
Fore
SplineSet
485.525390625 192.235351562 m 0,0,1
 487.150390625 203.607421875 487.150390625 203.607421875 485.525390625 210.91796875 c 2,2,-1
 485.525390625 715.325195312 l 2,3,4
 485.525390625 748.626953125 485.525390625 748.626953125 460.75390625 759.592773438 c 128,-1,5
 435.978515625 770.557617188 435.978515625 770.557617188 410.798828125 758.374023438 c 128,-1,6
 385.619140625 746.19140625 385.619140625 746.19140625 385.619140625 715.325195312 c 2,7,-1
 385.619140625 207.668945312 l 1,8,9
 376.685546875 153.248046875 376.685546875 153.248046875 329.57421875 121.1640625 c 128,-1,10
 282.462890625 89.080078125 282.462890625 89.080078125 223.169921875 110.19921875 c 0,11,12
 189.8671875 122.3828125 189.8671875 122.3828125 167.125 149.592773438 c 128,-1,13
 144.380859375 176.802734375 144.380859375 176.802734375 144.380859375 212.541992188 c 0,14,15
 142.7578125 243.408203125 142.7578125 243.408203125 117.982421875 254.779296875 c 128,-1,16
 93.208984375 266.150390625 93.208984375 266.150390625 69.654296875 253.154296875 c 0,17,18
 43.662109375 241.783203125 43.662109375 241.783203125 43.662109375 207.668945312 c 0,19,20
 46.099609375 153.248046875 46.099609375 153.248046875 78.99609375 104.512695312 c 128,-1,21
 111.890625 55.7783203125 111.890625 55.7783203125 159.408203125 28.1611328125 c 128,-1,22
 206.92578125 0.544921875 206.92578125 0.544921875 267.84375 2.576171875 c 128,-1,23
 328.76171875 4.6064453125 328.76171875 4.6064453125 381.55859375 37.908203125 c 0,24,25
 467.65625 94.765625 467.65625 94.765625 485.525390625 192.235351562 c 0,0,1
EndSplineSet
EndChar

StartChar: K
Encoding: 75 75 43
Width: 530
VWidth: 1116
Flags: W
LayerCount: 2
Fore
SplineSet
395.15625 18.7548828125 m 2,0,1
 406.52734375 4.1357421875 406.52734375 4.1357421875 422.365234375 0.88671875 c 128,-1,2
 438.205078125 -2.3623046875 438.205078125 -2.3623046875 450.794921875 4.1357421875 c 128,-1,3
 463.384765625 10.6328125 463.384765625 10.6328125 474.350585938 20.7861328125 c 128,-1,4
 485.315429688 30.939453125 485.315429688 30.939453125 486.127929688 47.5908203125 c 128,-1,5
 486.940429688 64.2421875 486.940429688 64.2421875 476.380859375 78.05078125 c 2,6,-1
 244.077148438 401.325195312 l 1,7,-1
 476.380859375 679.926757812 l 2,8,9
 487.752929688 694.547851562 487.752929688 694.547851562 487.345703125 711.198242188 c 128,-1,10
 486.940429688 727.850585938 486.940429688 727.850585938 478.411132812 740.034179688 c 128,-1,11
 469.8828125 752.217773438 469.8828125 752.217773438 454.450195312 758.71484375 c 128,-1,12
 439.017578125 765.213867188 439.017578125 765.213867188 424.802734375 761.963867188 c 128,-1,13
 410.588867188 758.71484375 410.588867188 758.71484375 396.780273438 744.095703125 c 2,14,-1
 144.982421875 437.064453125 l 1,15,-1
 144.982421875 711.60546875 l 2,16,17
 144.982421875 742.469726562 144.982421875 742.469726562 119.802734375 755.060546875 c 128,-1,18
 94.6240234375 767.650390625 94.6240234375 767.650390625 69.849609375 755.466796875 c 128,-1,19
 45.076171875 743.283203125 45.076171875 743.283203125 45.076171875 711.60546875 c 2,20,-1
 45.076171875 303.04296875 l 2,21,22
 45.076171875 300.606445312 45.076171875 300.606445312 42.6396484375 298.169921875 c 0,23,24
 42.6396484375 292.484375 42.6396484375 292.484375 45.076171875 290.047851562 c 2,25,-1
 45.076171875 48.8095703125 l 2,26,27
 45.076171875 17.943359375 45.076171875 17.943359375 69.849609375 5.353515625 c 128,-1,28
 94.6240234375 -7.236328125 94.6240234375 -7.236328125 119.802734375 5.7607421875 c 128,-1,29
 144.982421875 18.7548828125 144.982421875 18.7548828125 144.982421875 48.8095703125 c 2,30,-1
 144.982421875 280.299804688 l 1,31,-1
 178.28515625 320.912109375 l 1,32,-1
 395.15625 18.7548828125 l 2,0,1
EndSplineSet
EndChar

StartChar: L
Encoding: 76 76 44
Width: 530
VWidth: 1116
Flags: W
LayerCount: 2
Fore
SplineSet
145.8515625 713.515625 m 2,0,1
 145.8515625 744.381835938 145.8515625 744.381835938 121.078125 757.377929688 c 128,-1,2
 96.3056640625 770.374023438 96.3056640625 770.374023438 70.71875 758.190429688 c 128,-1,3
 45.1328125 746.006835938 45.1328125 746.006835938 45.1328125 713.515625 c 2,4,-1
 45.1328125 50.720703125 l 2,5,6
 45.1328125 28.7890625 45.1328125 28.7890625 58.12890625 14.9814453125 c 0,7,8
 70.3125 1.1728515625 70.3125 1.1728515625 96.3056640625 1.1728515625 c 2,9,-1
 437.450195312 1.1728515625 l 2,10,11
 468.315429688 1.1728515625 468.315429688 1.1728515625 479.28125 25.9462890625 c 128,-1,12
 490.247070312 50.720703125 490.247070312 50.720703125 479.686523438 76.306640625 c 128,-1,13
 469.127929688 101.891601562 469.127929688 101.891601562 437.450195312 101.891601562 c 2,14,-1
 145.8515625 101.891601562 l 1,15,-1
 145.8515625 713.515625 l 2,0,1
EndSplineSet
EndChar

StartChar: M
Encoding: 77 77 45
Width: 530
VWidth: 1116
Flags: W
LayerCount: 2
Fore
SplineSet
141.1796875 739.412109375 m 2,0,1
 132.245117188 754.032226562 132.245117188 754.032226562 115.186523438 758.90625 c 0,2,3
 109.501953125 761.342773438 109.501953125 761.342773438 103.00390625 760.530273438 c 0,4,5
 85.134765625 762.967773438 85.134765625 762.967773438 68.8896484375 758.092773438 c 0,6,7
 42.896484375 746.721679688 42.896484375 746.721679688 44.521484375 715.857421875 c 2,8,-1
 44.521484375 47.3740234375 l 2,9,10
 44.521484375 16.509765625 44.521484375 16.509765625 68.8896484375 5.9501953125 c 128,-1,11
 93.2568359375 -4.609375 93.2568359375 -4.609375 117.217773438 7.1689453125 c 128,-1,12
 141.1796875 18.9462890625 141.1796875 18.9462890625 141.1796875 47.3740234375 c 2,13,-1
 141.1796875 530.6640625 l 1,14,-1
 220.779296875 392.580078125 l 2,15,16
 232.151367188 377.9609375 232.151367188 377.9609375 245.958984375 372.274414062 c 0,17,18
 251.645507812 369.837890625 251.645507812 369.837890625 258.956054688 371.462890625 c 0,19,20
 270.327148438 369.025390625 270.327148438 369.025390625 284.135742188 372.274414062 c 0,21,22
 298.755859375 377.9609375 298.755859375 377.9609375 307.69140625 392.580078125 c 2,23,-1
 386.478515625 527.4140625 l 1,24,-1
 386.478515625 47.3740234375 l 2,25,26
 386.478515625 16.509765625 386.478515625 16.509765625 412.064453125 5.9501953125 c 128,-1,27
 437.650390625 -4.609375 437.650390625 -4.609375 461.612304688 7.1689453125 c 128,-1,28
 485.573242188 18.9462890625 485.573242188 18.9462890625 485.573242188 47.3740234375 c 2,29,-1
 485.573242188 711.795898438 l 2,30,31
 485.573242188 717.48046875 485.573242188 717.48046875 485.573242188 720.73046875 c 0,32,33
 483.94921875 726.415039062 483.94921875 726.415039062 480.69921875 732.1015625 c 0,34,35
 475.014648438 746.721679688 475.014648438 746.721679688 461.206054688 754.032226562 c 0,36,37
 458.768554688 756.469726562 458.768554688 756.469726562 453.083007812 758.90625 c 0,38,39
 450.646484375 760.530273438 450.646484375 760.530273438 446.5859375 760.530273438 c 0,40,41
 431.96484375 766.215820312 431.96484375 766.215820312 414.908203125 760.124023438 c 128,-1,42
 397.850585938 754.032226562 397.850585938 754.032226562 388.103515625 739.412109375 c 2,43,-1
 263.829101562 522.541015625 l 1,44,-1
 141.1796875 739.412109375 l 2,0,1
EndSplineSet
EndChar

StartChar: N
Encoding: 78 78 46
Width: 530
VWidth: 1116
Flags: W
LayerCount: 2
Fore
SplineSet
42.849609375 48.71484375 m 2,0,1
 42.849609375 17.849609375 42.849609375 17.849609375 68.435546875 5.2607421875 c 128,-1,2
 94.021484375 -7.330078125 94.021484375 -7.330078125 118.794921875 5.666015625 c 128,-1,3
 143.568359375 18.662109375 143.568359375 18.662109375 143.568359375 48.71484375 c 2,4,-1
 143.568359375 503.575195312 l 1,5,-1
 387.243164062 34.0947265625 l 2,6,7
 389.680664062 22.7236328125 389.680664062 22.7236328125 401.051757812 14.6005859375 c 0,8,9
 406.737304688 8.9150390625 406.737304688 8.9150390625 415.671875 4.041015625 c 0,10,11
 422.982421875 1.60546875 422.982421875 1.60546875 431.916992188 0.7919921875 c 0,12,13
 446.538085938 -0.83203125 446.538085938 -0.83203125 462.375976562 6.8837890625 c 128,-1,14
 478.215820312 14.6005859375 478.215820312 14.6005859375 483.088867188 29.220703125 c 0,15,16
 485.525390625 34.9072265625 485.525390625 34.9072265625 487.150390625 39.7802734375 c 0,17,18
 488.774414062 45.4658203125 488.774414062 45.4658203125 487.150390625 54.4013671875 c 2,19,-1
 487.150390625 713.948242188 l 2,20,21
 487.150390625 744.813476562 487.150390625 744.813476562 462.783203125 756.184570312 c 128,-1,22
 438.415039062 767.555664062 438.415039062 767.555664062 412.423828125 755.778320312 c 128,-1,23
 386.431640625 744.000976562 386.431640625 744.000976562 386.431640625 713.948242188 c 2,24,-1
 386.431640625 258.275390625 l 1,25,-1
 141.131835938 730.192382812 l 2,26,27
 135.4453125 744.813476562 135.4453125 744.813476562 120.826171875 753.748046875 c 0,28,29
 118.389648438 755.373046875 118.389648438 755.373046875 114.733398438 756.997070312 c 128,-1,30
 111.078125 758.622070312 111.078125 758.622070312 108.641601562 760.24609375 c 0,31,32
 90.771484375 765.931640625 90.771484375 765.931640625 69.654296875 754.560546875 c 0,33,34
 51.7841796875 745.625976562 51.7841796875 745.625976562 47.72265625 727.755859375 c 0,35,36
 46.0986328125 725.319335938 46.0986328125 725.319335938 42.849609375 720.4453125 c 0,37,38
 41.2255859375 714.759765625 41.2255859375 714.759765625 42.849609375 709.07421875 c 2,39,-1
 42.849609375 48.71484375 l 2,0,1
EndSplineSet
EndChar

StartChar: O
Encoding: 79 79 47
Width: 530
VWidth: 1116
Flags: W
LayerCount: 2
Fore
SplineSet
381.557617188 746.168945312 m 0,0,1
 363.6875 755.104492188 363.6875 755.104492188 338.915039062 759.977539062 c 128,-1,2
 314.140625 764.8515625 314.140625 764.8515625 286.524414062 764.8515625 c 0,3,4
 280.83984375 764.8515625 280.83984375 764.8515625 273.528320312 764.8515625 c 1,5,-1
 273.528320312 766.475585938 l 1,6,-1
 254.846679688 766.475585938 l 1,7,-1
 254.846679688 764.8515625 l 1,8,9
 249.161132812 764.8515625 249.161132812 764.8515625 243.475585938 764.8515625 c 0,10,11
 217.482421875 764.8515625 217.482421875 764.8515625 191.084960938 759.571289062 c 128,-1,12
 164.686523438 754.291992188 164.686523438 754.291992188 148.442382812 746.168945312 c 0,13,14
 108.641601562 728.299804688 108.641601562 728.299804688 76.9638671875 690.530273438 c 128,-1,15
 45.2861328125 652.760742188 45.2861328125 652.760742188 45.2861328125 608.899414062 c 2,16,-1
 45.2861328125 170.284179688 l 2,17,18
 43.6611328125 161.349609375 43.6611328125 161.349609375 45.2861328125 150.790039062 c 0,19,20
 52.5966796875 106.9296875 52.5966796875 106.9296875 80.2138671875 73.220703125 c 128,-1,21
 107.829101562 39.51171875 107.829101562 39.51171875 148.442382812 21.642578125 c 0,22,23
 166.311523438 12.7080078125 166.311523438 12.7080078125 191.084960938 7.4287109375 c 128,-1,24
 215.859375 2.1484375 215.859375 2.1484375 243.475585938 0.5244140625 c 0,25,26
 249.161132812 0.5244140625 249.161132812 0.5244140625 256.471679688 2.1484375 c 2,27,-1
 273.528320312 2.1484375 l 2,28,29
 279.21484375 0.5244140625 279.21484375 0.5244140625 286.524414062 0.5244140625 c 0,30,31
 312.517578125 0.5244140625 312.517578125 0.5244140625 338.102539062 6.6162109375 c 128,-1,32
 363.6875 12.7080078125 363.6875 12.7080078125 381.557617188 21.642578125 c 0,33,34
 421.358398438 39.51171875 421.358398438 39.51171875 453.036132812 76.0625 c 128,-1,35
 484.713867188 112.614257812 484.713867188 112.614257812 484.713867188 157.288085938 c 2,36,-1
 484.713867188 597.52734375 l 2,37,38
 486.338867188 606.462890625 486.338867188 606.462890625 484.713867188 617.833984375 c 0,39,40
 477.403320312 659.259765625 477.403320312 659.259765625 449.381835938 693.779296875 c 128,-1,41
 421.358398438 728.299804688 421.358398438 728.299804688 381.557617188 746.168945312 c 0,0,1
385.619140625 167.036132812 m 1,42,43
 379.932617188 133.733398438 379.932617188 133.733398438 348.661132812 117.08203125 c 128,-1,44
 317.390625 100.430664062 317.390625 100.430664062 273.528320312 102.055664062 c 2,45,-1
 254.846679688 102.055664062 l 1,46,-1
 254.846679688 100.430664062 l 1,47,48
 245.912109375 102.055664062 245.912109375 102.055664062 235.352539062 103.6796875 c 0,49,50
 202.05078125 106.1171875 202.05078125 106.1171875 188.2421875 112.614257812 c 0,51,52
 150.067382812 128.859375 150.067382812 128.859375 145.192382812 167.036132812 c 1,53,-1
 145.192382812 600.77734375 l 1,54,55
 150.87890625 634.080078125 150.87890625 634.080078125 181.745117188 650.729492188 c 128,-1,56
 212.609375 667.381835938 212.609375 667.381835938 254.846679688 665.756835938 c 2,57,-1
 273.528320312 665.756835938 l 1,58,-1
 273.528320312 667.381835938 l 1,59,60
 282.462890625 665.756835938 282.462890625 665.756835938 293.0234375 663.3203125 c 0,61,62
 326.325195312 660.8828125 326.325195312 660.8828125 341.7578125 652.760742188 c 0,63,64
 379.932617188 634.891601562 379.932617188 634.891601562 385.619140625 600.77734375 c 1,65,-1
 385.619140625 167.036132812 l 1,42,43
EndSplineSet
EndChar

StartChar: P
Encoding: 80 80 48
Width: 530
VWidth: 1116
Flags: W
LayerCount: 2
Fore
SplineSet
288.096679688 403.825195312 m 1,0,-1
 145.140625 403.825195312 l 1,1,-1
 145.140625 662.120117188 l 1,2,-1
 279.162109375 662.120117188 l 1,3,4
 332.770507812 650.749023438 332.770507812 650.749023438 363.634765625 602.826171875 c 0,5,6
 398.5625 552.466796875 398.5625 552.466796875 376.631835938 489.923828125 c 0,7,8
 365.260742188 456.622070312 365.260742188 456.622070312 344.954101562 435.501953125 c 0,9,10
 318.961914062 412.759765625 318.961914062 412.759765625 288.096679688 403.825195312 c 1,0,-1
286.471679688 303.106445312 m 2,11,12
 297.84375 300.668945312 297.84375 300.668945312 311.651367188 304.729492188 c 0,13,14
 398.5625 330.72265625 398.5625 330.72265625 452.171875 409.510742188 c 128,-1,15
 505.779296875 488.298828125 505.779296875 488.298828125 477.350585938 591.455078125 c 0,16,17
 459.481445312 658.05859375 459.481445312 658.05859375 407.498046875 704.357421875 c 0,18,19
 362.01171875 748.21875 362.01171875 748.21875 301.092773438 760.40234375 c 0,20,21
 292.158203125 762.838867188 292.158203125 762.838867188 279.162109375 763.651367188 c 2,22,-1
 94.78125 763.651367188 l 2,23,24
 68.7890625 762.838867188 68.7890625 762.838867188 56.60546875 748.21875 c 0,25,26
 44.421875 736.03515625 44.421875 736.03515625 42.796875 711.66796875 c 2,27,-1
 42.796875 48.87109375 l 2,28,29
 42.796875 18.005859375 42.796875 18.005859375 68.7890625 5.416015625 c 128,-1,30
 94.78125 -7.173828125 94.78125 -7.173828125 119.959960938 5.822265625 c 128,-1,31
 145.140625 18.8193359375 145.140625 18.8193359375 145.140625 48.87109375 c 2,32,-1
 145.140625 303.106445312 l 1,33,-1
 286.471679688 303.106445312 l 2,11,12
EndSplineSet
EndChar

StartChar: Q
Encoding: 81 81 49
Width: 530
VWidth: 1116
Flags: W
LayerCount: 2
Fore
SplineSet
328.76171875 223.268554688 m 2,0,1
 316.578125 235.451171875 316.578125 235.451171875 299.520507812 237.889648438 c 128,-1,2
 282.462890625 240.326171875 282.462890625 240.326171875 269.466796875 230.578125 c 128,-1,3
 256.471679688 220.83203125 256.471679688 220.83203125 249.16015625 209.053710938 c 128,-1,4
 241.850585938 197.27734375 241.850585938 197.27734375 242.663085938 181.03125 c 128,-1,5
 243.475585938 164.786132812 243.475585938 164.786132812 256.471679688 150.166015625 c 2,6,-1
 307.642578125 103.868164062 l 1,7,8
 306.018554688 103.868164062 l 0,9,10
 297.084960938 103.868164062 297.084960938 103.868164062 280.026367188 104.6796875 c 128,-1,11
 262.969726562 105.4921875 262.969726562 105.4921875 252.41015625 104.6796875 c 128,-1,12
 241.850585938 103.868164062 241.850585938 103.868164062 225.60546875 102.243164062 c 0,13,14
 220.732421875 102.243164062 l 0,15,16
 194.740234375 104.6796875 194.740234375 104.6796875 175.247070312 137.169921875 c 0,17,18
 157.376953125 163.161132812 157.376953125 163.161132812 144.380859375 194.02734375 c 1,19,-1
 144.380859375 570.912109375 l 1,20,21
 156.564453125 601.77734375 156.564453125 601.77734375 175.247070312 630.205078125 c 0,22,23
 193.116210938 658.634765625 193.116210938 658.634765625 219.920898438 665.131835938 c 0,24,25
 222.357421875 665.131835938 222.357421875 665.131835938 225.60546875 665.131835938 c 0,26,27
 240.2265625 663.5078125 240.2265625 663.5078125 251.598632812 663.5078125 c 128,-1,28
 262.969726562 663.5078125 262.969726562 663.5078125 280.026367188 664.3203125 c 128,-1,29
 297.084960938 665.131835938 297.084960938 665.131835938 306.018554688 665.131835938 c 0,30,31
 308.456054688 665.131835938 308.456054688 665.131835938 310.892578125 665.131835938 c 0,32,33
 335.259765625 659.446289062 335.259765625 659.446289062 353.94140625 630.205078125 c 0,34,35
 371.810546875 604.213867188 371.810546875 604.213867188 385.619140625 570.912109375 c 1,36,-1
 385.619140625 194.02734375 l 2,37,38
 383.182617188 185.092773438 383.182617188 185.092773438 376.684570312 179.407226562 c 1,39,-1
 328.76171875 223.268554688 l 2,0,1
483.088867188 168.84765625 m 0,40,41
 488.774414062 183.467773438 488.774414062 183.467773438 484.713867188 199.713867188 c 2,42,-1
 484.713867188 567.662109375 l 2,43,44
 487.150390625 582.283203125 487.150390625 582.283203125 483.088867188 599.340820312 c 0,45,46
 419.733398438 766.663085938 419.733398438 766.663085938 313.329101562 766.663085938 c 0,47,48
 310.892578125 766.663085938 310.892578125 766.663085938 309.267578125 766.663085938 c 128,-1,49
 307.642578125 766.663085938 307.642578125 766.663085938 306.018554688 766.663085938 c 0,50,51
 297.084960938 766.663085938 297.084960938 766.663085938 280.026367188 767.475585938 c 128,-1,52
 262.969726562 768.288085938 262.969726562 768.288085938 252.41015625 768.288085938 c 128,-1,53
 241.850585938 768.288085938 241.850585938 768.288085938 225.60546875 766.663085938 c 0,54,55
 223.168945312 766.663085938 l 0,56,57
 215.859375 768.288085938 215.859375 768.288085938 207.736328125 766.663085938 c 0,58,59
 101.33203125 752.04296875 101.33203125 752.04296875 46.9111328125 599.340820312 c 0,60,61
 41.2255859375 584.719726562 41.2255859375 584.719726562 45.2861328125 569.286132812 c 2,62,-1
 45.2861328125 199.713867188 l 2,63,64
 42.849609375 185.092773438 42.849609375 185.092773438 46.9111328125 168.84765625 c 0,65,66
 110.266601562 1.5244140625 110.266601562 1.5244140625 214.234375 2.3369140625 c 0,67,68
 216.670898438 2.3369140625 216.670898438 2.3369140625 220.732421875 2.3369140625 c 0,69,70
 222.357421875 2.3369140625 222.357421875 2.3369140625 225.60546875 2.3369140625 c 0,71,72
 240.2265625 0.7119140625 240.2265625 0.7119140625 251.598632812 0.7119140625 c 128,-1,73
 262.969726562 0.7119140625 262.969726562 0.7119140625 278.401367188 0.7119140625 c 0,74,75
 296.271484375 0.7119140625 296.271484375 0.7119140625 304.39453125 2.3369140625 c 0,76,77
 310.079101562 0.7119140625 310.079101562 0.7119140625 320.639648438 2.3369140625 c 0,78,79
 357.190429688 8.0224609375 357.190429688 8.0224609375 386.431640625 26.7041015625 c 1,80,-1
 400.239257812 15.33203125 l 2,81,82
 412.423828125 3.9609375 412.423828125 3.9609375 430.29296875 2.3369140625 c 128,-1,83
 448.162109375 0.7119140625 448.162109375 0.7119140625 459.534179688 9.646484375 c 128,-1,84
 470.90625 18.5810546875 470.90625 18.5810546875 479.43359375 31.5771484375 c 128,-1,85
 487.962890625 44.5732421875 487.962890625 44.5732421875 485.525390625 61.6298828125 c 128,-1,86
 483.088867188 78.6884765625 483.088867188 78.6884765625 467.65625 88.4345703125 c 2,87,-1
 453.84765625 105.4921875 l 1,88,89
 470.90625 133.919921875 470.90625 133.919921875 483.088867188 168.84765625 c 0,40,41
EndSplineSet
EndChar

StartChar: R
Encoding: 82 82 50
Width: 530
VWidth: 1116
Flags: W
LayerCount: 2
Fore
SplineSet
396.33984375 21.7607421875 m 2,0,1
 407.711914062 7.140625 407.711914062 7.140625 421.92578125 2.2666015625 c 128,-1,2
 436.140625 -2.6064453125 436.140625 -2.6064453125 448.73046875 1.455078125 c 128,-1,3
 461.3203125 5.515625 461.3203125 5.515625 472.28515625 15.66796875 c 128,-1,4
 483.250976562 25.8212890625 483.250976562 25.8212890625 485.688476562 41.6611328125 c 128,-1,5
 488.124023438 57.5 488.124023438 57.5 478.376953125 76.994140625 c 2,6,-1
 324.049804688 322.29296875 l 1,7,8
 369.536132812 333.665039062 369.536132812 333.665039062 404.462890625 365.342773438 c 0,9,10
 449.94921875 405.143554688 449.94921875 405.143554688 470.254882812 457.126953125 c 128,-1,11
 490.561523438 509.111328125 490.561523438 509.111328125 483.657226562 569.624023438 c 128,-1,12
 476.752929688 630.135742188 476.752929688 630.135742188 433.703125 679.682617188 c 0,13,14
 406.899414062 714.610351562 406.899414062 714.610351562 366.287109375 740.6015625 c 0,15,16
 335.421875 758.471679688 335.421875 758.471679688 301.306640625 760.095703125 c 0,17,18
 295.62109375 761.720703125 295.62109375 761.720703125 287.499023438 760.095703125 c 2,19,-1
 281 760.095703125 l 1,20,-1
 93.37109375 760.095703125 l 2,21,22
 71.4404296875 760.095703125 71.4404296875 760.095703125 60.880859375 750.349609375 c 0,23,24
 46.2607421875 738.165039062 46.2607421875 738.165039062 43.82421875 708.923828125 c 2,25,-1
 43.82421875 46.9404296875 l 2,26,27
 43.82421875 16.0751953125 43.82421875 16.0751953125 68.5966796875 4.296875 c 128,-1,28
 93.37109375 -7.48046875 93.37109375 -7.48046875 118.956054688 5.515625 c 128,-1,29
 144.541992188 18.51171875 144.541992188 18.51171875 144.541992188 46.9404296875 c 2,30,-1
 144.541992188 319.043945312 l 1,31,-1
 207.0859375 319.043945312 l 1,32,-1
 396.33984375 21.7607421875 l 2,0,1
297.245117188 418.138671875 m 0,33,34
 293.18359375 418.138671875 l 2,35,-1
 144.541992188 418.138671875 l 1,36,-1
 144.541992188 659.376953125 l 1,37,-1
 281 659.376953125 l 1,38,39
 314.302734375 653.692382812 314.302734375 653.692382812 339.482421875 631.760742188 c 0,40,41
 365.474609375 605.768554688 365.474609375 605.768554688 373.59765625 573.685546875 c 128,-1,42
 381.719726562 541.600585938 381.719726562 541.600585938 378.064453125 508.297851562 c 128,-1,43
 374.409179688 474.997070312 374.409179688 474.997070312 348.41796875 448.192382812 c 0,44,45
 328.111328125 425.44921875 328.111328125 425.44921875 297.245117188 418.138671875 c 0,33,34
EndSplineSet
EndChar

StartChar: S
Encoding: 83 83 51
Width: 530
VWidth: 1116
Flags: W
LayerCount: 2
Fore
SplineSet
171.185546875 17.1474609375 m 0,0,1
 223.168945312 -0.7216796875 223.168945312 -0.7216796875 276.37109375 2.5283203125 c 128,-1,2
 329.57421875 5.7763671875 329.57421875 5.7763671875 370.998046875 30.5498046875 c 128,-1,3
 412.423828125 55.32421875 412.423828125 55.32421875 444.913085938 95.1240234375 c 128,-1,4
 477.403320312 134.923828125 477.403320312 134.923828125 485.120117188 185.689453125 c 128,-1,5
 492.834960938 236.455078125 492.834960938 236.455078125 479.02734375 290.875976562 c 0,6,7
 461.158203125 360.729492188 461.158203125 360.729492188 399.426757812 418.400390625 c 0,8,9
 338.5078125 472.0078125 338.5078125 472.0078125 267.84375 471.196289062 c 1,10,-1
 267.84375 471.196289062 l 1,11,-1
 222.357421875 475.256835938 l 1,12,-1
 222.357421875 475.256835938 l 2,13,14
 222.357421875 475.256835938 l 0,15,16
 204.487304688 476.881835938 204.487304688 476.881835938 184.180664062 486.62890625 c 0,17,18
 166.3125 498 166.3125 498 156.564453125 514.245117188 c 0,19,20
 130.573242188 558.106445312 130.573242188 558.106445312 150.067382812 592.221679688 c 128,-1,21
 169.560546875 626.334960938 169.560546875 626.334960938 212.204101562 646.641601562 c 128,-1,22
 254.846679688 666.947265625 254.846679688 666.947265625 296.271484375 658.013671875 c 0,23,24
 359.626953125 649.078125 359.626953125 649.078125 397.802734375 600.34375 c 0,25,26
 409.173828125 585.72265625 409.173828125 585.72265625 424.201171875 582.474609375 c 128,-1,27
 439.228515625 579.224609375 439.228515625 579.224609375 452.629882812 584.098632812 c 128,-1,28
 466.032226562 588.971679688 466.032226562 588.971679688 476.997070312 601.5625 c 128,-1,29
 487.962890625 614.151367188 487.962890625 614.151367188 487.962890625 629.583984375 c 128,-1,30
 487.962890625 645.017578125 487.962890625 645.017578125 479.02734375 658.013671875 c 0,31,32
 401.051757812 759.544921875 401.051757812 759.544921875 275.96484375 760.356445312 c 0,33,34
 184.180664062 760.356445312 184.180664062 760.356445312 113.109375 703.905273438 c 128,-1,35
 42.037109375 647.453125 42.037109375 647.453125 42.037109375 555.669921875 c 0,36,37
 42.037109375 477.693359375 42.037109375 477.693359375 94.021484375 430.583007812 c 0,38,39
 144.380859375 380.223632812 144.380859375 380.223632812 213.421875 374.537109375 c 1,40,-1
 213.421875 374.537109375 l 1,41,42
 219.108398438 374.537109375 219.108398438 374.537109375 234.541015625 372.100585938 c 0,43,44
 249.161132812 370.4765625 249.161132812 370.4765625 258.908203125 372.100585938 c 0,45,-1
 258.908203125 372.100585938 l 0,46,47
 312.517578125 366.415039062 312.517578125 366.415039062 349.880859375 328.240234375 c 128,-1,48
 387.243164062 290.063476562 387.243164062 290.063476562 387.243164062 234.83203125 c 0,49,50
 387.243164062 166.602539062 387.243164062 166.602539062 330.791992188 126.395507812 c 128,-1,51
 274.340820312 86.189453125 274.340820312 86.189453125 207.736328125 112.994140625 c 0,52,53
 163.875 129.239257812 163.875 129.239257812 141.131835938 168.2265625 c 0,54,55
 132.197265625 184.470703125 132.197265625 184.470703125 117.170898438 188.939453125 c 128,-1,56
 102.143554688 193.40625 102.143554688 193.40625 86.7109375 190.157226562 c 128,-1,57
 71.2783203125 186.908203125 71.2783203125 186.908203125 59.5009765625 175.943359375 c 128,-1,58
 47.72265625 164.977539062 47.72265625 164.977539062 44.8798828125 149.950195312 c 128,-1,59
 42.037109375 134.923828125 42.037109375 134.923828125 54.220703125 116.2421875 c 0,60,61
 93.208984375 45.5771484375 93.208984375 45.5771484375 171.185546875 17.1474609375 c 0,0,1
EndSplineSet
EndChar

StartChar: T
Encoding: 84 84 52
Width: 530
VWidth: 1116
Flags: W
LayerCount: 2
Fore
SplineSet
94.3759765625 760.25 m 2,0,1
 63.5107421875 760.25 63.5107421875 760.25 51.326171875 734.6640625 c 128,-1,2
 39.1435546875 709.078125 39.1435546875 709.078125 51.326171875 684.305664062 c 128,-1,3
 63.5107421875 659.53125 63.5107421875 659.53125 94.3759765625 659.53125 c 2,4,-1
 212.15234375 659.53125 l 1,5,-1
 212.15234375 47.0947265625 l 2,6,7
 212.15234375 18.666015625 212.15234375 18.666015625 238.14453125 6.8876953125 c 128,-1,8
 264.135742188 -4.888671875 264.135742188 -4.888671875 288.91015625 6.8876953125 c 128,-1,9
 313.68359375 18.666015625 313.68359375 18.666015625 313.68359375 47.0947265625 c 2,10,-1
 313.68359375 659.53125 l 1,11,-1
 436.333007812 659.53125 l 2,12,13
 467.198242188 659.53125 467.198242188 659.53125 478.975585938 684.305664062 c 128,-1,14
 490.75390625 709.078125 490.75390625 709.078125 478.5703125 734.6640625 c 128,-1,15
 466.38671875 760.25 466.38671875 760.25 436.333007812 760.25 c 2,16,-1
 94.3759765625 760.25 l 2,0,1
EndSplineSet
EndChar

StartChar: U
Encoding: 85 85 53
Width: 530
VWidth: 1116
Flags: W
LayerCount: 2
Fore
SplineSet
484.713867188 711.665039062 m 2,0,1
 484.713867188 742.53125 484.713867188 742.53125 460.345703125 755.120117188 c 128,-1,2
 435.978515625 767.709960938 435.978515625 767.709960938 409.987304688 755.932617188 c 128,-1,3
 383.994140625 744.154296875 383.994140625 744.154296875 383.994140625 711.665039062 c 2,4,-1
 383.994140625 197.510742188 l 1,5,6
 378.309570312 170.706054688 378.309570312 170.706054688 359.626953125 148.776367188 c 0,7,8
 337.697265625 122.783203125 337.697265625 122.783203125 308.048828125 110.599609375 c 128,-1,9
 278.401367188 98.416015625 278.401367188 98.416015625 244.693359375 102.477539062 c 128,-1,10
 210.986328125 106.5390625 210.986328125 106.5390625 185.805664062 130.90625 c 0,11,12
 154.940429688 156.8984375 154.940429688 156.8984375 146.817382812 197.510742188 c 1,13,-1
 146.817382812 713.290039062 l 2,14,15
 146.817382812 744.154296875 146.817382812 744.154296875 121.637695312 755.932617188 c 128,-1,16
 96.4580078125 767.709960938 96.4580078125 767.709960938 70.8720703125 755.932617188 c 128,-1,17
 45.2861328125 744.154296875 45.2861328125 744.154296875 45.2861328125 713.290039062 c 2,18,-1
 45.2861328125 197.510742188 l 2,19,20
 45.2861328125 186.139648438 45.2861328125 186.139648438 47.72265625 178.829101562 c 0,21,22
 59.09375 126.844726562 59.09375 126.844726562 90.771484375 86.232421875 c 0,23,24
 128.948242188 40.74609375 128.948242188 40.74609375 180.931640625 18.00390625 c 128,-1,25
 232.915039062 -4.7392578125 232.915039062 -4.7392578125 294.241210938 2.9765625 c 128,-1,26
 355.56640625 10.693359375 355.56640625 10.693359375 405.11328125 50.4931640625 c 0,27,28
 438.415039062 76.4853515625 438.415039062 76.4853515625 461.564453125 117.09765625 c 128,-1,29
 484.713867188 157.709960938 484.713867188 157.709960938 484.713867188 197.510742188 c 2,30,-1
 484.713867188 711.665039062 l 2,0,1
EndSplineSet
EndChar

StartChar: V
Encoding: 86 86 54
Width: 530
VWidth: 1116
Flags: W
LayerCount: 2
Fore
SplineSet
482.56640625 701.98828125 m 2,0,1
 491.500976562 732.854492188 491.500976562 732.854492188 469.975585938 750.317382812 c 128,-1,2
 448.451171875 767.78125 448.451171875 767.78125 420.0234375 761.282226562 c 128,-1,3
 391.59375 754.784179688 391.59375 754.784179688 385.096679688 726.356445312 c 2,4,-1
 265.6953125 255.250976562 l 1,5,-1
 142.234375 727.98046875 l 2,6,7
 134.922851562 754.784179688 134.922851562 754.784179688 108.119140625 761.282226562 c 128,-1,8
 81.3154296875 767.78125 81.3154296875 767.78125 60.1962890625 750.723632812 c 0,9,10
 39.8896484375 732.854492188 39.8896484375 732.854492188 46.3876953125 701.98828125 c 2,11,-1
 213.7109375 47.3154296875 l 2,12,13
 215.336914062 29.4453125 215.336914062 29.4453125 233.205078125 13.2001953125 c 0,14,15
 255.13671875 -4.6689453125 255.13671875 -4.6689453125 280.31640625 2.6416015625 c 0,16,17
 298.185546875 5.0771484375 298.185546875 5.0771484375 307.12109375 21.322265625 c 0,18,19
 316.055664062 32.6943359375 316.055664062 32.6943359375 316.055664062 47.3154296875 c 2,20,-1
 482.56640625 701.98828125 l 2,0,1
EndSplineSet
EndChar

StartChar: W
Encoding: 87 87 55
Width: 530
VWidth: 1116
Flags: W
LayerCount: 2
Fore
SplineSet
388.0546875 25.9716796875 m 2,0,1
 396.990234375 9.7275390625 396.990234375 9.7275390625 414.048828125 3.6357421875 c 128,-1,2
 431.10546875 -2.4560546875 431.10546875 -2.4560546875 445.724609375 4.0419921875 c 0,3,4
 448.162109375 5.666015625 448.162109375 5.666015625 448.162109375 4.0419921875 c 0,5,6
 453.84765625 5.666015625 453.84765625 5.666015625 460.345703125 8.103515625 c 0,7,8
 472.529296875 13.7890625 472.529296875 13.7890625 478.21484375 25.9716796875 c 0,9,10
 480.65234375 31.658203125 480.65234375 31.658203125 484.712890625 42.2177734375 c 0,11,12
 486.337890625 47.9033203125 486.337890625 47.9033203125 484.712890625 55.212890625 c 2,13,-1
 484.712890625 715.572265625 l 2,14,15
 484.712890625 746.438476562 484.712890625 746.438476562 460.751953125 756.997070312 c 128,-1,16
 436.791015625 767.556640625 436.791015625 767.556640625 411.609375 756.591796875 c 128,-1,17
 386.431640625 745.625976562 386.431640625 745.625976562 386.431640625 715.572265625 c 2,18,-1
 386.431640625 234.720703125 l 1,19,-1
 306.830078125 369.5546875 l 2,20,21
 295.458984375 384.174804688 295.458984375 384.174804688 284.087890625 390.672851562 c 0,22,23
 278.400390625 393.109375 278.400390625 393.109375 271.091796875 392.297851562 c 0,24,25
 259.720703125 394.733398438 259.720703125 394.733398438 245.099609375 390.672851562 c 0,26,27
 230.478515625 384.987304688 230.478515625 384.987304688 220.732421875 369.5546875 c 2,28,-1
 140.318359375 229.84765625 l 1,29,-1
 140.318359375 715.572265625 l 2,30,31
 140.318359375 746.438476562 140.318359375 746.438476562 115.951171875 756.997070312 c 128,-1,32
 91.583984375 767.556640625 91.583984375 767.556640625 68.029296875 756.591796875 c 128,-1,33
 44.474609375 745.625976562 44.474609375 745.625976562 44.474609375 715.572265625 c 2,34,-1
 44.474609375 47.0908203125 l 2,35,36
 44.474609375 18.662109375 44.474609375 18.662109375 68.841796875 5.666015625 c 0,37,38
 86.7109375 -5.705078125 86.7109375 -5.705078125 107.017578125 2.4169921875 c 0,39,40
 109.455078125 4.0419921875 109.455078125 4.0419921875 114.328125 4.0419921875 c 0,41,42
 128.947265625 9.7275390625 128.947265625 9.7275390625 140.318359375 25.9716796875 c 2,43,-1
 262.96875 242.84375 l 1,44,-1
 388.0546875 25.9716796875 l 2,0,1
EndSplineSet
EndChar

StartChar: X
Encoding: 88 88 56
Width: 530
VWidth: 1116
Flags: W
LayerCount: 2
Fore
SplineSet
389.133789062 34.0703125 m 2,0,1
 398.069335938 19.4501953125 398.069335938 19.4501953125 413.501953125 12.140625 c 128,-1,2
 428.934570312 4.8291015625 428.934570312 4.8291015625 443.555664062 8.484375 c 128,-1,3
 458.17578125 12.140625 458.17578125 12.140625 471.171875 21.88671875 c 128,-1,4
 484.168945312 31.634765625 484.168945312 31.634765625 487.010742188 47.87890625 c 128,-1,5
 489.853515625 64.1240234375 489.853515625 64.1240234375 482.54296875 78.744140625 c 2,6,-1
 324.155273438 385.775390625 l 1,7,-1
 482.54296875 696.8671875 l 2,8,9
 489.853515625 714.736328125 489.853515625 714.736328125 487.010742188 730.575195312 c 128,-1,10
 484.168945312 746.4140625 484.168945312 746.4140625 471.171875 755.348632812 c 128,-1,11
 458.17578125 764.282226562 458.17578125 764.282226562 444.774414062 767.533203125 c 128,-1,12
 431.372070312 770.78125 431.372070312 770.78125 415.126953125 765.095703125 c 128,-1,13
 398.881835938 759.41015625 398.881835938 759.41015625 389.133789062 740.727539062 c 2,14,-1
 265.672851562 496.241210938 l 1,15,-1
 141.3984375 742.353515625 l 2,16,17
 132.463867188 756.97265625 132.463867188 756.97265625 116.625 763.877929688 c 128,-1,18
 100.786132812 770.78125 100.786132812 770.78125 85.759765625 767.533203125 c 128,-1,19
 70.732421875 764.282226562 70.732421875 764.282226562 59.3603515625 755.348632812 c 128,-1,20
 47.9892578125 746.4140625 47.9892578125 746.4140625 43.5224609375 730.168945312 c 128,-1,21
 39.0546875 713.923828125 39.0546875 713.923828125 49.6142578125 696.8671875 c 2,22,-1
 208.81640625 384.150390625 l 1,23,-1
 51.23828125 74.68359375 l 2,24,25
 43.927734375 56.814453125 43.927734375 56.814453125 46.771484375 41.787109375 c 128,-1,26
 49.6142578125 26.7607421875 49.6142578125 26.7607421875 61.7978515625 16.607421875 c 128,-1,27
 73.982421875 6.4541015625 73.982421875 6.4541015625 88.6015625 2.3935546875 c 128,-1,28
 103.223632812 -1.66796875 103.223632812 -1.66796875 118.249023438 5.236328125 c 128,-1,29
 133.275390625 12.140625 133.275390625 12.140625 141.3984375 26.7607421875 c 2,30,-1
 265.672851562 272.872070312 l 1,31,-1
 389.133789062 34.0703125 l 2,0,1
EndSplineSet
EndChar

StartChar: Y
Encoding: 89 89 57
Width: 530
VWidth: 1116
Flags: W
LayerCount: 2
Fore
SplineSet
221.018554688 53.2578125 m 6,0,1
 221.018554688 19.955078125 221.018554688 19.955078125 247.416992188 7.3662109375 c 132,-1,2
 273.814453125 -5.2236328125 273.814453125 -5.2236328125 299.807617188 6.9609375 c 132,-1,3
 325.798828125 19.1435546875 325.798828125 19.1435546875 325.798828125 53.2578125 c 6,4,-1
 325.798828125 394.40234375 l 5,5,-1
 480.126953125 709.556640625 l 6,6,7
 494.747070312 735.548828125 494.747070312 735.548828125 476.876953125 759.103515625 c 132,-1,8
 459.0078125 782.658203125 459.0078125 782.658203125 431.797851562 782.658203125 c 132,-1,9
 404.586914062 782.658203125 404.586914062 782.658203125 389.154296875 755.854492188 c 6,10,-1
 273.002929688 514.6171875 l 5,11,-1
 139.793945312 758.291992188 l 6,12,13
 130.859375 774.537109375 130.859375 774.537109375 115.833007812 779.81640625 c 132,-1,14
 100.805664062 785.095703125 100.805664062 785.095703125 85.373046875 780.627929688 c 132,-1,15
 69.9404296875 776.161132812 69.9404296875 776.161132812 58.974609375 768.038085938 c 132,-1,16
 48.009765625 759.915039062 48.009765625 759.915039062 44.3544921875 743.669921875 c 132,-1,17
 40.69921875 727.42578125 40.69921875 727.42578125 49.634765625 709.556640625 c 6,18,-1
 221.018554688 394.40234375 l 5,19,-1
 221.018554688 53.2578125 l 6,0,1
EndSplineSet
EndChar

StartChar: Z
Encoding: 90 90 58
Width: 530
VWidth: 1116
Flags: W
LayerCount: 2
Fore
SplineSet
436.642578125 0.34765625 m 2,0,1
 467.5078125 0.34765625 467.5078125 0.34765625 479.286132812 25.5263671875 c 128,-1,2
 491.063476562 50.7060546875 491.063476562 50.7060546875 479.692382812 76.2919921875 c 128,-1,3
 468.321289062 101.87890625 468.321289062 101.87890625 436.642578125 101.87890625 c 2,4,-1
 178.346679688 101.87890625 l 1,5,-1
 481.31640625 688.323242188 l 2,6,7
 488.626953125 706.193359375 488.626953125 706.193359375 487.001953125 720.8125 c 0,8,9
 485.377929688 732.18359375 485.377929688 732.18359375 478.067382812 740.306640625 c 0,10,11
 478.067382812 740.306640625 l 0,12,13
 465.8828125 766.298828125 465.8828125 766.298828125 436.642578125 764.674804688 c 2,14,-1
 93.873046875 764.674804688 l 2,15,16
 63.0078125 764.674804688 63.0078125 764.674804688 51.2294921875 739.900390625 c 128,-1,17
 39.451171875 715.127929688 39.451171875 715.127929688 50.8232421875 689.134765625 c 128,-1,18
 62.1962890625 663.143554688 62.1962890625 663.143554688 93.873046875 663.143554688 c 2,19,-1
 353.79296875 663.143554688 l 1,20,-1
 50.01171875 75.88671875 l 2,21,22
 42.7021484375 58.017578125 42.7021484375 58.017578125 42.7021484375 40.1484375 c 0,23,24
 44.326171875 28.77734375 44.326171875 28.77734375 51.6357421875 24.7158203125 c 0,25,26
 63.8193359375 0.34765625 63.8193359375 0.34765625 94.685546875 0.34765625 c 2,27,-1
 436.642578125 0.34765625 l 2,0,1
EndSplineSet
EndChar

StartChar: underscore
Encoding: 95 95 63
Width: 530
VWidth: 1116
Flags: W
LayerCount: 2
Fore
SplineSet
98.48828125 109.827148438 m 6,0,1
 44.8798828125 109.827148438 44.8798828125 109.827148438 46.0986328125 55 c 132,-1,2
 47.3173828125 0.1728515625 47.3173828125 0.1728515625 98.48828125 0.1728515625 c 6,3,-1
 431.51171875 0.1728515625 l 6,4,5
 485.120117188 0.1728515625 485.120117188 0.1728515625 483.901367188 55 c 132,-1,6
 482.682617188 109.827148438 482.682617188 109.827148438 431.51171875 109.827148438 c 6,7,-1
 98.48828125 109.827148438 l 6,0,1
EndSplineSet
EndChar

StartChar: a
Encoding: 97 97 65
Width: 530
VWidth: 1116
Flags: W
LayerCount: 2
Fore
SplineSet
147.053710938 158.580078125 m 4,0,1
 147.053710938 210.564453125 147.053710938 210.564453125 201.067382812 219.905273438 c 132,-1,2
 255.08203125 229.24609375 255.08203125 229.24609375 297.3203125 204.87890625 c 4,3,4
 323.311523438 193.5078125 323.311523438 193.5078125 341.993164062 178.07421875 c 5,5,-1
 341.993164062 126.090820312 l 5,6,7
 296.506835938 100.09765625 296.506835938 100.09765625 237.213867188 102.53515625 c 5,8,-1
 179.54296875 110.657226562 l 5,9,10
 147.053710938 132.588867188 147.053710938 132.588867188 147.053710938 158.580078125 c 4,0,1
136.493164062 439.619140625 m 6,11,12
 87.7587890625 439.619140625 87.7587890625 439.619140625 88.1650390625 388.447265625 c 132,-1,13
 88.5712890625 337.275390625 88.5712890625 337.275390625 136.493164062 337.275390625 c 6,14,-1
 317.625976562 337.275390625 l 5,15,16
 337.932617188 331.58984375 337.932617188 331.58984375 341.993164062 309.658203125 c 4,17,18
 341.993164062 307.221679688 341.993164062 307.221679688 341.993164062 303.16015625 c 6,19,-1
 341.993164062 295.0390625 l 5,20,21
 282.698242188 321.842773438 282.698242188 321.842773438 223.405273438 322.654296875 c 4,22,23
 145.428710938 322.654296875 145.428710938 322.654296875 88.9775390625 265.797851562 c 132,-1,24
 32.525390625 208.940429688 32.525390625 208.940429688 49.9892578125 126.90234375 c 132,-1,25
 67.453125 44.8662109375 67.453125 44.8662109375 141.368164062 14 c 4,26,27
 141.368164062 14 l 4,28,29
 174.669921875 -0.6201171875 174.669921875 -0.6201171875 237.213867188 -0.6201171875 c 4,30,31
 311.127929688 -0.6201171875 311.127929688 -0.6201171875 375.295898438 30.244140625 c 5,32,33
 403.724609375 -0.6201171875 403.724609375 -0.6201171875 437.838867188 -0.6201171875 c 4,34,35
 474.389648438 -0.6201171875 474.389648438 -0.6201171875 482.512695312 38.7744140625 c 132,-1,36
 490.634765625 78.16796875 490.634765625 78.16796875 458.14453125 96.849609375 c 4,37,38
 449.209960938 102.53515625 449.209960938 102.53515625 445.1484375 110.657226562 c 6,39,-1
 445.1484375 303.16015625 l 6,40,41
 445.1484375 310.471679688 445.1484375 310.471679688 443.524414062 317.78125 c 4,42,43
 437.838867188 407.94140625 437.838867188 407.94140625 353.364257812 433.932617188 c 4,44,45
 344.430664062 436.369140625 344.430664062 436.369140625 331.43359375 439.619140625 c 4,46,47
 324.124023438 441.244140625 324.124023438 441.244140625 316.000976562 439.619140625 c 6,48,-1
 136.493164062 439.619140625 l 6,11,12
EndSplineSet
EndChar

StartChar: b
Encoding: 98 98 66
Width: 530
VWidth: 1116
Flags: W
LayerCount: 2
Fore
SplineSet
267.436523438 100.9609375 m 128,-1,1
 148.442382812 100.9609375 148.442382812 100.9609375 148.442382812 219.549804688 c 128,-1,2
 148.442382812 338.138671875 148.442382812 338.138671875 264.59375 338.138671875 c 0,3,4
 383.994140625 338.138671875 383.994140625 338.138671875 385.212890625 219.549804688 c 128,-1,0
 386.431640625 100.9609375 386.431640625 100.9609375 267.436523438 100.9609375 c 128,-1,1
145.192382812 715.022460938 m 2,5,6
 145.192382812 763.7578125 145.192382812 763.7578125 94.021484375 763.7578125 c 128,-1,7
 42.849609375 763.7578125 42.849609375 763.7578125 42.849609375 715.022460938 c 2,8,-1
 42.849609375 49.7900390625 l 2,9,10
 42.849609375 1.0546875 42.849609375 1.0546875 94.021484375 1.8681640625 c 0,11,12
 137.8828125 1.8681640625 137.8828125 1.8681640625 143.568359375 38.4189453125 c 1,13,14
 197.989257812 0.2421875 197.989257812 0.2421875 268.655273438 0.2421875 c 0,15,16
 358.814453125 0.2421875 358.814453125 0.2421875 422.982421875 63.19140625 c 128,-1,17
 487.150390625 126.141601562 487.150390625 126.141601562 487.150390625 217.51953125 c 128,-1,18
 487.150390625 308.897460938 487.150390625 308.897460938 421.763671875 374.690429688 c 128,-1,19
 356.377929688 440.482421875 356.377929688 440.482421875 264.59375 440.482421875 c 0,20,21
 196.364257812 440.482421875 196.364257812 440.482421875 145.192382812 402.306640625 c 1,22,-1
 145.192382812 715.022460938 l 2,5,6
EndSplineSet
EndChar

StartChar: c
Encoding: 99 99 67
Width: 530
VWidth: 1116
Flags: W
LayerCount: 2
Fore
SplineSet
145.006835938 218.495117188 m 4,0,1
 145.006835938 311.903320312 145.006835938 311.903320312 243.2890625 333.834960938 c 132,-1,2
 341.572265625 355.765625 341.572265625 355.765625 398.4296875 292.41015625 c 4,3,4
 420.360351562 270.479492188 420.360351562 270.479492188 448.381835938 279.8203125 c 132,-1,5
 476.405273438 289.16015625 476.405273438 289.16015625 483.715820312 313.528320312 c 132,-1,6
 491.025390625 337.895507812 491.025390625 337.895507812 469.907226562 362.263671875 c 4,7,8
 391.931640625 440.239257812 391.931640625 440.239257812 287.962890625 441.052734375 c 132,-1,9
 183.995117188 441.86328125 183.995117188 441.86328125 113.329101562 376.883789062 c 132,-1,10
 42.6640625 311.903320312 42.6640625 311.903320312 42.6640625 218.495117188 c 132,-1,11
 42.6640625 125.0859375 42.6640625 125.0859375 112.923828125 62.54296875 c 132,-1,12
 183.182617188 0 183.182617188 0 288.775390625 0 c 132,-1,13
 394.368164062 0 394.368164062 0 472.344726562 80.412109375 c 4,14,15
 494.275390625 102.342773438 494.275390625 102.342773438 484.122070312 130.366210938 c 132,-1,16
 473.96875 158.387695312 473.96875 158.387695312 449.600585938 164.88671875 c 132,-1,17
 425.234375 171.384765625 425.234375 171.384765625 398.4296875 151.078125 c 4,18,19
 349.694335938 100.71875 349.694335938 100.71875 278.216796875 101.53125 c 4,20,21
 145.006835938 100.71875 145.006835938 100.71875 145.006835938 218.495117188 c 4,0,1
EndSplineSet
EndChar

StartChar: d
Encoding: 100 100 68
Width: 530
VWidth: 1116
Flags: W
LayerCount: 2
Fore
SplineSet
108.6171875 374.690429688 m 132,-1,1
 42.8251953125 308.897460938 42.8251953125 308.897460938 42.8251953125 217.51953125 c 132,-1,2
 42.8251953125 126.141601562 42.8251953125 126.141601562 107.803710938 63.19140625 c 132,-1,3
 172.784179688 0.2421875 172.784179688 0.2421875 262.944335938 0.2421875 c 4,4,5
 331.172851562 0.2421875 331.172851562 0.2421875 386.40625 38.4189453125 c 5,6,7
 392.091796875 1.8681640625 392.091796875 1.8681640625 438.389648438 1.8681640625 c 4,8,9
 488.749023438 1.8681640625 488.749023438 1.8681640625 487.124023438 49.7900390625 c 6,10,-1
 487.124023438 715.022460938 l 6,11,12
 487.124023438 763.7578125 487.124023438 763.7578125 436.765625 763.7578125 c 132,-1,13
 386.40625 763.7578125 386.40625 763.7578125 386.40625 715.022460938 c 6,14,-1
 386.40625 402.306640625 l 5,15,16
 332.796875 437.232421875 332.796875 437.232421875 264.568359375 440.482421875 c 4,17,0
 174.408203125 440.482421875 174.408203125 440.482421875 108.6171875 374.690429688 c 132,-1,1
264.568359375 338.138671875 m 4,18,19
 382.344726562 338.138671875 382.344726562 338.138671875 382.344726562 219.549804688 c 132,-1,20
 382.344726562 100.9609375 382.344726562 100.9609375 263.755859375 100.9609375 c 132,-1,21
 145.16796875 100.9609375 145.16796875 100.9609375 145.16796875 219.549804688 c 132,-1,22
 145.16796875 338.138671875 145.16796875 338.138671875 264.568359375 338.138671875 c 4,18,19
EndSplineSet
EndChar

StartChar: e
Encoding: 101 101 69
Width: 530
VWidth: 1116
Flags: W
LayerCount: 2
Fore
SplineSet
44.474609375 214.840820312 m 4,0,1
 44.474609375 154.734375 l 4,2,3
 45.287109375 122.245117188 45.287109375 122.245117188 55.033203125 114.934570312 c 5,4,5
 123.262695312 13.4033203125 123.262695312 13.4033203125 250.78515625 0 c 132,-1,6
 378.309570312 -13.4013671875 378.309570312 -13.4013671875 470.092773438 77.5712890625 c 4,7,8
 492.024414062 98.6904296875 492.024414062 98.6904296875 482.27734375 127.118164062 c 4,9,10
 471.717773438 153.921875 471.717773438 153.921875 447.350585938 162.044921875 c 4,11,12
 420.544921875 169.35546875 420.544921875 169.35546875 396.178710938 147.424804688 c 4,13,14
 336.072265625 92.19140625 336.072265625 92.19140625 258.908203125 100.313476562 c 4,15,16
 186.618164062 107.624023438 186.618164062 107.624023438 145.192382812 158.795898438 c 5,17,-1
 145.192382812 181.538085938 l 5,18,-1
 438.415039062 181.538085938 l 6,19,20
 486.338867188 182.3515625 486.338867188 182.3515625 484.713867188 233.522460938 c 4,21,22
 484.713867188 235.958984375 484.713867188 235.958984375 484.713867188 243.270507812 c 132,-1,23
 484.713867188 250.580078125 484.713867188 250.580078125 484.713867188 257.079101562 c 4,24,25
 492.024414062 328.555664062 492.024414062 328.555664062 433.541992188 384.600585938 c 4,26,27
 381.557617188 436.584960938 381.557617188 436.584960938 304.39453125 436.584960938 c 6,28,-1
 301.145507812 436.584960938 l 6,29,30
 250.78515625 437.397460938 250.78515625 437.397460938 248.349609375 434.1484375 c 5,31,32
 236.9765625 438.209960938 236.9765625 438.209960938 223.168945312 436.584960938 c 4,33,34
 145.192382812 437.397460938 145.192382812 437.397460938 95.6455078125 384.600585938 c 4,35,36
 53.4091796875 339.927734375 53.4091796875 339.927734375 45.287109375 257.079101562 c 4,37,-1
 45.287109375 236.772460938 l 6,38,-1
 45.287109375 233.522460938 l 6,39,-1
 44.474609375 214.840820312 l 4,0,1
241.038085938 336.678710938 m 4,40,41
 253.221679688 335.866210938 253.221679688 335.866210938 301.145507812 335.866210938 c 4,42,43
 367.749023438 336.678710938 367.749023438 336.678710938 381.557617188 283.8828125 c 5,44,-1
 148.442382812 283.8828125 l 5,45,46
 160.625976562 331.8046875 160.625976562 331.8046875 228.854492188 335.866210938 c 4,47,48
 236.166015625 336.678710938 236.166015625 336.678710938 241.038085938 336.678710938 c 4,40,41
EndSplineSet
EndChar

StartChar: f
Encoding: 102 102 70
Width: 530
VWidth: 1116
Flags: W
LayerCount: 2
Fore
SplineSet
115.51953125 437.987304688 m 6,0,1
 66.78515625 437.987304688 66.78515625 437.987304688 67.189453125 388.034179688 c 132,-1,2
 67.595703125 338.081054688 67.595703125 338.081054688 115.51953125 338.081054688 c 6,3,-1
 185.372070312 338.081054688 l 5,4,-1
 185.372070312 48.107421875 l 6,5,6
 185.372070312 -0.626953125 185.372070312 -0.626953125 234.919921875 0.1845703125 c 132,-1,7
 284.466796875 0.9970703125 284.466796875 0.9970703125 284.466796875 48.107421875 c 6,8,-1
 284.466796875 338.081054688 l 5,9,-1
 411.177734375 338.081054688 l 6,10,11
 459.913085938 338.081054688 459.913085938 338.081054688 460.725585938 388.034179688 c 132,-1,12
 461.537109375 437.987304688 461.537109375 437.987304688 411.177734375 437.987304688 c 6,13,-1
 284.466796875 437.987304688 l 5,14,-1
 284.466796875 642.674804688 l 5,15,16
 302.336914062 662.981445312 302.336914062 662.981445312 324.267578125 660.544921875 c 4,17,18
 348.634765625 660.544921875 348.634765625 660.544921875 367.72265625 631.708984375 c 132,-1,19
 386.811523438 602.874023438 386.811523438 602.874023438 412.801757812 602.874023438 c 132,-1,20
 438.794921875 602.874023438 438.794921875 602.874023438 453.415039062 625.6171875 c 132,-1,21
 468.036132812 648.360351562 468.036132812 648.360351562 459.913085938 673.5390625 c 4,22,23
 433.921875 731.209960938 433.921875 731.209960938 370.971679688 754.359375 c 132,-1,24
 308.022460938 777.5078125 308.022460938 777.5078125 244.666992188 740.14453125 c 4,25,26
 204.8671875 714.15234375 204.8671875 714.15234375 190.24609375 683.287109375 c 4,27,28
 184.560546875 671.916015625 184.560546875 671.916015625 185.372070312 658.106445312 c 6,29,-1
 185.372070312 437.987304688 l 5,30,-1
 115.51953125 437.987304688 l 6,0,1
EndSplineSet
EndChar

StartChar: g
Encoding: 103 103 71
Width: 530
VWidth: 1116
InSpiro: 1
Flags: W
LayerCount: 2
Fore
SplineSet
388.047851562 396.059570312 m 1,0,-1
 368.237304688 410.28125 l 1,1,-1
 346.727539062 421.932617188 l 1,2,-1
 324.006835938 430.805664062 l 1,3,-1
 299.827148438 437 l 1,4,-1
 275.01171875 440.405273438 l 1,5,-1
 250.040039062 441.12109375 l 1,6,-1
 224.380859375 439.08203125 l 1,7,-1
 199.08984375 434.009765625 l 1,8,-1
 174.7578125 425.734375 l 1,9,-1
 150.5234375 413.4765625 l 1,10,-1
 128.024414062 398.061523438 l 1,11,-1
 107.525390625 380.155273438 l 1,12,-1
 88.8818359375 359.888671875 l 1,13,-1
 72.76171875 337.5 l 1,14,-1
 59.892578125 313.233398438 l 1,15,-1
 50.869140625 287.555664062 l 1,16,-1
 45.5888671875 260.75 l 1,17,-1
 43.923828125 233.5390625 l 1,18,-1
 45.6904296875 206.49609375 l 1,19,-1
 50.9599609375 179.84765625 l 1,20,-1
 59.8310546875 154.279296875 l 1,21,-1
 72.5439453125 129.909179688 l 1,22,-1
 88.578125 107.447265625 l 1,23,-1
 107.279296875 87.23046875 l 1,24,-1
 127.856445312 69.5576171875 l 1,25,-1
 150.370117188 54.3056640625 l 1,26,-1
 174.485351562 41.943359375 l 1,27,-1
 198.576171875 33.33984375 l 1,28,-1
 223.682617188 28.125 l 1,29,-1
 249.189453125 26.623046875 l 1,30,-1
 270.890625 28.3330078125 l 1,31,-1
 292.3515625 32.4658203125 l 1,32,-1
 313.279296875 38.6162109375 l 1,33,-1
 338.137695312 48.3544921875 l 1,34,-1
 362.153320312 60.220703125 l 1,35,-1
 385.086914062 73.91796875 l 1,36,-1
 385.107421875 66.7197265625 l 1,37,-1
 385.107421875 59.9443359375 l 1,38,-1
 377.986328125 43.2783203125 l 1,39,-1
 368.293945312 27.8974609375 l 1,40,-1
 356.340820312 14.26953125 l 1,41,-1
 342.403320312 2.6982421875 l 1,42,-1
 326.827148438 -6.6796875 l 1,43,-1
 310.106445312 -13.7080078125 l 1,44,-1
 274.392578125 -21.1650390625 l 1,45,-1
 237.620117188 -20.7294921875 l 1,46,-1
 201.53515625 -13.634765625 l 1,47,-1
 188.6015625 -9.44140625 l 1,48,-1
 176.024414062 -4.1875 l 1,49,-1
 164.046875 2.2060546875 l 1,50,-1
 153.813476562 9.14453125 l 1,51,-1
 144.184570312 16.98046875 l 1,52,-1
 135.016601562 25.322265625 l 1,53,-1
 131.142578125 28.93359375 l 1,54,-1
 127.16015625 32.447265625 l 1,55,-1
 123.016601562 35.740234375 l 1,56,-1
 118.62890625 38.7060546875 l 1,57,-1
 113.963867188 41.2353515625 l 1,58,-1
 109.059570312 43.203125 l 1,59,-1
 100.165039062 45.0576171875 l 1,60,-1
 91.02734375 45.0361328125 l 1,61,-1
 82.0537109375 43.341796875 l 1,62,-1
 73.642578125 40.2490234375 l 1,63,-1
 65.8349609375 35.81640625 l 1,64,-1
 58.962890625 30.1005859375 l 1,65,-1
 53.447265625 23.4541015625 l 1,66,-1
 49.12109375 15.9345703125 l 1,67,-1
 46.017578125 7.8505859375 l 1,68,-1
 44.1611328125 -0.6015625 l 1,69,-1
 43.6875 -9.2529296875 l 1,70,-1
 44.783203125 -17.802734375 l 1,71,-1
 47.732421875 -26.357421875 l 1,72,-1
 52.2939453125 -34.2373046875 l 1,73,-1
 58.0947265625 -41.2509765625 l 1,74,-1
 75.0634765625 -55.0908203125 l 1,75,-1
 94.427734375 -65.8876953125 l 1,76,-1
 114.607421875 -75.1689453125 l 1,77,-1
 134.805664062 -84.09375 l 1,78,-1
 155.283203125 -92.517578125 l 1,79,-1
 176.024414062 -100.05078125 l 1,80,-1
 218.618164062 -110.387695312 l 1,81,-1
 262.435546875 -113.412109375 l 1,82,-1
 305.97265625 -108.786132812 l 1,83,-1
 339.641601562 -100.129882812 l 1,84,-1
 372.178710938 -87.623046875 l 1,85,-1
 402.834960938 -71.3037109375 l 1,86,-1
 417.942382812 -61.021484375 l 1,87,-1
 431.98828125 -49.2724609375 l 1,88,-1
 444.548828125 -36.044921875 l 1,89,-1
 455.297851562 -21.337890625 l 1,90,-1
 464.595703125 -5.55859375 l 1,91,-1
 473.090820312 10.6455078125 l 1,92,-1
 476.236328125 16.5625 l 1,93,-1
 479.477539062 22.455078125 l 1,94,-1
 482.6875 28.341796875 l 1,95,-1
 484.563476562 32.107421875 l 1,96,-1
 486.122070312 36.0166015625 l 1,97,-1
 486.3125 39.9775390625 l 1,98,-1
 486.3125 43.3046875 l 1,99,-1
 486.3125 45.7998046875 l 1,100,-1
 486.3125 48.294921875 l 1,101,-1
 486.3125 53.2841796875 l 1,102,-1
 486.3125 58.2744140625 l 1,103,-1
 486.211914062 60.44921875 l 1,104,-1
 486.211914062 390.810546875 l 1,105,-1
 486.092773438 397.505859375 l 1,106,-1
 485.506835938 404.1796875 l 1,107,-1
 484.108398438 410.685546875 l 1,108,-1
 481.634765625 416.883789062 l 1,109,-1
 478.10546875 422.567382812 l 1,110,-1
 473.630859375 427.510742188 l 1,111,-1
 468.25 431.638671875 l 1,112,-1
 462.2421875 434.85546875 l 1,113,-1
 455.84765625 437.181640625 l 1,114,-1
 449.225585938 438.705078125 l 1,115,-1
 442.458984375 439.536132812 l 1,116,-1
 435.659179688 439.75390625 l 1,117,-1
 429.344726562 439.462890625 l 1,118,-1
 423.059570312 438.649414062 l 1,119,-1
 416.8984375 437.26171875 l 1,120,-1
 410.918945312 435.212890625 l 1,121,-1
 405.236328125 432.413085938 l 1,122,-1
 400.05859375 428.8203125 l 1,123,-1
 396.0859375 425.00390625 l 1,124,-1
 392.758789062 420.59765625 l 1,125,-1
 390.23046875 415.715820312 l 1,126,-1
 388.7578125 411.122070312 l 1,127,-1
 388.020507812 406.340820312 l 1,128,-1
 388.047851562 401.520507812 l 1,129,-1
 388.047851562 396.059570312 l 1,0,-1
  Spiro
    388.046 396.06 v
    368.237 410.281 o
    346.728 421.932 o
    324.007 430.805 o
    299.827 437 o
    275.012 440.404 o
    250.041 441.121 o
    224.381 439.084 o
    199.089 434.011 o
    174.759 425.736 o
    150.523 413.477 o
    128.025 398.062 o
    107.525 380.154 o
    88.8819 359.889 o
    72.7623 337.501 o
    59.893 313.234 o
    50.869 287.556 o
    45.589 260.75 o
    43.9224 233.54 o
    45.6909 206.497 o
    50.9597 179.848 o
    59.8312 154.279 o
    72.5444 129.909 o
    88.5775 107.447 o
    107.278 87.2309 o
    127.855 69.558 o
    150.371 54.3066 o
    174.485 41.9442 o
    198.576 33.3402 o
    223.683 28.1251 o
    249.189 26.6241 o
    270.891 28.3329 o
    292.353 32.466 o
    313.28 38.6159 o
    338.137 48.3548 o
    362.152 60.2206 o
    385.087 73.9175 v
    385.106 66.7202 v
    385.106 59.9432 v
    377.986 43.2774 o
    368.293 27.897 o
    356.342 14.2697 o
    342.403 2.69755 o
    326.826 -6.67945 o
    310.106 -13.7088 o
    274.393 -21.1644 o
    237.62 -20.7289 o
    201.534 -13.6352 o
    188.601 -9.44159 o
    176.025 -4.18721 o
    164.046 2.20639 o
    153.814 9.14364 o
    144.184 16.9803 o
    135.017 25.3231 o
    131.141 28.9337 o
    127.16 32.4475 o
    123.018 35.7398 o
    118.63 38.7061 o
    113.964 41.2354 o
    109.059 43.2047 o
    100.165 45.0579 o
    91.0286 45.0354 o
    82.0541 43.3412 o
    73.6427 40.25 o
    65.8355 35.8161 o
    58.9632 30.1006 o
    53.4487 23.4537 o
    49.1206 15.9353 o
    46.0179 7.85092 o
    44.1604 -0.600755 o
    43.6887 -9.25195 o
    44.783 -17.8017 o
    47.732 -26.3584 o
    52.2948 -34.2364 o
    58.094 -41.2511 o
    75.0618 -55.0899 o
    94.428 -65.8877 o
    114.608 -75.1695 o
    134.806 -84.0926 o
    155.283 -92.5165 o
    176.025 -100.049 o
    218.618 -110.389 o
    262.434 -113.412 o
    305.974 -108.785 o
    339.64 -100.128 o
    372.178 -87.6225 o
    402.834 -71.3037 o
    417.943 -61.022 o
    431.989 -49.2726 o
    444.548 -36.0448 o
    455.298 -21.338 o
    464.594 -5.55809 o
    473.09 10.6439 o
    476.235 16.5641 o
    479.479 22.4552 o
    482.687 28.3421 o
    484.562 32.1073 o
    486.122 36.0172 o
    486.312 39.9773 o
    486.312 43.3043 o
    486.312 45.7995 o
    486.312 48.2948 o
    486.312 53.2852 o
    486.312 58.2757 o
    486.212 60.4497 [
    486.212 390.812 ]
    486.094 397.507 o
    485.507 404.179 o
    484.108 410.686 o
    481.634 416.884 o
    478.106 422.568 o
    473.631 427.512 o
    468.25 431.639 o
    462.243 434.857 o
    455.847 437.182 o
    449.228 438.706 o
    442.46 439.537 o
    435.659 439.755 o
    429.345 439.462 o
    423.06 438.65 o
    416.9 437.262 o
    410.917 435.213 o
    405.237 432.414 o
    400.058 428.821 o
    396.085 425.005 o
    392.758 420.599 o
    390.23 415.717 o
    388.758 411.124 o
    388.02 406.342 o
    388.046 401.52 [
    0 0 z
  EndSpiro
178.095703125 309.037109375 m 0,130,131
 232.169921875 358.37890625 232.169921875 358.37890625 301.279296875 329.75 c 128,-1,132
 370.385742188 301.120117188 370.385742188 301.120117188 378.619140625 232.015625 c 1,133,134
 362.965820312 130.618164062 362.965820312 130.618164062 260.772460938 127.77734375 c 0,135,136
 186.587890625 125.7421875 186.587890625 125.7421875 155.77734375 192.120117188 c 128,-1,137
 124.967773438 258.495117188 124.967773438 258.495117188 178.095703125 309.037109375 c 0,130,131
  Spiro
    178.096 309.038 o
    235.931 338.886 o
    301.28 329.749 o
    355.169 291.001 o
    378.619 232.015 v
    341.33 155.257 o
    260.773 127.777 o
    197.432 142.845 o
    155.777 192.119 o
    145.952 254.536 o
    0 0 z
  EndSpiro
EndSplineSet
EndChar

StartChar: h
Encoding: 104 104 72
Width: 530
VWidth: 1116
Flags: W
LayerCount: 2
Fore
SplineSet
145.3671875 712.163085938 m 6,0,1
 145.3671875 760.8984375 145.3671875 760.8984375 94.1953125 760.8984375 c 132,-1,2
 43.0234375 760.8984375 43.0234375 760.8984375 43.0234375 712.163085938 c 6,3,-1
 43.0234375 264.61328125 l 6,4,5
 41.3994140625 255.678710938 41.3994140625 255.678710938 43.0234375 249.9921875 c 6,6,-1
 43.0234375 48.5546875 l 6,7,8
 43.0234375 -0.1806640625 43.0234375 -0.1806640625 94.1953125 -0.5859375 c 132,-1,9
 145.3671875 -0.9921875 145.3671875 -0.9921875 145.3671875 48.5546875 c 6,10,-1
 145.3671875 249.9921875 l 5,11,12
 163.236328125 304.413085938 163.236328125 304.413085938 221.717773438 327.96875 c 4,13,14
 285.07421875 353.959960938 285.07421875 353.959960938 345.180664062 310.098632812 c 4,15,16
 373.609375 288.168945312 373.609375 288.168945312 386.60546875 254.866210938 c 5,17,-1
 386.60546875 46.9296875 l 6,18,19
 386.60546875 -1.8046875 386.60546875 -1.8046875 436.963867188 -1.3994140625 c 132,-1,20
 487.32421875 -0.9921875 487.32421875 -0.9921875 487.32421875 46.9296875 c 6,21,-1
 487.32421875 254.866210938 l 6,22,23
 488.948242188 266.237304688 488.948242188 266.237304688 484.88671875 278.421875 c 4,24,25
 451.5859375 379.953125 451.5859375 379.953125 345.180664062 423.001953125 c 4,26,27
 245.272460938 459.552734375 245.272460938 459.552734375 145.3671875 402.6953125 c 5,28,-1
 145.3671875 712.163085938 l 6,0,1
EndSplineSet
EndChar

StartChar: i
Encoding: 105 105 73
Width: 530
VWidth: 1116
Flags: W
LayerCount: 2
Fore
SplineSet
207.125976562 528.368164062 m 132,-1,1
 207.125976562 475.166992188 207.125976562 475.166992188 260.733398438 475.166992188 c 132,-1,2
 314.342773438 475.166992188 314.342773438 475.166992188 314.342773438 528.368164062 c 132,-1,3
 314.342773438 581.5703125 314.342773438 581.5703125 260.733398438 581.5703125 c 132,-1,0
 207.125976562 581.5703125 207.125976562 581.5703125 207.125976562 528.368164062 c 132,-1,1
367.951171875 0 m 6,4,5
 418.310546875 0 418.310546875 0 418.716796875 49.953125 c 132,-1,6
 419.123046875 99.90625 419.123046875 99.90625 367.951171875 99.90625 c 6,7,-1
 315.155273438 99.90625 l 5,8,-1
 315.155273438 374.446289062 l 6,9,10
 315.155273438 376.883789062 315.155273438 376.883789062 314.342773438 380.1328125 c 4,11,12
 314.342773438 382.569335938 314.342773438 382.569335938 315.155273438 386.629882812 c 4,13,14
 315.155273438 436.990234375 315.155273438 436.990234375 264.794921875 436.990234375 c 6,15,-1
 210.374023438 436.990234375 l 6,16,17
 160.015625 436.990234375 160.015625 436.990234375 160.421875 387.037109375 c 132,-1,18
 160.828125 337.083007812 160.828125 337.083007812 210.374023438 337.083007812 c 6,19,-1
 214.435546875 337.083007812 l 5,20,-1
 214.435546875 99.90625 l 5,21,-1
 161.639648438 99.90625 l 6,22,23
 111.280273438 99.90625 111.280273438 99.90625 111.280273438 49.953125 c 132,-1,24
 111.280273438 0 111.280273438 0 161.639648438 0 c 6,25,-1
 264.794921875 0 l 5,26,-1
 367.951171875 0 l 6,4,5
EndSplineSet
EndChar

StartChar: j
Encoding: 106 106 74
Width: 530
VWidth: 1116
Flags: W
LayerCount: 2
Fore
SplineSet
401.051757812 590.860351562 m 132,-1,1
 348.661132812 590.860351562 348.661132812 590.860351562 348.661132812 537.658203125 c 132,-1,2
 348.661132812 484.456054688 348.661132812 484.456054688 401.051757812 484.456054688 c 132,-1,3
 453.442382812 484.456054688 453.442382812 484.456054688 453.442382812 537.658203125 c 132,-1,0
 453.442382812 590.860351562 453.442382812 590.860351562 401.051757812 590.860351562 c 132,-1,1
453.442382812 391.859375 m 6,4,5
 453.442382812 440.594726562 453.442382812 440.594726562 403.08203125 441 c 132,-1,6
 352.72265625 441.407226562 352.72265625 441.407226562 352.72265625 391.859375 c 6,7,-1
 352.72265625 81.580078125 l 6,8,9
 352.72265625 78.3310546875 l 4,10,11
 352.72265625 78.3310546875 l 4,12,13
 351.098632812 26.3466796875 351.098632812 26.3466796875 308.048828125 10.9140625 c 4,14,15
 262.563476562 -6.9560546875 262.563476562 -6.9560546875 221.138671875 6.853515625 c 4,16,17
 177.27734375 23.0986328125 177.27734375 23.0986328125 178.088867188 71.8330078125 c 4,18,19
 178.088867188 105.135742188 178.088867188 105.135742188 152.50390625 116.913085938 c 132,-1,20
 126.91796875 128.69140625 126.91796875 128.69140625 101.73828125 113.6640625 c 132,-1,21
 76.5576171875 98.63671875 76.5576171875 98.63671875 76.5576171875 66.1474609375 c 4,22,23
 76.5576171875 -9.3916015625 76.5576171875 -9.3916015625 130.979492188 -56.501953125 c 132,-1,24
 185.400390625 -103.612304688 185.400390625 -103.612304688 265 -103.612304688 c 132,-1,25
 344.599609375 -103.612304688 344.599609375 -103.612304688 399.020507812 -53.2529296875 c 132,-1,26
 453.442382812 -2.89453125 453.442382812 -2.89453125 453.442382812 78.3310546875 c 4,27,-1
 453.442382812 81.580078125 l 4,28,-1
 453.442382812 81.580078125 l 6,29,-1
 453.442382812 391.859375 l 6,4,5
EndSplineSet
EndChar

StartChar: k
Encoding: 107 107 75
Width: 530
VWidth: 1116
Flags: W
LayerCount: 2
Fore
SplineSet
403.731445312 11.33203125 m 2,0,1
 428.099609375 -6.537109375 428.099609375 -6.537109375 453.279296875 4.0224609375 c 0,2,3
 479.271484375 16.2060546875 479.271484375 16.2060546875 484.95703125 40.5732421875 c 0,4,5
 490.643554688 67.3779296875 490.643554688 67.3779296875 467.900390625 86.87109375 c 2,6,-1
 274.584960938 250.9453125 l 1,7,-1
 458.96484375 342.73046875 l 2,8,9
 484.95703125 354.9140625 484.95703125 354.9140625 485.76953125 384.155273438 c 128,-1,10
 486.58203125 413.395507812 486.58203125 413.395507812 463.838867188 430.047851562 c 128,-1,11
 441.095703125 446.698242188 441.095703125 446.698242188 414.291015625 432.890625 c 2,12,-1
 144.624023438 296.431640625 l 1,13,-1
 144.624023438 713.1171875 l 2,14,15
 144.624023438 761.8515625 144.624023438 761.8515625 94.2646484375 761.0390625 c 128,-1,16
 43.90625 760.227539062 43.90625 760.227539062 43.90625 713.1171875 c 2,17,-1
 43.90625 47.8828125 l 2,18,19
 43.90625 -0.8515625 43.90625 -0.8515625 94.2646484375 -0.0390625 c 128,-1,20
 144.624023438 0.7724609375 144.624023438 0.7724609375 144.624023438 47.8828125 c 2,21,-1
 144.624023438 184.341796875 l 1,22,-1
 177.114257812 198.961914062 l 1,23,-1
 403.731445312 11.33203125 l 2,0,1
EndSplineSet
EndChar

StartChar: l
Encoding: 108 108 76
Width: 530
VWidth: 1116
Flags: W
LayerCount: 2
Fore
SplineSet
351.903320312 -0.2275390625 m 2,0,1
 402.262695312 -0.2275390625 402.262695312 -0.2275390625 401.451171875 49.7265625 c 128,-1,2
 400.638671875 99.6796875 400.638671875 99.6796875 351.903320312 99.6796875 c 2,3,-1
 315.352539062 99.6796875 l 1,4,-1
 315.352539062 708.866210938 l 2,5,6
 315.352539062 759.227539062 315.352539062 759.227539062 264.9921875 759.227539062 c 2,7,-1
 200.825195312 759.227539062 l 2,8,9
 150.465820312 759.227539062 150.465820312 759.227539062 150.465820312 709.2734375 c 128,-1,10
 150.465820312 659.3203125 150.465820312 659.3203125 200.825195312 659.3203125 c 2,11,-1
 214.633789062 659.3203125 l 1,12,-1
 214.633789062 99.6796875 l 1,13,-1
 178.89453125 99.6796875 l 2,14,15
 128.53515625 99.6796875 128.53515625 99.6796875 128.53515625 49.7265625 c 128,-1,16
 128.53515625 -0.2275390625 128.53515625 -0.2275390625 178.89453125 -0.2275390625 c 2,17,-1
 264.9921875 -0.2275390625 l 1,18,-1
 351.903320312 -0.2275390625 l 2,0,1
EndSplineSet
EndChar

StartChar: m
Encoding: 109 109 77
Width: 530
VWidth: 1116
Flags: W
LayerCount: 2
Fore
SplineSet
212.609375 48.734375 m 6,0,1
 212.609375 0 212.609375 0 264.1875 0 c 132,-1,2
 315.765625 0 315.765625 0 315.765625 48.734375 c 6,3,-1
 315.765625 303.78125 l 6,4,5
 315.765625 305.40625 315.765625 305.40625 315.765625 307.842773438 c 4,6,7
 318.202148438 333.834960938 318.202148438 333.834960938 348.254882812 337.896484375 c 132,-1,8
 378.309570312 341.95703125 378.309570312 341.95703125 386.431640625 310.279296875 c 5,9,-1
 386.431640625 48.734375 l 6,10,11
 386.431640625 0 386.431640625 0 436.791015625 0 c 132,-1,12
 487.150390625 0 487.150390625 0 487.150390625 48.734375 c 6,13,-1
 487.150390625 310.279296875 l 6,14,15
 487.150390625 311.904296875 487.150390625 311.904296875 487.150390625 315.15234375 c 4,16,17
 487.150390625 316.77734375 l 4,18,19
 487.150390625 365.512695312 487.150390625 365.512695312 445.725585938 402.063476562 c 132,-1,20
 404.30078125 438.615234375 404.30078125 438.615234375 351.504882812 438.615234375 c 4,21,22
 302.76953125 438.615234375 302.76953125 438.615234375 264.59375 408.561523438 c 5,23,24
 228.04296875 436.990234375 228.04296875 436.990234375 180.120117188 438.615234375 c 5,25,-1
 180.120117188 438.615234375 l 5,26,-1
 94.021484375 438.615234375 l 5,27,-1
 94.021484375 436.178710938 l 5,28,29
 43.6611328125 436.178710938 43.6611328125 436.178710938 42.849609375 388.255859375 c 6,30,-1
 42.849609375 316.77734375 l 5,31,-1
 42.849609375 48.734375 l 6,32,33
 42.849609375 0 42.849609375 0 94.021484375 0 c 132,-1,34
 145.192382812 0 145.192382812 0 145.192382812 48.734375 c 6,35,-1
 145.192382812 310.279296875 l 5,36,37
 150.87890625 336.271484375 150.87890625 336.271484375 180.120117188 335.458984375 c 4,38,39
 210.986328125 335.458984375 210.986328125 335.458984375 212.609375 307.842773438 c 4,40,41
 212.609375 306.21875 212.609375 306.21875 212.609375 303.78125 c 6,42,-1
 212.609375 48.734375 l 6,0,1
EndSplineSet
EndChar

StartChar: n
Encoding: 110 110 78
Width: 530
VWidth: 1116
Flags: W
LayerCount: 2
Fore
SplineSet
67.2236328125 47.8056640625 m 6,0,1
 67.2236328125 -0.9296875 67.2236328125 -0.9296875 117.989257812 -0.9296875 c 132,-1,2
 168.754882812 -0.9296875 168.754882812 -0.9296875 168.754882812 47.8056640625 c 6,3,-1
 168.754882812 284.982421875 l 5,4,5
 203.681640625 330.46875 203.681640625 330.46875 265.818359375 331.686523438 c 132,-1,6
 327.956054688 332.905273438 327.956054688 332.905273438 361.2578125 289.04296875 c 5,7,-1
 361.2578125 47.8056640625 l 6,8,9
 361.2578125 -0.9296875 361.2578125 -0.9296875 412.0234375 -0.9296875 c 132,-1,10
 462.7890625 -0.9296875 462.7890625 -0.9296875 462.7890625 47.8056640625 c 6,11,-1
 462.7890625 302.8515625 l 6,12,13
 462.7890625 328.84375 462.7890625 328.84375 448.16796875 343.463867188 c 5,14,15
 372.629882812 453.1171875 372.629882812 453.1171875 238.608398438 436.061523438 c 4,16,17
 197.18359375 430.375 197.18359375 430.375 162.256835938 410.880859375 c 5,18,19
 150.885742188 432.810546875 150.885742188 432.810546875 116.770507812 436.061523438 c 4,20,21
 66.4111328125 436.061523438 66.4111328125 436.061523438 67.2236328125 385.701171875 c 6,22,-1
 67.2236328125 47.8056640625 l 6,0,1
EndSplineSet
EndChar

StartChar: o
Encoding: 111 111 79
Width: 530
VWidth: 1116
Flags: W
LayerCount: 2
Fore
SplineSet
59.7470703125 295.98046875 m 4,0,1
 19.947265625 182.265625 19.947265625 182.265625 83.302734375 91.29296875 c 4,2,3
 151.53125 1.1337890625 151.53125 1.1337890625 265.24609375 -0.490234375 c 4,4,5
 362.715820312 -0.490234375 362.715820312 -0.490234375 425.259765625 66.1142578125 c 4,6,7
 489.427734375 132.71875 489.427734375 132.71875 485.366210938 233.436523438 c 4,8,9
 479.680664062 365.022460938 479.680664062 365.022460938 352.157226562 421.87890625 c 4,10,11
 225.446289062 476.30078125 225.446289062 476.30078125 119.041015625 387.764648438 c 4,12,13
 80.0537109375 350.401367188 80.0537109375 350.401367188 59.7470703125 295.98046875 c 4,0,1
265.24609375 343.90234375 m 4,14,15
 388.708984375 342.279296875 388.708984375 342.279296875 386.272460938 219.62890625 c 4,16,17
 386.272460938 96.1669921875 386.272460938 96.1669921875 265.24609375 97.791015625 c 4,18,19
 141.784179688 97.791015625 141.784179688 97.791015625 141.784179688 219.62890625 c 4,20,21
 145.033203125 345.528320312 145.033203125 345.528320312 265.24609375 343.90234375 c 4,14,15
EndSplineSet
EndChar

StartChar: p
Encoding: 112 112 80
Width: 530
VWidth: 1116
Flags: W
LayerCount: 2
Fore
SplineSet
266.625 338.64453125 m 132,-1,1
 384.807617188 338.64453125 384.807617188 338.64453125 386.431640625 220.8671875 c 4,2,3
 386.431640625 101.466796875 386.431640625 101.466796875 264.59375 102.279296875 c 4,4,5
 146.818359375 102.279296875 146.818359375 102.279296875 148.442382812 219.244140625 c 4,6,7
 148.442382812 338.64453125 148.442382812 338.64453125 266.625 338.64453125 c 132,-1,1
42.849609375 -71.5419921875 m 6,8,9
 42.849609375 -120.27734375 42.849609375 -120.27734375 94.021484375 -119.87109375 c 132,-1,10
 145.192382812 -119.46484375 145.192382812 -119.46484375 145.192382812 -71.5419921875 c 6,11,-1
 145.192382812 35.6748046875 l 5,12,13
 198.801757812 0.748046875 198.801757812 0.748046875 264.59375 0.748046875 c 4,14,15
 354.752929688 0.748046875 354.752929688 0.748046875 420.952148438 64.916015625 c 132,-1,16
 487.150390625 129.083984375 487.150390625 129.083984375 487.150390625 220.8671875 c 4,17,18
 487.150390625 311.02734375 487.150390625 311.02734375 421.763671875 376.0078125 c 132,-1,19
 356.377929688 440.987304688 356.377929688 440.987304688 267.030273438 440.987304688 c 4,20,21
 198.801757812 440.987304688 198.801757812 440.987304688 143.568359375 402 c 5,22,23
 137.8828125 438.55078125 137.8828125 438.55078125 94.021484375 438.55078125 c 4,24,25
 43.6611328125 438.55078125 43.6611328125 438.55078125 42.849609375 390.627929688 c 6,26,-1
 42.849609375 -71.5419921875 l 6,8,9
EndSplineSet
EndChar

StartChar: q
Encoding: 113 113 81
Width: 530
VWidth: 1116
Flags: W
LayerCount: 2
Fore
SplineSet
264.59375 440.051757812 m 4,0,1
 174.43359375 440.051757812 174.43359375 440.051757812 108.641601562 375.072265625 c 132,-1,2
 42.849609375 310.091796875 42.849609375 310.091796875 42.849609375 220.338867188 c 132,-1,3
 42.849609375 130.584960938 42.849609375 130.584960938 108.641601562 65.1982421875 c 132,-1,4
 174.43359375 -0.1875 174.43359375 -0.1875 264.59375 -0.1875 c 4,5,6
 332.823242188 -0.1875 332.823242188 -0.1875 386.431640625 34.7392578125 c 5,7,-1
 386.431640625 -72.4775390625 l 6,8,9
 386.431640625 -121.212890625 386.431640625 -121.212890625 436.791015625 -120.806640625 c 132,-1,10
 487.150390625 -120.400390625 487.150390625 -120.400390625 487.150390625 -72.4775390625 c 6,11,-1
 487.150390625 389.692382812 l 6,12,13
 487.150390625 438.426757812 487.150390625 438.426757812 438.415039062 437.615234375 c 4,14,15
 394.5546875 437.615234375 394.5546875 437.615234375 386.431640625 401.064453125 c 5,16,17
 332.823242188 440.051757812 332.823242188 440.051757812 264.59375 440.051757812 c 4,0,1
145.192382812 219.931640625 m 4,18,19
 145.192382812 337.708984375 145.192382812 337.708984375 264.59375 337.708984375 c 4,20,21
 310.079101562 337.708984375 310.079101562 337.708984375 346.224609375 304 c 132,-1,22
 382.370117188 270.291992188 382.370117188 270.291992188 382.370117188 218.30859375 c 4,23,24
 382.370117188 100.53125 382.370117188 100.53125 264.59375 101.34375 c 4,25,26
 145.192382812 100.53125 145.192382812 100.53125 145.192382812 219.931640625 c 4,18,19
EndSplineSet
EndChar

StartChar: r
Encoding: 114 114 82
Width: 530
VWidth: 1116
Flags: W
LayerCount: 2
Fore
SplineSet
160.524414062 279.030273438 m 5,0,1
 193.826171875 332.639648438 193.826171875 332.639648438 263.6796875 331.014648438 c 4,2,3
 341.65625 332.639648438 341.65625 332.639648438 374.146484375 268.471679688 c 4,4,5
 390.390625 242.479492188 390.390625 242.479492188 416.7890625 240.44921875 c 132,-1,6
 443.1875 238.41796875 443.1875 238.41796875 460.245117188 262.37890625 c 132,-1,7
 477.302734375 286.341796875 477.302734375 286.341796875 465.118164062 313.958007812 c 4,8,9
 425.317382812 392.74609375 425.317382812 392.74609375 330.28515625 425.236328125 c 4,10,11
 243.374023438 452.040039062 243.374023438 452.040039062 157.275390625 407.366210938 c 5,12,13
 148.340820312 433.358398438 148.340820312 433.358398438 110.9765625 435.794921875 c 4,14,15
 60.6171875 435.794921875 60.6171875 435.794921875 60.6171875 387.059570312 c 6,16,-1
 60.6171875 298.524414062 l 6,17,18
 58.9931640625 289.58984375 58.9931640625 289.58984375 60.6171875 280.655273438 c 6,19,-1
 60.6171875 47.5400390625 l 6,20,21
 60.6171875 -1.1953125 60.6171875 -1.1953125 110.571289062 -1.1953125 c 132,-1,22
 160.524414062 -1.1953125 160.524414062 -1.1953125 160.524414062 47.5400390625 c 6,23,-1
 160.524414062 279.030273438 l 5,0,1
EndSplineSet
EndChar

StartChar: s
Encoding: 115 115 83
Width: 530
VWidth: 1116
Flags: W
LayerCount: 2
Fore
SplineSet
165.506835938 142.572265625 m 0,0,1
 150.88671875 158.005859375 150.88671875 158.005859375 128.956054688 157.193359375 c 0,2,3
 78.595703125 157.193359375 78.595703125 157.193359375 79.408203125 106.833984375 c 0,4,5
 79.408203125 86.52734375 79.408203125 86.52734375 93.2158203125 71.9072265625 c 0,6,7
 112.7109375 51.6015625 112.7109375 51.6015625 136.265625 36.9794921875 c 0,8,9
 195.559570312 -1.1953125 195.559570312 -1.1953125 262.9765625 -1.1953125 c 0,10,11
 336.080078125 -1.1953125 336.080078125 -1.1953125 391.3125 40.23046875 c 0,12,13
 413.243164062 57.2861328125 413.243164062 57.2861328125 427.86328125 77.5927734375 c 0,14,15
 448.168945312 108.458984375 448.168945312 108.458984375 448.168945312 146.633789062 c 2,16,-1
 448.168945312 146.633789062 l 2,17,18
 448.168945312 183.997070312 448.168945312 183.997070312 427.05078125 215.26953125 c 128,-1,19
 405.932617188 246.541015625 405.932617188 246.541015625 371.818359375 261.161132812 c 0,20,21
 349.887695312 270.095703125 349.887695312 270.095703125 324.708007812 270.095703125 c 0,22,23
 315.7734375 270.095703125 315.7734375 270.095703125 306.025390625 268.471679688 c 2,24,-1
 218.302734375 268.471679688 l 2,25,26
 210.9921875 268.471679688 210.9921875 268.471679688 206.119140625 267.659179688 c 0,27,28
 190.685546875 272.532226562 190.685546875 272.532226562 185.813476562 278.21875 c 0,29,30
 181.751953125 284.716796875 181.751953125 284.716796875 181.751953125 291.21484375 c 0,31,32
 181.751953125 298.524414062 181.751953125 298.524414062 185.813476562 304.2109375 c 0,33,34
 188.25 309.896484375 188.25 309.896484375 196.372070312 315.583007812 c 0,35,36
 222.364257812 335.888671875 222.364257812 335.888671875 261.3515625 335.888671875 c 0,37,38
 301.15234375 335.076171875 301.15234375 335.076171875 340.952148438 313.14453125 c 0,39,40
 355.573242188 305.022460938 355.573242188 305.022460938 368.569335938 294.463867188 c 0,41,42
 381.565429688 283.904296875 381.565429688 283.904296875 400.247070312 284.716796875 c 0,43,44
 450.60546875 284.716796875 450.60546875 284.716796875 450.60546875 335.076171875 c 0,45,46
 450.60546875 359.443359375 450.60546875 359.443359375 431.112304688 374.875976562 c 0,47,48
 411.618164062 389.497070312 411.618164062 389.497070312 388.875976562 400.868164062 c 0,49,50
 327.95703125 434.170898438 327.95703125 434.170898438 267.038085938 435.794921875 c 2,51,-1
 261.3515625 435.794921875 l 2,52,53
 189.061523438 435.794921875 189.061523438 435.794921875 136.265625 395.182617188 c 0,54,55
 115.147460938 379.75 115.147460938 379.75 102.151367188 360.255859375 c 0,56,57
 81.8447265625 329.390625 81.8447265625 329.390625 81.8447265625 291.21484375 c 0,58,59
 81.8447265625 253.850585938 81.8447265625 253.850585938 102.151367188 222.985351562 c 0,60,61
 122.45703125 192.120117188 122.45703125 192.120117188 156.572265625 176.6875 c 0,62,63
 180.126953125 166.127929688 180.126953125 166.127929688 206.119140625 166.940429688 c 0,64,65
 214.2421875 166.940429688 214.2421875 166.940429688 221.551757812 168.564453125 c 2,66,-1
 309.275390625 168.564453125 l 2,67,68
 316.584960938 168.564453125 316.584960938 168.564453125 324.708007812 169.376953125 c 0,69,70
 331.205078125 169.376953125 331.205078125 169.376953125 333.642578125 167.751953125 c 0,71,72
 340.140625 165.31640625 340.140625 165.31640625 344.202148438 159.224609375 c 128,-1,73
 348.263671875 153.1328125 348.263671875 153.1328125 348.263671875 145.822265625 c 128,-1,74
 348.263671875 138.510742188 348.263671875 138.510742188 344.202148438 132.826171875 c 0,75,76
 340.140625 127.139648438 340.140625 127.139648438 332.018554688 121.455078125 c 0,77,78
 302.77734375 100.3359375 302.77734375 100.3359375 264.600585938 98.7109375 c 0,79,80
 225.61328125 98.7109375 225.61328125 98.7109375 190.685546875 121.455078125 c 0,81,82
 177.690429688 130.388671875 177.690429688 130.388671875 165.506835938 142.572265625 c 0,0,1
EndSplineSet
EndChar

StartChar: t
Encoding: 116 116 84
Width: 530
VWidth: 1116
Flags: W
LayerCount: 2
Fore
SplineSet
134.639648438 477.112304688 m 6,0,1
 85.9052734375 477.112304688 85.9052734375 477.112304688 86.7177734375 427.159179688 c 132,-1,2
 87.529296875 377.206054688 87.529296875 377.206054688 134.639648438 377.206054688 c 6,3,-1
 177.689453125 377.206054688 l 5,4,-1
 177.689453125 137.591796875 l 6,5,6
 177.689453125 137.591796875 l 4,7,8
 177.689453125 135.967773438 177.689453125 135.967773438 177.689453125 132.71875 c 4,9,10
 177.689453125 73.4248046875 177.689453125 73.4248046875 225.206054688 32 c 132,-1,11
 272.72265625 -9.42578125 272.72265625 -9.42578125 339.327148438 1.9462890625 c 4,12,13
 442.482421875 19.8154296875 442.482421875 19.8154296875 443.294921875 96.9794921875 c 4,14,15
 443.294921875 136.779296875 443.294921875 136.779296875 402.276367188 145.307617188 c 132,-1,16
 361.2578125 153.837890625 361.2578125 153.837890625 345.012695312 118.91015625 c 4,17,18
 333.641601562 92.9189453125 333.641601562 92.9189453125 306.024414062 98.603515625 c 132,-1,19
 278.408203125 104.290039062 278.408203125 104.290039062 278.408203125 132.71875 c 4,20,-1
 278.408203125 137.591796875 l 6,21,-1
 278.408203125 377.206054688 l 5,22,-1
 386.4375 377.206054688 l 6,23,24
 435.172851562 377.206054688 435.172851562 377.206054688 436.390625 427.159179688 c 132,-1,25
 437.610351562 477.112304688 437.610351562 477.112304688 386.4375 477.112304688 c 6,26,-1
 278.408203125 477.112304688 l 5,27,-1
 278.408203125 569.708984375 l 6,28,29
 278.408203125 618.444335938 278.408203125 618.444335938 228.048828125 619.255859375 c 132,-1,30
 177.689453125 620.068359375 177.689453125 620.068359375 177.689453125 569.708984375 c 6,31,-1
 177.689453125 477.112304688 l 5,32,-1
 134.639648438 477.112304688 l 6,0,1
EndSplineSet
EndChar

StartChar: u
Encoding: 117 117 85
Width: 530
VWidth: 1116
Flags: W
LayerCount: 2
Fore
SplineSet
462.776367188 389.999023438 m 2,0,1
 462.776367188 438.734375 462.776367188 438.734375 412.010742188 438.734375 c 128,-1,2
 361.245117188 438.734375 361.245117188 438.734375 361.245117188 389.999023438 c 2,3,-1
 361.245117188 149.573242188 l 1,4,5
 326.318359375 104.086914062 326.318359375 104.086914062 263.774414062 104.899414062 c 0,6,7
 200.419921875 104.899414062 200.419921875 104.899414062 168.7421875 149.573242188 c 1,8,-1
 168.7421875 389.999023438 l 2,9,10
 168.7421875 438.734375 168.7421875 438.734375 117.9765625 438.734375 c 128,-1,11
 67.2109375 438.734375 67.2109375 438.734375 67.2109375 389.999023438 c 2,12,-1
 67.2109375 134.952148438 l 2,13,14
 67.2109375 108.9609375 67.2109375 108.9609375 81.83203125 93.5283203125 c 1,15,16
 157.370117188 -12.876953125 157.370117188 -12.876953125 292.204101562 3.3681640625 c 0,17,18
 332.00390625 9.0537109375 332.00390625 9.0537109375 365.305664062 25.298828125 c 1,19,20
 376.677734375 0.9306640625 376.677734375 0.9306640625 413.229492188 1.7431640625 c 0,21,22
 463.588867188 1.7431640625 463.588867188 1.7431640625 462.776367188 50.478515625 c 2,23,-1
 462.776367188 389.999023438 l 2,0,1
EndSplineSet
EndChar

StartChar: v
Encoding: 118 118 86
Width: 530
VWidth: 1116
Flags: W
LayerCount: 2
Fore
SplineSet
141.379882812 408.793945312 m 6,0,1
 125.135742188 434.787109375 125.135742188 434.787109375 97.9248046875 435.599609375 c 132,-1,2
 70.7138671875 436.41015625 70.7138671875 436.41015625 53.6572265625 413.66796875 c 132,-1,3
 36.599609375 390.924804688 36.599609375 390.924804688 49.595703125 364.120117188 c 6,4,-1
 213.670898438 31.91015625 l 6,5,6
 216.107421875 26.224609375 216.107421875 26.224609375 222.60546875 19.7275390625 c 4,7,8
 240.474609375 -4.640625 240.474609375 -4.640625 265.655273438 -3.015625 c 4,9,10
 268.090820312 -3.015625 268.090820312 -3.015625 272.96484375 -1.392578125 c 4,11,12
 290.834960938 1.044921875 290.834960938 1.044921875 306.267578125 19.7275390625 c 4,13,14
 311.952148438 25.4130859375 311.952148438 25.4130859375 313.577148438 31.91015625 c 6,15,-1
 479.276367188 364.120117188 l 6,16,17
 493.897460938 390.924804688 493.897460938 390.924804688 476.838867188 413.66796875 c 132,-1,18
 459.782226562 436.41015625 459.782226562 436.41015625 432.571289062 435.192382812 c 132,-1,19
 405.361328125 433.973632812 405.361328125 433.973632812 389.116210938 408.793945312 c 6,20,-1
 264.029296875 159.434570312 l 5,21,-1
 141.379882812 408.793945312 l 6,0,1
EndSplineSet
EndChar

StartChar: w
Encoding: 119 119 87
Width: 530
VWidth: 1116
Flags: W
LayerCount: 2
Fore
SplineSet
484.850585938 381.849609375 m 6,0,1
 490.53515625 412.713867188 490.53515625 412.713867188 468.604492188 429.365234375 c 132,-1,2
 446.673828125 446.016601562 446.673828125 446.016601562 419.05859375 437.48828125 c 132,-1,3
 391.44140625 428.958984375 391.44140625 428.958984375 385.755859375 398.09375 c 6,4,-1
 353.264648438 216.149414062 l 5,5,-1
 315.901367188 297.375 l 6,6,7
 313.465820312 306.309570312 313.465820312 306.309570312 306.154296875 316.056640625 c 4,8,9
 306.154296875 316.056640625 l 4,10,11
 294.783203125 333.92578125 294.783203125 333.92578125 272.852539062 334.739257812 c 4,12,13
 267.166015625 336.36328125 267.166015625 336.36328125 259.856445312 336.36328125 c 4,14,15
 233.864257812 334.739257812 233.864257812 334.739257812 223.305664062 316.056640625 c 4,16,17
 217.620117188 307.122070312 217.620117188 307.122070312 212.74609375 294.9375 c 6,18,-1
 177.819335938 214.525390625 l 5,19,-1
 142.892578125 398.09375 l 6,20,21
 137.20703125 426.522460938 137.20703125 426.522460938 110.80859375 436.270507812 c 132,-1,22
 84.41015625 446.016601562 84.41015625 446.016601562 61.66796875 428.553710938 c 132,-1,23
 38.9248046875 411.090820312 38.9248046875 411.090820312 45.4228515625 381.849609375 c 6,24,-1
 103.091796875 49.638671875 l 6,25,26
 101.467773438 35.017578125 101.467773438 35.017578125 111.21484375 25.271484375 c 4,27,28
 118.525390625 10.650390625 118.525390625 10.650390625 136.39453125 1.7158203125 c 4,29,30
 147.766601562 -0.720703125 147.766601562 -0.720703125 159.950195312 -0.720703125 c 4,31,32
 180.256835938 0.904296875 180.256835938 0.904296875 192.440429688 13.900390625 c 4,33,34
 203.811523438 22.833984375 203.811523438 22.833984375 205.436523438 35.830078125 c 6,35,-1
 264.73046875 166.602539062 l 5,36,-1
 324.836914062 37.455078125 l 5,37,38
 327.274414062 21.2099609375 327.274414062 21.2099609375 344.330078125 10.650390625 c 4,39,40
 368.697265625 -5.5947265625 368.697265625 -5.5947265625 393.065429688 1.7158203125 c 4,41,42
 413.372070312 7.4013671875 413.372070312 7.4013671875 420.682617188 26.083984375 c 4,43,44
 426.368164062 37.455078125 426.368164062 37.455078125 426.368164062 51.2626953125 c 6,45,-1
 484.850585938 381.849609375 l 6,0,1
EndSplineSet
EndChar

StartChar: x
Encoding: 120 120 88
Width: 530
VWidth: 1116
Flags: W
LayerCount: 2
Fore
SplineSet
58.14453125 84.0986328125 m 6,0,1
 36.2138671875 62.1669921875 36.2138671875 62.1669921875 45.1484375 34.14453125 c 132,-1,2
 54.083984375 6.1220703125 54.083984375 6.1220703125 78.451171875 -1.1884765625 c 132,-1,3
 102.819335938 -8.498046875 102.819335938 -8.498046875 127.186523438 10.9951171875 c 6,4,-1
 264.45703125 144.204101562 l 5,5,-1
 397.666015625 10.9951171875 l 6,6,7
 419.595703125 -10.935546875 419.595703125 -10.935546875 447.619140625 -1.5947265625 c 132,-1,8
 475.641601562 7.7470703125 475.641601562 7.7470703125 481.733398438 33.7392578125 c 132,-1,9
 487.825195312 59.73046875 487.825195312 59.73046875 469.143554688 84.0986328125 c 6,10,-1
 335.123046875 215.681640625 l 5,11,-1
 470.767578125 348.891601562 l 6,12,13
 505.694335938 383.818359375 505.694335938 383.818359375 469.549804688 420.370117188 c 132,-1,14
 433.404296875 456.920898438 433.404296875 456.920898438 397.666015625 421.995117188 c 6,15,-1
 264.45703125 288.78515625 l 5,16,-1
 127.186523438 421.995117188 l 6,17,18
 105.254882812 443.924804688 105.254882812 443.924804688 78.044921875 432.958984375 c 132,-1,19
 50.8349609375 421.995117188 50.8349609375 421.995117188 43.9306640625 398.438476562 c 132,-1,20
 37.0263671875 374.883789062 37.0263671875 374.883789062 55.708984375 348.891601562 c 6,21,-1
 192.166015625 215.681640625 l 5,22,-1
 58.14453125 84.0986328125 l 6,0,1
EndSplineSet
EndChar

StartChar: y
Encoding: 121 121 89
Width: 530
VWidth: 1116
Flags: W
LayerCount: 2
Fore
SplineSet
134.17578125 418.357421875 m 6,0,1
 117.930664062 444.349609375 117.930664062 444.349609375 88.6904296875 439.475585938 c 132,-1,2
 59.44921875 434.602539062 59.44921875 434.602539062 48.8896484375 412.264648438 c 132,-1,3
 38.3310546875 389.928710938 38.3310546875 389.928710938 51.326171875 361.499023438 c 6,4,-1
 195.094726562 156 l 5,5,-1
 54.576171875 -34.8779296875 l 6,6,7
 36.7060546875 -60.87109375 36.7060546875 -60.87109375 48.078125 -86.05078125 c 132,-1,8
 59.44921875 -111.23046875 59.44921875 -111.23046875 84.62890625 -114.884765625 c 132,-1,9
 109.807617188 -118.540039062 109.807617188 -118.540039062 132.551757812 -96.609375 c 6,10,-1
 476.133789062 360.6875 l 6,11,12
 494.00390625 386.6796875 494.00390625 386.6796875 480.600585938 411.453125 c 132,-1,13
 467.198242188 436.227539062 467.198242188 436.227539062 442.01953125 439.475585938 c 132,-1,14
 416.838867188 442.724609375 416.838867188 442.724609375 394.908203125 418.357421875 c 6,15,-1
 260.07421875 240.474609375 l 5,16,-1
 134.17578125 418.357421875 l 6,0,1
EndSplineSet
EndChar

StartChar: z
Encoding: 122 122 90
Width: 530
VWidth: 1116
Flags: W
LayerCount: 2
Fore
SplineSet
93.5673828125 436.513671875 m 6,0,1
 44.83203125 436.513671875 44.83203125 436.513671875 44.83203125 386.154296875 c 132,-1,2
 44.83203125 335.793945312 44.83203125 335.793945312 93.5673828125 335.793945312 c 6,3,-1
 312.875 335.793945312 l 5,4,-1
 74.88671875 92.119140625 l 5,5,6
 60.2646484375 86.4345703125 60.2646484375 86.4345703125 54.580078125 71.0009765625 c 4,7,8
 45.6455078125 54.755859375 45.6455078125 54.755859375 52.142578125 33.6376953125 c 4,9,10
 57.8291015625 -2.9140625 57.8291015625 -2.9140625 100.877929688 -2.9140625 c 6,11,-1
 436.337890625 -2.9140625 l 6,12,13
 485.072265625 -2.9140625 485.072265625 -2.9140625 484.259765625 46.6328125 c 132,-1,14
 483.448242188 96.1806640625 483.448242188 96.1806640625 436.337890625 96.1806640625 c 6,15,-1
 221.090820312 96.1806640625 l 5,16,-1
 461.517578125 340.66796875 l 5,17,18
 476.13671875 346.354492188 476.13671875 346.354492188 479.38671875 362.598632812 c 4,19,20
 488.321289062 378.84375 488.321289062 378.84375 483.448242188 399.961914062 c 4,21,22
 477.76171875 436.513671875 477.76171875 436.513671875 436.337890625 436.513671875 c 6,23,-1
 93.5673828125 436.513671875 l 6,0,1
EndSplineSet
EndChar

StartChar: uni0394
Encoding: 916 916 91
Width: 530
VWidth: 1116
Flags: W
LayerCount: 2
Fore
SplineSet
210.88671875 725.646484375 m 1,0,-1
 20.615234375 82.4130859375 l 2,1,2
 14.66796875 62.3076171875 14.66796875 62.3076171875 14.66796875 53 c 0,3,4
 14.66796875 0.462890625 14.66796875 0.462890625 67.2041015625 0.462890625 c 2,5,-1
 462.77734375 0.462890625 l 2,6,7
 512.66796875 0 512.66796875 0 515.313476562 53 c 0,8,9
 515.66796875 62 515.66796875 62 509.510742188 82.125 c 2,10,-1
 315.306640625 725.500976562 l 1,11,12
 311.66796875 770 311.66796875 770 263.083984375 770.067382812 c 128,-1,13
 214.66796875 770 214.66796875 770 210.88671875 725.646484375 c 1,0,-1
261.66796875 575 m 1,14,-1
 394.842773438 105.548828125 l 1,15,-1
 135.419921875 105.548828125 l 1,16,-1
 261.66796875 575 l 1,14,-1
EndSplineSet
EndChar

StartChar: guillemotleft
Encoding: 171 171 92
Width: 530
VWidth: 1116
Flags: W
LayerCount: 2
Fore
SplineSet
466.4375 822.655273438 m 5,0,-1
 468.0625 6.3447265625 l 5,1,-1
 61.9375 401.91015625 l 5,2,-1
 466.4375 822.655273438 l 5,0,-1
EndSplineSet
EndChar

StartChar: degree
Encoding: 176 176 93
Width: 530
VWidth: 1116
Flags: W
LayerCount: 2
Fore
SplineSet
212.155273438 557.990234375 m 132,-1,1
 230.025390625 535.247070312 230.025390625 535.247070312 256.424804688 530.374023438 c 132,-1,2
 282.822265625 525.500976562 282.822265625 525.500976562 306.376953125 542.151367188 c 132,-1,3
 329.932617188 558.803710938 329.932617188 558.803710938 334.399414062 585.607421875 c 132,-1,4
 338.8671875 612.41015625 338.8671875 612.41015625 322.215820312 636.373046875 c 132,-1,5
 305.565429688 660.334960938 305.565429688 660.334960938 279.166992188 663.989257812 c 132,-1,6
 252.768554688 667.64453125 252.768554688 667.64453125 229.213867188 651.8046875 c 132,-1,7
 205.659179688 635.966796875 205.659179688 635.966796875 199.97265625 608.349609375 c 132,-1,0
 194.287109375 580.733398438 194.287109375 580.733398438 212.155273438 557.990234375 c 132,-1,1
132.1484375 506.413085938 m 132,-1,9
 94.3798828125 561.239257812 94.3798828125 561.239257812 106.158203125 627.032226562 c 132,-1,10
 117.935546875 692.82421875 117.935546875 692.82421875 173.98046875 731 c 132,-1,11
 230.025390625 769.17578125 230.025390625 769.17578125 295.005859375 756.991210938 c 132,-1,12
 359.986328125 744.807617188 359.986328125 744.807617188 398.161132812 689.168945312 c 132,-1,13
 436.337890625 633.529296875 436.337890625 633.529296875 423.340820312 568.549804688 c 132,-1,14
 410.344726562 503.569335938 410.344726562 503.569335938 355.924804688 465.799804688 c 132,-1,15
 301.50390625 428.03125 301.50390625 428.03125 235.7109375 439.807617188 c 132,-1,8
 169.918945312 451.5859375 169.918945312 451.5859375 132.1484375 506.413085938 c 132,-1,9
EndSplineSet
EndChar

StartChar: guillemotright
Encoding: 187 187 94
Width: 530
VWidth: 1116
Flags: W
LayerCount: 2
Fore
SplineSet
62.34375 822.655273438 m 5,0,-1
 60.7197265625 6.3447265625 l 5,1,-1
 469.280273438 401.91015625 l 5,2,-1
 62.34375 822.655273438 l 5,0,-1
EndSplineSet
EndChar

StartChar: H22073
Encoding: 9633 9633 95
Width: 530
VWidth: 1116
Flags: W
LayerCount: 2
Fore
SplineSet
76.9638671875 659.7734375 m 1,0,-1
 76.9638671875 -0.5859375 l 1,1,-1
 453.84765625 -0.5859375 l 1,2,-1
 453.84765625 663.022460938 l 1,3,-1
 76.9638671875 659.7734375 l 1,0,-1
17.669921875 736.125 m 1,4,-1
 512.330078125 737.75 l 1,5,-1
 512.330078125 -77.75 l 1,6,-1
 17.669921875 -77.75 l 1,7,-1
 17.669921875 736.125 l 1,4,-1
EndSplineSet
EndChar

StartChar: arrowleft
Encoding: 8592 8592 96
Width: 530
VWidth: 1116
Flags: W
LayerCount: 2
Fore
SplineSet
291.767578125 516.256835938 m 1,0,1
 308.012695312 523.567382812 308.012695312 523.567382812 313.698242188 539.811523438 c 0,2,3
 316.135742188 551.18359375 316.135742188 551.18359375 313.698242188 566.6171875 c 0,4,5
 311.26171875 577.98828125 311.26171875 577.98828125 297.454101562 586.922851562 c 0,6,7
 286.08203125 595.858398438 286.08203125 595.858398438 274.7109375 596.668945312 c 0,8,9
 263.338867188 599.106445312 263.338867188 599.106445312 250.34375 596.668945312 c 0,10,11
 230.037109375 594.232421875 230.037109375 594.232421875 216.228515625 576.36328125 c 2,12,-1
 26.162109375 370.051757812 l 2,13,14
 13.978515625 358.680664062 13.978515625 358.680664062 5.85546875 344.872070312 c 0,15,16
 -5.515625 324.56640625 -5.515625 324.56640625 0.9814453125 305.072265625 c 0,17,18
 3.4189453125 290.451171875 3.4189453125 290.451171875 13.978515625 277.456054688 c 2,19,-1
 217.041015625 77.6416015625 l 2,20,21
 234.911132812 53.2744140625 234.911132812 53.2744140625 268.212890625 56.5234375 c 0,22,23
 284.458007812 58.1484375 284.458007812 58.1484375 297.454101562 67.08203125 c 0,24,25
 309.63671875 78.455078125 309.63671875 78.455078125 317.759765625 93.88671875 c 0,26,27
 320.197265625 106.0703125 320.197265625 106.0703125 314.91796875 119.47265625 c 128,-1,28
 309.63671875 132.875976562 309.63671875 132.875976562 299.078125 141.809570312 c 2,29,-1
 155.309570312 266.896484375 l 1,30,-1
 463.153320312 268.520507812 l 1,31,-1
 531.381835938 268.520507812 l 1,32,-1
 531.381835938 370.051757812 l 1,33,-1
 453.40625 370.051757812 l 1,34,-1
 154.498046875 373.30078125 l 1,35,-1
 291.767578125 516.256835938 l 1,0,1
EndSplineSet
EndChar

StartChar: arrowright
Encoding: 8594 8594 97
Width: 530
VWidth: 1116
Flags: W
LayerCount: 2
Fore
SplineSet
238.466796875 516.110351562 m 1,0,1
 222.221679688 523.420898438 222.221679688 523.420898438 216.53515625 539.665039062 c 0,2,3
 214.098632812 551.037109375 214.098632812 551.037109375 216.53515625 566.470703125 c 0,4,5
 218.971679688 577.841796875 218.971679688 577.841796875 232.780273438 586.776367188 c 0,6,7
 244.151367188 595.711914062 244.151367188 595.711914062 256.3359375 596.522460938 c 0,8,9
 267.70703125 598.959960938 267.70703125 598.959960938 278.267578125 596.522460938 c 0,10,11
 298.573242188 594.0859375 298.573242188 594.0859375 314.818359375 576.216796875 c 2,12,-1
 503.258789062 369.905273438 l 2,13,14
 515.443359375 358.534179688 515.443359375 358.534179688 523.565429688 344.725585938 c 0,15,16
 534.9375 324.419921875 534.9375 324.419921875 529.251953125 305.737304688 c 0,17,18
 526.815429688 291.118164062 526.815429688 291.118164062 516.255859375 277.309570312 c 2,19,-1
 320.502929688 80.744140625 l 2,20,21
 293.69921875 53.9404296875 293.69921875 53.9404296875 266.083007812 54.7529296875 c 0,22,23
 249.837890625 56.376953125 249.837890625 56.376953125 236.029296875 63.6875 c 256,24,25
 223.845703125 75.05859375 223.845703125 75.05859375 219.78515625 91.3037109375 c 0,26,27
 217.348632812 103.48828125 217.348632812 103.48828125 220.596679688 116.889648438 c 128,-1,28
 223.845703125 130.291992188 223.845703125 130.291992188 236.029296875 140.0390625 c 2,29,-1
 374.112304688 266.75 l 1,30,-1
 67.08203125 268.374023438 l 1,31,-1
 -1.146484375 268.374023438 l 1,32,-1
 -1.146484375 369.905273438 l 1,33,-1
 76.0166015625 369.905273438 l 1,34,-1
 375.737304688 373.154296875 l 1,35,-1
 238.466796875 516.110351562 l 1,0,1
EndSplineSet
EndChar

StartChar: uni2731
Encoding: 10033 10033 98
Width: 530
VWidth: 1116
Flags: W
LayerCount: 2
Fore
SplineSet
339.094726562 615.342773438 m 0,0,1
 214.008789062 545.48828125 214.008789062 545.48828125 93.794921875 472.38671875 c 0,2,3
 81.611328125 463.451171875 81.611328125 463.451171875 75.9248046875 459.390625 c 0,4,5
 58.056640625 441.521484375 58.056640625 441.521484375 53.99609375 418.77734375 c 0,6,7
 52.3701171875 407.40625 52.3701171875 407.40625 60.4921875 396.03515625 c 0,8,9
 66.1787109375 384.6640625 66.1787109375 384.6640625 75.9248046875 378.977539062 c 0,10,11
 88.109375 370.041992188 88.109375 370.041992188 102.73046875 371.666992188 c 0,12,13
 117.350585938 373.291992188 117.350585938 373.291992188 133.595703125 380.602539062 c 0,14,15
 142.530273438 383.0390625 142.530273438 383.0390625 153.901367188 389.536132812 c 2,16,-1
 391.079101562 521.12109375 l 1,17,-1
 426.818359375 544.676757812 l 2,18,19
 438.189453125 550.362304688 438.189453125 550.362304688 446.311523438 557.671875 c 0,20,21
 460.931640625 569.04296875 460.931640625 569.04296875 467.430664062 578.791015625 c 0,22,23
 478.801757812 593.411132812 478.801757812 593.411132812 475.552734375 608.84375 c 0,24,25
 473.928710938 620.215820312 473.928710938 620.215820312 467.430664062 630.775390625 c 0,26,27
 461.744140625 642.146484375 461.744140625 642.146484375 451.998046875 647.01953125 c 0,28,29
 431.69140625 658.391601562 431.69140625 658.391601562 404.88671875 650.268554688 c 0,30,31
 397.577148438 647.83203125 397.577148438 647.83203125 382.956054688 639.709960938 c 0,32,33
 361.025390625 627.525390625 361.025390625 627.525390625 339.094726562 615.342773438 c 0,0,1
387.830078125 500.814453125 m 0,34,35
 268.4296875 574.729492188 268.4296875 574.729492188 144.154296875 643.771484375 c 0,36,37
 129.534179688 651.081054688 129.534179688 651.081054688 121.411132812 650.268554688 c 0,38,39
 95.4189453125 657.579101562 95.4189453125 657.579101562 75.9248046875 649.456054688 c 0,40,41
 64.5537109375 643.771484375 64.5537109375 643.771484375 60.4921875 635.6484375 c 256,42,43
 54.806640625 624.27734375 54.806640625 624.27734375 53.99609375 612.09375 c 0,44,45
 52.3701171875 597.47265625 52.3701171875 597.47265625 60.4921875 583.665039062 c 0,46,47
 67.8037109375 572.29296875 67.8037109375 572.29296875 82.423828125 559.296875 c 0,48,49
 89.7333984375 553.611328125 89.7333984375 553.611328125 99.48046875 550.362304688 c 2,50,-1
 335.033203125 411.467773438 l 1,51,-1
 373.208984375 389.536132812 l 2,52,53
 382.14453125 383.850585938 382.14453125 383.850585938 391.890625 380.602539062 c 0,54,55
 408.135742188 374.916015625 408.135742188 374.916015625 424.380859375 371.666992188 c 0,56,57
 442.250976562 370.041992188 442.250976562 370.041992188 451.998046875 380.602539062 c 0,58,59
 463.369140625 387.912109375 463.369140625 387.912109375 467.430664062 396.03515625 c 0,60,61
 473.115234375 407.40625 473.115234375 407.40625 475.552734375 418.77734375 c 0,62,63
 475.552734375 444.76953125 475.552734375 444.76953125 456.059570312 463.451171875 c 0,64,65
 450.373046875 469.137695312 450.373046875 469.137695312 433.315429688 475.634765625 c 0,66,67
 412.196289062 488.631835938 412.196289062 488.631835938 387.830078125 500.814453125 c 0,34,35
317.1640625 391.161132812 m 0,68,69
 319.600585938 532.4921875 319.600585938 532.4921875 314.7265625 676.260742188 c 0,70,71
 314.7265625 690.880859375 314.7265625 690.880859375 314.7265625 699.815429688 c 0,72,73
 309.041992188 725.80859375 309.041992188 725.80859375 288.735351562 739.616210938 c 0,74,75
 277.364257812 745.302734375 277.364257812 745.302734375 267.616210938 746.115234375 c 0,76,77
 256.245117188 747.739257812 256.245117188 747.739257812 243.249023438 739.616210938 c 0,78,79
 231.065429688 732.306640625 231.065429688 732.306640625 222.130859375 716.061523438 c 0,80,81
 216.4453125 704.690429688 216.4453125 704.690429688 214.008789062 687.6328125 c 0,82,83
 212.383789062 676.260742188 212.383789062 676.260742188 211.571289062 666.513671875 c 2,84,-1
 211.571289062 395.221679688 l 1,85,-1
 211.571289062 352.172851562 l 2,86,87
 211.571289062 340.80078125 211.571289062 340.80078125 211.571289062 329.4296875 c 0,88,89
 214.008789062 311.560546875 214.008789062 311.560546875 220.505859375 300.188476562 c 0,90,91
 229.440429688 283.943359375 229.440429688 283.943359375 241.625 276.633789062 c 0,92,93
 252.997070312 270.948242188 252.997070312 270.948242188 265.9921875 270.948242188 c 0,94,95
 277.364257812 272.572265625 277.364257812 272.572265625 288.735351562 279.071289062 c 0,96,97
 309.041992188 291.254882812 309.041992188 291.254882812 314.7265625 317.24609375 c 0,98,99
 317.1640625 326.181640625 317.1640625 326.181640625 317.1640625 341.614257812 c 0,100,101
 317.1640625 365.168945312 317.1640625 365.168945312 317.1640625 391.161132812 c 0,68,69
EndSplineSet
EndChar

StartChar: NameMe.96
Encoding: 8593 8593 99
Width: 530
VWidth: 1116
Flags: W
LayerCount: 2
Fore
SplineSet
249.567382812 736.3828125 m 0,0,1
 261.751953125 738.0078125 261.751953125 738.0078125 278.80859375 736.3828125 c 2,2,-1
 289.368164062 734.758789062 l 2,3,4
 291.803710938 732.321289062 291.803710938 732.321289062 299.115234375 728.259765625 c 0,5,6
 304.80078125 725.82421875 304.80078125 725.82421875 308.048828125 723.387695312 c 0,7,8
 310.486328125 720.950195312 310.486328125 720.950195312 315.359375 720.950195312 c 2,9,-1
 494.0546875 566.623046875 l 2,10,11
 496.491210938 564.186523438 496.491210938 564.186523438 499.740234375 560.9375 c 0,12,13
 501.365234375 558.5 501.365234375 558.5 505.426757812 556.063476562 c 256,14,15
 507.86328125 553.626953125 507.86328125 553.626953125 509.487304688 550.376953125 c 0,16,17
 511.923828125 547.94140625 511.923828125 547.94140625 513.548828125 541.442382812 c 0,18,19
 513.548828125 539.819335938 513.548828125 539.819335938 513.548828125 533.3203125 c 0,20,21
 513.548828125 530.883789062 513.548828125 530.883789062 514.360351562 527.634765625 c 256,22,23
 514.360351562 523.57421875 l 0,24,25
 514.360351562 518.700195312 l 0,26,27
 514.360351562 516.263671875 514.360351562 516.263671875 513.548828125 516.263671875 c 0,28,29
 511.923828125 516.263671875 511.923828125 516.263671875 512.736328125 514.639648438 c 128,-1,30
 513.548828125 513.014648438 513.548828125 513.014648438 511.111328125 510.578125 c 256,31,32
 509.487304688 508.953125 509.487304688 508.953125 507.45703125 507.734375 c 128,-1,33
 505.426757812 506.516601562 505.426757812 506.516601562 505.426757812 504.891601562 c 0,34,35
 502.98828125 502.455078125 502.98828125 502.455078125 499.740234375 498.393554688 c 128,-1,36
 496.491210938 494.333007812 496.491210938 494.333007812 494.0546875 492.708007812 c 0,37,38
 491.6171875 490.271484375 491.6171875 490.271484375 485.120117188 491.083984375 c 0,39,40
 482.682617188 489.458984375 482.682617188 489.458984375 478.215820312 489.458984375 c 128,-1,41
 473.748046875 489.458984375 473.748046875 489.458984375 470.90625 490.271484375 c 128,-1,42
 468.0625 491.083984375 468.0625 491.083984375 465.625976562 491.895507812 c 128,-1,43
 463.189453125 492.708007812 463.189453125 492.708007812 461.564453125 492.708007812 c 0,44,45
 459.939453125 494.333007812 459.939453125 494.333007812 457.502929688 499.20703125 c 0,46,-1
 453.442382812 499.20703125 l 2,47,48
 450.192382812 503.267578125 l 2,49,-1
 300.739257812 633.227539062 l 1,50,51
 302.364257812 323.759765625 302.364257812 323.759765625 301.55078125 12.6689453125 c 0,52,53
 301.55078125 -7.6376953125 301.55078125 -7.6376953125 301.55078125 -14.9482421875 c 0,54,55
 299.92578125 -32.8173828125 299.92578125 -32.8173828125 300.739257812 -42.564453125 c 0,56,57
 298.302734375 -53.935546875 298.302734375 -53.935546875 287.7421875 -62.87109375 c 0,58,59
 282.057617188 -68.556640625 282.057617188 -68.556640625 278.80859375 -72.6181640625 c 0,60,61
 273.123046875 -75.0546875 273.123046875 -75.0546875 264.1875 -74.2421875 c 256,62,63
 258.501953125 -74.2421875 258.501953125 -74.2421875 249.567382812 -72.6181640625 c 0,64,65
 247.129882812 -70.181640625 247.129882812 -70.181640625 242.2578125 -61.24609375 c 0,66,67
 233.322265625 -49.875 233.322265625 -49.875 230.07421875 -40.126953125 c 256,68,69
 227.635742188 -28.755859375 227.635742188 -28.755859375 226.012695312 -14.9482421875 c 0,70,71
 226.012695312 -3.576171875 226.012695312 -3.576171875 226.012695312 15.10546875 c 0,72,73
 226.012695312 325.385742188 226.012695312 325.385742188 230.07421875 637.2890625 c 1,74,-1
 79.8076171875 506.516601562 l 2,75,76
 78.1826171875 504.080078125 78.1826171875 504.080078125 76.5576171875 500.830078125 c 0,77,78
 74.93359375 500.830078125 74.93359375 500.830078125 72.0908203125 500.018554688 c 128,-1,79
 69.2470703125 499.20703125 69.2470703125 499.20703125 67.6240234375 497.581054688 c 0,80,81
 65.185546875 495.145507812 65.185546875 495.145507812 62.75 493.926757812 c 128,-1,82
 60.3125 492.708007812 60.3125 492.708007812 57.470703125 491.895507812 c 128,-1,83
 54.6279296875 491.083984375 54.6279296875 491.083984375 50.97265625 491.895507812 c 128,-1,84
 47.3173828125 492.708007812 47.3173828125 492.708007812 42.443359375 492.708007812 c 256,85,86
 40.005859375 494.333007812 40.005859375 494.333007812 35.9453125 496.76953125 c 128,-1,87
 31.8837890625 499.20703125 31.8837890625 499.20703125 28.2294921875 501.237304688 c 128,-1,88
 24.5732421875 503.267578125 24.5732421875 503.267578125 22.9501953125 506.922851562 c 128,-1,89
 21.3251953125 510.578125 21.3251953125 510.578125 18.4814453125 513.420898438 c 128,-1,90
 15.6396484375 516.263671875 15.6396484375 516.263671875 15.6396484375 520.731445312 c 128,-1,91
 15.6396484375 525.197265625 15.6396484375 525.197265625 15.6396484375 530.883789062 c 0,92,93
 15.6396484375 538.194335938 15.6396484375 538.194335938 15.6396484375 544.692382812 c 0,94,95
 18.076171875 550.376953125 18.076171875 550.376953125 24.5732421875 559.3125 c 0,96,97
 27.01171875 564.999023438 27.01171875 564.999023438 35.9453125 569.87109375 c 2,98,-1
 212.204101562 720.950195312 l 2,99,100
 214.640625 723.387695312 214.640625 723.387695312 218.702148438 726.63671875 c 128,-1,101
 222.762695312 729.884765625 222.762695312 729.884765625 230.07421875 730.697265625 c 0,102,103
 237.383789062 733.946289062 237.383789062 733.946289062 249.567382812 736.3828125 c 0,0,1
EndSplineSet
EndChar

StartChar: quotesingle
Encoding: 39 39 105
Width: 530
VWidth: 1116
Flags: W
LayerCount: 2
Fore
SplineSet
181.63671875 535.5546875 m 5,0,1
 180.01171875 519.309570312 180.01171875 519.309570312 192.1953125 505.501953125 c 4,2,3
 208.440429688 483.571289062 208.440429688 483.571289062 236.463867188 484.383789062 c 132,-1,4
 264.485351562 485.196289062 264.485351562 485.196289062 279.106445312 512 c 4,5,6
 296.975585938 551.799804688 296.975585938 551.799804688 338.401367188 651.708007812 c 4,7,8
 358.70703125 697.193359375 358.70703125 697.193359375 338.401367188 741.0546875 c 132,-1,9
 318.094726562 784.916015625 318.094726562 784.916015625 266.922851562 784.916015625 c 4,10,11
 188.946289062 784.916015625 188.946289062 784.916015625 190.571289062 719.936523438 c 4,12,13
 181.63671875 535.5546875 l 6,14,-1
 181.63671875 535.5546875 l 5,0,1
EndSplineSet
EndChar

